<?xml version="1.0" encoding="UTF-8" standalone="no"?>
<svg
   xmlns:dc="http://purl.org/dc/elements/1.1/"
   xmlns:cc="http://creativecommons.org/ns#"
   xmlns:rdf="http://www.w3.org/1999/02/22-rdf-syntax-ns#"
   xmlns:svg="http://www.w3.org/2000/svg"
   xmlns="http://www.w3.org/2000/svg"
   xmlns:sodipodi="http://sodipodi.sourceforge.net/DTD/sodipodi-0.dtd"
   xmlns:inkscape="http://www.inkscape.org/namespaces/inkscape"
   preserveAspectRatio="xMinYMin meet"
   width="100%"
   height="100%"
   viewBox="0 0 1068.7759 296.84325"
   version="1.1"
   id="svg2"
   inkscape:version="0.48.2 r9819"
   sodipodi:docname="dmp_and_goal_system.svg"
   inkscape:export-filename="/home/stulp/coding/oo_dmp_bbo/oo_dmp_bbo/cpp/docs/images/dmp_and_goal_system.png"
   inkscape:export-xdpi="90"
   inkscape:export-ydpi="90">
  <metadata
     id="metadata716">
    <rdf:RDF>
      <cc:Work
         rdf:about="">
        <dc:format>image/svg+xml</dc:format>
        <dc:type
           rdf:resource="http://purl.org/dc/dcmitype/StillImage" />
        <dc:title></dc:title>
      </cc:Work>
    </rdf:RDF>
  </metadata>
  <defs
     id="defs714">
    <clipPath
       id="ID000001">
      <rect
         x="192.804"
         y="23.85"
         width="259.17001"
         height="259.17001"
         id="rect11" />
    </clipPath>
    <clipPath
       id="ID000015">
      <rect
         x="575.25"
         y="23.85"
         width="259.17001"
         height="259.17001"
         id="rect213" />
    </clipPath>
    <clipPath
       id="ID000031">
      <rect
         x="957.69598"
         y="23.85"
         width="259.17001"
         height="259.17001"
         id="rect443" />
    </clipPath>
  </defs>
  <sodipodi:namedview
     pagecolor="#ffffff"
     bordercolor="#666666"
     borderopacity="1"
     objecttolerance="10"
     gridtolerance="10"
     guidetolerance="10"
     inkscape:pageopacity="0"
     inkscape:pageshadow="2"
     inkscape:window-width="1366"
     inkscape:window-height="703"
     id="namedview712"
     showgrid="false"
     inkscape:zoom="0.92067944"
     inkscape:cx="534.38795"
     inkscape:cy="148.57475"
     inkscape:window-x="-4"
     inkscape:window-y="-3"
     inkscape:window-maximized="1"
     inkscape:current-layer="svg2"
     fit-margin-top="0"
     fit-margin-left="0"
     fit-margin-right="0"
     fit-margin-bottom="0" />
  <desc
     id="desc4">Matlab Figure Converted by PLOT2SVG written by Juerg Schwizer</desc>
  <polygon
     points="451.974,23.85 192.804,23.85 192.804,283.02 451.974,283.02 "
     id="polygon13"
     style="fill:#ffffff;fill-opacity:1;stroke:none"
     transform="translate(-156.236,-23.84375)" />
  <polygon
     points="451.974,23.85 192.804,23.85 192.804,23.85 451.974,23.85 "
     id="polygon15"
     style="fill:#ffffff;fill-opacity:1;stroke:none"
     transform="translate(-156.236,-23.84375)" />
  <polygon
     points="192.804,23.85 192.804,23.85 192.804,283.02 192.804,283.02 "
     id="polygon17"
     style="fill:#ffffff;fill-opacity:1;stroke:none"
     transform="translate(-156.236,-23.84375)" />
  <g
     clip-path="url(#ID000001)"
     id="ID000002"
     transform="translate(-156.236,-23.84375)">
    <polyline
       style="fill:none;stroke:#8e8ecc;stroke-width:2pt;stroke-dasharray:none"
       id="polyline22"
       points="192.804,45.448 193.495,45.540 194.187,45.753 194.878,46.079 195.569,46.514 196.260,47.052 196.951,47.688 197.642,48.416 198.333,49.232 199.024,50.132 199.716,51.110 200.407,52.162 201.098,53.285 201.789,54.474 202.480,55.725 203.171,57.035 203.862,58.400 204.553,59.816 205.245,61.281 205.936,62.791 206.627,64.343 207.318,65.935 208.009,67.562 208.700,69.224 209.391,70.917 210.082,72.638 210.773,74.386 211.465,76.158 212.156,77.952 212.847,79.766 213.538,81.598 214.229,83.446 214.920,85.307 215.611,87.181 216.302,89.066 216.994,90.960 217.685,92.861 218.376,94.769 219.067,96.681 219.758,98.597 220.449,100.514 221.140,102.433 221.831,104.352 222.523,106.269 223.214,108.184 223.905,110.095 224.596,112.002 225.287,113.904 225.978,115.800 226.669,117.689 227.360,119.570 228.051,121.444 228.743,123.308 229.434,125.162 230.125,127.006 230.816,128.840 231.507,130.662 232.198,132.472 232.889,134.270 233.580,136.055 234.272,137.827 234.963,139.585 235.654,141.330 236.345,143.060 237.036,144.775 237.727,146.476 238.418,148.161 239.109,149.831 239.801,151.485 240.492,153.124 241.183,154.746 241.874,156.353 242.565,157.943 243.256,159.516 243.947,161.073 244.638,162.613 245.329,164.137 246.021,165.643 246.712,167.133 247.403,168.606 248.094,170.062 248.785,171.500 249.476,172.922 250.167,174.326 250.858,175.714 251.550,177.085 252.241,178.438 252.932,179.775 253.623,181.094 254.314,182.397 255.005,183.683 255.696,184.952 256.387,186.205 257.079,187.441 257.770,188.660 258.461,189.863 259.152,191.050 259.843,192.220 260.534,193.375 261.225,194.513 261.916,195.635 262.607,196.742 263.299,197.833 263.990,198.908 264.681,199.968 265.372,201.012 266.063,202.042 266.754,203.056 267.445,204.055 268.136,205.040 268.828,206.010 269.519,206.965 270.210,207.907 270.901,208.834 271.592,209.746 272.283,210.645 272.974,211.531 273.665,212.402 274.357,213.260 275.048,214.105 275.739,214.937 276.430,215.756 277.121,216.562 277.812,217.355 278.503,218.135 279.194,218.903 279.885,219.659 280.577,220.403 281.268,221.135 281.959,221.855 282.650,222.563 283.341,223.260 284.032,223.946 284.723,224.620 285.414,225.283 286.106,225.936 286.797,226.577 287.488,227.208 288.179,227.829 288.870,228.439 289.561,229.039 290.252,229.629 290.943,230.209 291.635,230.779 292.326,231.339 293.017,231.891 293.708,232.432 294.399,232.965 295.090,233.488 295.781,234.003 296.472,234.509 297.163,235.006 297.855,235.494 298.546,235.974 299.237,236.446 299.928,236.910 300.619,237.365 301.310,237.813 302.001,238.253 302.692,238.685 303.384,239.109 304.075,239.526 304.766,239.936 305.457,240.339 306.148,240.734 306.839,241.122 307.530,241.504 308.221,241.879 308.913,242.247 309.604,242.608 310.295,242.964 310.986,243.312 311.677,243.655 312.368,243.991 313.059,244.322 313.750,244.646 314.441,244.964 315.133,245.277 315.824,245.584 316.515,245.886 317.206,246.182 317.897,246.473 318.588,246.758 319.279,247.038 319.970,247.314 320.662,247.584 321.353,247.849 322.044,248.109 322.735,248.365 323.426,248.615 324.117,248.862 324.808,249.103 325.499,249.341 326.191,249.573 326.882,249.802 327.573,250.026 328.264,250.246 328.955,250.462 329.646,250.675 330.337,250.883 331.028,251.087 331.719,251.287 332.411,251.484 333.102,251.677 333.793,251.866 334.484,252.052 335.175,252.235 335.866,252.414 336.557,252.589 337.248,252.762 337.940,252.931 338.631,253.096 339.322,253.259 340.013,253.419 340.704,253.575 341.395,253.729 342.086,253.880 342.777,254.028 343.469,254.173 344.160,254.315 344.851,254.455 345.542,254.592 346.233,254.726 346.924,254.858 347.615,254.988 348.306,255.114 348.997,255.239 349.689,255.361 350.380,255.481 351.071,255.598 351.762,255.713 352.453,255.826 353.144,255.937 353.835,256.046 354.526,256.152 355.218,256.257 355.909,256.359 356.600,256.460 357.291,256.558 357.982,256.655 358.673,256.750 359.364,256.843 360.055,256.934 360.747,257.023 361.438,257.111 362.129,257.197 362.820,257.281 363.511,257.364 364.202,257.445 364.893,257.525 365.584,257.603 366.275,257.679 366.967,257.754 367.658,257.828 368.349,257.900 369.040,257.970 369.731,258.040 370.422,258.107 371.113,258.174 371.804,258.239 372.496,258.303 373.187,258.366 373.878,258.428 374.569,258.488 375.260,258.547 375.951,258.605 376.642,258.662 377.333,258.718 378.025,258.772 378.716,258.826 379.407,258.878 380.098,258.930 380.789,258.980 381.480,259.030 382.171,259.078 382.862,259.126 383.553,259.172 384.245,259.218 384.936,259.263 385.627,259.307 386.318,259.350 387.009,259.392 387.700,259.433 388.391,259.474 389.082,259.514 389.774,259.552 390.465,259.591 391.156,259.628 391.847,259.665 392.538,259.701 393.229,259.736 393.920,259.770 394.611,259.804 395.303,259.837 395.994,259.870 396.685,259.902 397.376,259.933 398.067,259.963 398.758,259.993 399.449,260.023 400.140,260.052 400.831,260.080 401.523,260.108 402.214,260.135 402.905,260.161 403.596,260.187 404.287,260.213 404.978,260.238 405.669,260.262 406.360,260.286 407.052,260.310 407.743,260.333 408.434,260.355 409.125,260.378 409.816,260.399 410.507,260.421 411.198,260.441 411.889,260.462 412.581,260.482 413.272,260.501 413.963,260.521 414.654,260.539 415.345,260.558 416.036,260.576 416.727,260.594 417.418,260.611 418.109,260.628 418.801,260.645 419.492,260.661 420.183,260.677 420.874,260.693 421.565,260.708 422.256,260.723 422.947,260.738 423.638,260.752 424.330,260.767 425.021,260.780 425.712,260.794 426.403,260.807 427.094,260.820 427.785,260.833 428.476,260.846 429.167,260.858 429.859,260.870 430.550,260.882 431.241,260.893 431.932,260.905 432.623,260.916 433.314,260.927 434.005,260.937 434.696,260.948 435.387,260.958 436.079,260.968 436.770,260.978 437.461,260.987 438.152,260.997 438.843,261.006 439.534,261.015 440.225,261.024 440.916,261.032 441.608,261.041 442.299,261.049 442.990,261.057 443.681,261.065 444.372,261.073 445.063,261.081 445.754,261.088 446.445,261.096 447.137,261.103 447.828,261.110 448.519,261.117 449.210,261.124 449.901,261.130 450.592,261.137 451.283,261.143 451.974,261.149 " />
    <g
       id="g24" />
  </g>
  <g
     id="ID000003"
     transform="translate(-156.236,-23.84375)">
    <g
       id="g27"
       transform="translate(321.389,318.037)">
      <g
         id="g29">
        <text
           style="font-size:12.5px;text-anchor:middle;fill:#000000;font-family:Helvetica"
           id="text31"
           font-size="10pt"
           y="0"
           x="0">time (s)</text>
      </g>
    </g>
  </g>
  <g
     id="ID000004"
     transform="translate(-156.236,-23.84375)">
    <g
       id="g34"
       transform="translate(162.786,154.436)">
      <g
         id="g36"
         transform="matrix(0,-1,1,0,0,0)">
        <text
           style="font-size:12.5px;text-anchor:middle;fill:#000000;font-family:Helvetica"
           id="text38"
           font-size="10pt"
           y="0"
           x="0">y</text>
      </g>
    </g>
  </g>
  <g
     clip-path="url(#ID000001)"
     id="ID000007"
     transform="translate(-156.236,-23.84375)">
    <polyline
       style="fill:none;stroke:#8ecccc;stroke-width:2pt;stroke-dasharray:8, 2"
       id="polyline63"
       points="192.804,45.448 193.495,50.631 194.187,55.691 194.878,60.629 195.569,65.449 196.260,70.153 196.951,74.744 197.642,79.225 198.333,83.598 199.024,87.866 199.716,92.032 200.407,96.098 201.098,100.067 201.789,103.940 202.480,107.720 203.171,111.409 203.862,115.010 204.553,118.525 205.245,121.955 205.936,125.303 206.627,128.570 207.318,131.759 208.009,134.872 208.700,137.909 209.391,140.874 210.082,143.768 210.773,146.592 211.465,149.349 212.156,152.039 212.847,154.665 213.538,157.228 214.229,159.729 214.920,162.170 215.611,164.553 216.302,166.878 216.994,169.148 217.685,171.363 218.376,173.525 219.067,175.635 219.758,177.695 220.449,179.705 221.140,181.666 221.831,183.581 222.523,185.450 223.214,187.274 223.905,189.054 224.596,190.791 225.287,192.487 225.978,194.142 226.669,195.757 227.360,197.334 228.051,198.873 228.743,200.374 229.434,201.840 230.125,203.271 230.816,204.667 231.507,206.030 232.198,207.360 232.889,208.658 233.580,209.925 234.272,211.161 234.963,212.368 235.654,213.546 236.345,214.695 237.036,215.818 237.727,216.913 238.418,217.981 239.109,219.025 239.801,220.043 240.492,221.036 241.183,222.006 241.874,222.953 242.565,223.877 243.256,224.778 243.947,225.658 244.638,226.517 245.329,227.356 246.021,228.174 246.712,228.972 247.403,229.752 248.094,230.512 248.785,231.255 249.476,231.979 250.167,232.687 250.858,233.377 251.550,234.050 252.241,234.708 252.932,235.350 253.623,235.976 254.314,236.587 255.005,237.184 255.696,237.766 256.387,238.335 257.079,238.889 257.770,239.431 258.461,239.959 259.152,240.475 259.843,240.978 260.534,241.469 261.225,241.949 261.916,242.417 262.607,242.873 263.299,243.319 263.990,243.754 264.681,244.179 265.372,244.593 266.063,244.998 266.754,245.392 267.445,245.778 268.136,246.154 268.828,246.521 269.519,246.879 270.210,247.229 270.901,247.570 271.592,247.903 272.283,248.228 272.974,248.545 273.665,248.855 274.357,249.157 275.048,249.452 275.739,249.740 276.430,250.021 277.121,250.295 277.812,250.563 278.503,250.824 279.194,251.079 279.885,251.328 280.577,251.570 281.268,251.807 281.959,252.039 282.650,252.265 283.341,252.485 284.032,252.700 284.723,252.910 285.414,253.115 286.106,253.315 286.797,253.510 287.488,253.700 288.179,253.886 288.870,254.068 289.561,254.245 290.252,254.418 290.943,254.586 291.635,254.751 292.326,254.912 293.017,255.069 293.708,255.222 294.399,255.371 295.090,255.517 295.781,255.659 296.472,255.798 297.163,255.934 297.855,256.066 298.546,256.195 299.237,256.321 299.928,256.444 300.619,256.564 301.310,256.681 302.001,256.796 302.692,256.907 303.384,257.016 304.075,257.123 304.766,257.226 305.457,257.328 306.148,257.426 306.839,257.523 307.530,257.617 308.221,257.709 308.913,257.799 309.604,257.886 310.295,257.972 310.986,258.055 311.677,258.136 312.368,258.216 313.059,258.293 313.750,258.369 314.441,258.443 315.133,258.515 315.824,258.585 316.515,258.654 317.206,258.721 317.897,258.786 318.588,258.850 319.279,258.913 319.970,258.973 320.662,259.033 321.353,259.091 322.044,259.147 322.735,259.202 323.426,259.256 324.117,259.309 324.808,259.360 325.499,259.410 326.191,259.459 326.882,259.507 327.573,259.553 328.264,259.599 328.955,259.643 329.646,259.686 330.337,259.729 331.028,259.770 331.719,259.810 332.411,259.849 333.102,259.888 333.793,259.925 334.484,259.962 335.175,259.997 335.866,260.032 336.557,260.066 337.248,260.099 337.940,260.131 338.631,260.163 339.322,260.194 340.013,260.224 340.704,260.253 341.395,260.282 342.086,260.310 342.777,260.337 343.469,260.364 344.160,260.390 344.851,260.415 345.542,260.440 346.233,260.464 346.924,260.488 347.615,260.511 348.306,260.533 348.997,260.555 349.689,260.576 350.380,260.597 351.071,260.618 351.762,260.637 352.453,260.657 353.144,260.676 353.835,260.694 354.526,260.712 355.218,260.730 355.909,260.747 356.600,260.764 357.291,260.780 357.982,260.796 358.673,260.812 359.364,260.827 360.055,260.842 360.747,260.857 361.438,260.871 362.129,260.884 362.820,260.898 363.511,260.911 364.202,260.924 364.893,260.937 365.584,260.949 366.275,260.961 366.967,260.972 367.658,260.984 368.349,260.995 369.040,261.006 369.731,261.016 370.422,261.027 371.113,261.037 371.804,261.046 372.496,261.056 373.187,261.065 373.878,261.075 374.569,261.084 375.260,261.092 375.951,261.101 376.642,261.109 377.333,261.117 378.025,261.125 378.716,261.133 379.407,261.140 380.098,261.148 380.789,261.155 381.480,261.162 382.171,261.169 382.862,261.175 383.553,261.182 384.245,261.188 384.936,261.194 385.627,261.200 386.318,261.206 387.009,261.212 387.700,261.218 388.391,261.223 389.082,261.229 389.774,261.234 390.465,261.239 391.156,261.244 391.847,261.249 392.538,261.253 393.229,261.258 393.920,261.263 394.611,261.267 395.303,261.271 395.994,261.276 396.685,261.280 397.376,261.284 398.067,261.288 398.758,261.291 399.449,261.295 400.140,261.299 400.831,261.302 401.523,261.306 402.214,261.309 402.905,261.312 403.596,261.316 404.287,261.319 404.978,261.322 405.669,261.325 406.360,261.328 407.052,261.331 407.743,261.333 408.434,261.336 409.125,261.339 409.816,261.341 410.507,261.344 411.198,261.346 411.889,261.349 412.581,261.351 413.272,261.353 413.963,261.356 414.654,261.358 415.345,261.360 416.036,261.362 416.727,261.364 417.418,261.366 418.109,261.368 418.801,261.370 419.492,261.372 420.183,261.373 420.874,261.375 421.565,261.377 422.256,261.378 422.947,261.380 423.638,261.382 424.330,261.383 425.021,261.385 425.712,261.386 426.403,261.388 427.094,261.389 427.785,261.390 428.476,261.392 429.167,261.393 429.859,261.394 430.550,261.396 431.241,261.397 431.932,261.398 432.623,261.399 433.314,261.400 434.005,261.401 434.696,261.403 435.387,261.404 436.079,261.405 436.770,261.406 437.461,261.407 438.152,261.408 438.843,261.408 439.534,261.409 440.225,261.410 440.916,261.411 441.608,261.412 442.299,261.413 442.990,261.414 443.681,261.414 444.372,261.415 445.063,261.416 445.754,261.417 446.445,261.417 447.137,261.418 447.828,261.419 448.519,261.419 449.210,261.420 449.901,261.421 450.592,261.421 451.283,261.422 451.974,261.422 " />
    <g
       id="g65" />
  </g>
  <g
     clip-path="url(#ID000001)"
     id="ID000010"
     transform="translate(-156.236,-23.84375)">
    <polyline
       style="fill:none;stroke:#cccc8e;stroke-width:2pt;stroke-dasharray:none"
       id="polyline90"
       points="192.804,45.448 193.495,45.450 194.187,45.462 194.878,45.491 195.569,45.545 196.260,45.628 196.951,45.745 197.642,45.901 198.333,46.100 199.024,46.345 199.716,46.638 200.407,46.982 201.098,47.379 201.789,47.831 202.480,48.337 203.171,48.900 203.862,49.519 204.553,50.196 205.245,50.929 205.936,51.719 206.627,52.565 207.318,53.466 208.009,54.422 208.700,55.433 209.391,56.495 210.082,57.610 210.773,58.774 211.465,59.988 212.156,61.249 212.847,62.556 213.538,63.907 214.229,65.301 214.920,66.737 215.611,68.211 216.302,69.723 216.994,71.272 217.685,72.854 218.376,74.469 219.067,76.115 219.758,77.790 220.449,79.492 221.140,81.220 221.831,82.972 222.523,84.746 223.214,86.540 223.905,88.354 224.596,90.185 225.287,92.032 225.978,93.894 226.669,95.768 227.360,97.654 228.051,99.549 228.743,101.454 229.434,103.365 230.125,105.283 230.816,107.205 231.507,109.131 232.198,111.059 232.889,112.988 233.580,114.917 234.272,116.845 234.963,118.771 235.654,120.694 236.345,122.613 237.036,124.527 237.727,126.435 238.418,128.337 239.109,130.230 239.801,132.116 240.492,133.993 241.183,135.860 241.874,137.716 242.565,139.561 243.256,141.395 243.947,143.217 244.638,145.026 245.329,146.821 246.021,148.603 246.712,150.371 247.403,152.124 248.094,153.862 248.785,155.585 249.476,157.291 250.167,158.982 250.858,160.656 251.550,162.314 252.241,163.955 252.932,165.579 253.623,167.185 254.314,168.774 255.005,170.345 255.696,171.898 256.387,173.433 257.079,174.950 257.770,176.449 258.461,177.929 259.152,179.391 259.843,180.835 260.534,182.260 261.225,183.667 261.916,185.055 262.607,186.424 263.299,187.775 263.990,189.108 264.681,190.422 265.372,191.717 266.063,192.995 266.754,194.254 267.445,195.494 268.136,196.717 268.828,197.922 269.519,199.108 270.210,200.277 270.901,201.428 271.592,202.561 272.283,203.677 272.974,204.775 273.665,205.856 274.357,206.920 275.048,207.967 275.739,208.997 276.430,210.010 277.121,211.007 277.812,211.987 278.503,212.952 279.194,213.900 279.885,214.832 280.577,215.749 281.268,216.650 281.959,217.535 282.650,218.406 283.341,219.261 284.032,220.102 284.723,220.928 285.414,221.739 286.106,222.536 286.797,223.319 287.488,224.088 288.179,224.844 288.870,225.585 289.561,226.314 290.252,227.029 290.943,227.731 291.635,228.420 292.326,229.096 293.017,229.761 293.708,230.412 294.399,231.052 295.090,231.680 295.781,232.296 296.472,232.900 297.163,233.493 297.855,234.074 298.546,234.645 299.237,235.205 299.928,235.754 300.619,236.292 301.310,236.820 302.001,237.338 302.692,237.846 303.384,238.344 304.075,238.832 304.766,239.311 305.457,239.780 306.148,240.240 306.839,240.691 307.530,241.133 308.221,241.566 308.913,241.991 309.604,242.407 310.295,242.815 310.986,243.215 311.677,243.606 312.368,243.990 313.059,244.366 313.750,244.734 314.441,245.095 315.133,245.449 315.824,245.795 316.515,246.134 317.206,246.467 317.897,246.792 318.588,247.111 319.279,247.423 319.970,247.729 320.662,248.028 321.353,248.322 322.044,248.609 322.735,248.890 323.426,249.165 324.117,249.435 324.808,249.699 325.499,249.957 326.191,250.210 326.882,250.458 327.573,250.700 328.264,250.938 328.955,251.170 329.646,251.397 330.337,251.620 331.028,251.838 331.719,252.051 332.411,252.260 333.102,252.464 333.793,252.664 334.484,252.859 335.175,253.051 335.866,253.238 336.557,253.421 337.248,253.601 337.940,253.776 338.631,253.948 339.322,254.116 340.013,254.280 340.704,254.441 341.395,254.598 342.086,254.752 342.777,254.902 343.469,255.050 344.160,255.194 344.851,255.335 345.542,255.472 346.233,255.607 346.924,255.739 347.615,255.868 348.306,255.994 348.997,256.118 349.689,256.238 350.380,256.356 351.071,256.472 351.762,256.584 352.453,256.695 353.144,256.803 353.835,256.908 354.526,257.012 355.218,257.112 355.909,257.211 356.600,257.308 357.291,257.402 357.982,257.494 358.673,257.584 359.364,257.673 360.055,257.759 360.747,257.843 361.438,257.926 362.129,258.006 362.820,258.085 363.511,258.162 364.202,258.237 364.893,258.311 365.584,258.383 366.275,258.453 366.967,258.522 367.658,258.589 368.349,258.655 369.040,258.719 369.731,258.782 370.422,258.843 371.113,258.903 371.804,258.961 372.496,259.019 373.187,259.075 373.878,259.129 374.569,259.183 375.260,259.235 375.951,259.286 376.642,259.336 377.333,259.385 378.025,259.433 378.716,259.479 379.407,259.525 380.098,259.569 380.789,259.613 381.480,259.655 382.171,259.697 382.862,259.737 383.553,259.777 384.245,259.816 384.936,259.854 385.627,259.891 386.318,259.927 387.009,259.962 387.700,259.997 388.391,260.030 389.082,260.063 389.774,260.095 390.465,260.127 391.156,260.158 391.847,260.188 392.538,260.217 393.229,260.246 393.920,260.274 394.611,260.301 395.303,260.328 395.994,260.354 396.685,260.379 397.376,260.404 398.067,260.429 398.758,260.452 399.449,260.476 400.140,260.498 400.831,260.520 401.523,260.542 402.214,260.563 402.905,260.584 403.596,260.604 404.287,260.624 404.978,260.643 405.669,260.662 406.360,260.680 407.052,260.698 407.743,260.716 408.434,260.733 409.125,260.750 409.816,260.766 410.507,260.782 411.198,260.798 411.889,260.813 412.581,260.828 413.272,260.842 413.963,260.856 414.654,260.870 415.345,260.884 416.036,260.897 416.727,260.910 417.418,260.923 418.109,260.935 418.801,260.947 419.492,260.959 420.183,260.970 420.874,260.981 421.565,260.992 422.256,261.003 422.947,261.013 423.638,261.024 424.330,261.034 425.021,261.043 425.712,261.053 426.403,261.062 427.094,261.071 427.785,261.080 428.476,261.089 429.167,261.097 429.859,261.105 430.550,261.113 431.241,261.121 431.932,261.129 432.623,261.136 433.314,261.144 434.005,261.151 434.696,261.158 435.387,261.165 436.079,261.171 436.770,261.178 437.461,261.184 438.152,261.190 438.843,261.196 439.534,261.202 440.225,261.208 440.916,261.214 441.608,261.219 442.299,261.225 442.990,261.230 443.681,261.235 444.372,261.240 445.063,261.245 445.754,261.250 446.445,261.254 447.137,261.259 447.828,261.263 448.519,261.268 449.210,261.272 449.901,261.276 450.592,261.280 451.283,261.284 451.974,261.288 " />
    <g
       id="g92" />
  </g>
  <g
     id="ID000013"
     transform="translate(-156.236,-23.84375)" />
  <g
     id="g117"
     transform="translate(-156.236,-23.84375)">
    <polyline
       points="192.804,283.020 192.804,280.113 "
       id="polyline119"
       style="fill:none;stroke:#000000;stroke-width:0.5pt;stroke-dasharray:none" />
    <polyline
       points="279.194,283.020 279.194,280.113 "
       id="polyline121"
       style="fill:none;stroke:#000000;stroke-width:0.5pt;stroke-dasharray:none" />
    <polyline
       points="365.584,283.020 365.584,280.113 "
       id="polyline123"
       style="fill:none;stroke:#000000;stroke-width:0.5pt;stroke-dasharray:none" />
    <polyline
       points="451.974,283.020 451.974,280.113 "
       id="polyline125"
       style="fill:none;stroke:#000000;stroke-width:0.5pt;stroke-dasharray:none" />
    <polyline
       points="192.804,283.020 451.974,283.020 "
       id="polyline127"
       style="fill:none;stroke:#000000;stroke-width:0.5pt;stroke-dasharray:none" />
    <g
       transform="translate(192.804,300.003)"
       id="g129">
      <g
         id="g131">
        <text
           x="0"
           y="0"
           font-size="10pt"
           id="text133"
           style="font-size:12.5px;text-anchor:middle;fill:#000000;font-family:Helvetica">0</text>
      </g>
    </g>
    <g
       transform="translate(279.194,300.003)"
       id="g135">
      <g
         id="g137">
        <text
           x="0"
           y="0"
           font-size="10pt"
           id="text139"
           style="font-size:12.5px;text-anchor:middle;fill:#000000;font-family:Helvetica">0.5</text>
      </g>
    </g>
    <g
       transform="translate(365.584,300.003)"
       id="g141">
      <g
         id="g143">
        <text
           x="0"
           y="0"
           font-size="10pt"
           id="text145"
           style="font-size:12.5px;text-anchor:middle;fill:#000000;font-family:Helvetica">1</text>
      </g>
    </g>
    <g
       transform="translate(451.974,300.003)"
       id="g147">
      <g
         id="g149">
        <text
           x="0"
           y="0"
           font-size="10pt"
           id="text151"
           style="font-size:12.5px;text-anchor:middle;fill:#000000;font-family:Helvetica">1.5</text>
      </g>
    </g>
    <polyline
       points="192.804,261.446 195.396,261.446 "
       id="polyline153"
       style="fill:none;stroke:#000000;stroke-width:0.5pt;stroke-dasharray:none" />
    <polyline
       points="192.804,218.247 195.396,218.247 "
       id="polyline155"
       style="fill:none;stroke:#000000;stroke-width:0.5pt;stroke-dasharray:none" />
    <polyline
       points="192.804,175.047 195.396,175.047 "
       id="polyline157"
       style="fill:none;stroke:#000000;stroke-width:0.5pt;stroke-dasharray:none" />
    <polyline
       points="192.804,131.847 195.396,131.847 "
       id="polyline159"
       style="fill:none;stroke:#000000;stroke-width:0.5pt;stroke-dasharray:none" />
    <polyline
       points="192.804,88.647 195.396,88.647 "
       id="polyline161"
       style="fill:none;stroke:#000000;stroke-width:0.5pt;stroke-dasharray:none" />
    <polyline
       points="192.804,45.448 195.396,45.448 "
       id="polyline163"
       style="fill:none;stroke:#000000;stroke-width:0.5pt;stroke-dasharray:none" />
    <polyline
       points="192.804,283.020 192.804,23.850 "
       id="polyline165"
       style="fill:none;stroke:#000000;stroke-width:0.5pt;stroke-dasharray:none" />
    <g
       transform="translate(187.621,265.946)"
       id="g167">
      <g
         id="g169">
        <text
           x="0"
           y="0"
           font-size="10pt"
           id="text171"
           style="font-size:12.5px;text-anchor:end;fill:#000000;font-family:Helvetica">0.5</text>
      </g>
    </g>
    <g
       transform="translate(187.621,222.747)"
       id="g173">
      <g
         id="g175">
        <text
           x="0"
           y="0"
           font-size="10pt"
           id="text177"
           style="font-size:12.5px;text-anchor:end;fill:#000000;font-family:Helvetica">0.6</text>
      </g>
    </g>
    <g
       transform="translate(187.621,179.547)"
       id="g179">
      <g
         id="g181">
        <text
           x="0"
           y="0"
           font-size="10pt"
           id="text183"
           style="font-size:12.5px;text-anchor:end;fill:#000000;font-family:Helvetica">0.7</text>
      </g>
    </g>
    <g
       transform="translate(187.621,136.347)"
       id="g185">
      <g
         id="g187">
        <text
           x="0"
           y="0"
           font-size="10pt"
           id="text189"
           style="font-size:12.5px;text-anchor:end;fill:#000000;font-family:Helvetica">0.8</text>
      </g>
    </g>
    <g
       transform="translate(187.621,93.147)"
       id="g191">
      <g
         id="g193">
        <text
           x="0"
           y="0"
           font-size="10pt"
           id="text195"
           style="font-size:12.5px;text-anchor:end;fill:#000000;font-family:Helvetica">0.9</text>
      </g>
    </g>
    <g
       transform="translate(187.621,49.948)"
       id="g197">
      <g
         id="g199">
        <text
           x="0"
           y="0"
           font-size="10pt"
           id="text201"
           style="font-size:12.5px;text-anchor:end;fill:#000000;font-family:Helvetica">1</text>
      </g>
    </g>
    <polyline
       points="192.804,283.020 192.804,280.428 "
       id="polyline203"
       style="fill:none;stroke:#000000;stroke-width:0.5pt;stroke-dasharray:none" />
    <polyline
       points="192.804,283.020 192.804,280.428 "
       id="polyline205"
       style="fill:none;stroke:#000000;stroke-width:0.5pt;stroke-dasharray:none" />
    <polyline
       points="192.804,283.020 192.804,280.428 "
       id="polyline207"
       style="fill:none;stroke:#000000;stroke-width:0.5pt;stroke-dasharray:none" />
    <polyline
       points="192.804,283.020 192.804,283.020 "
       id="polyline209"
       style="fill:none;stroke:#000000;stroke-width:0.5pt;stroke-dasharray:none" />
  </g>
  <polygon
     points="834.42,23.85 575.25,23.85 575.25,283.02 834.42,283.02 "
     id="polygon215"
     style="fill:#ffffff;fill-opacity:1;stroke:none"
     transform="translate(-156.236,-23.84375)" />
  <polygon
     points="834.42,23.85 575.25,23.85 575.25,23.85 834.42,23.85 "
     id="polygon217"
     style="fill:#ffffff;fill-opacity:1;stroke:none"
     transform="translate(-156.236,-23.84375)" />
  <polygon
     points="575.25,23.85 575.25,23.85 575.25,283.02 575.25,283.02 "
     id="polygon219"
     style="fill:#ffffff;fill-opacity:1;stroke:none"
     transform="translate(-156.236,-23.84375)" />
  <g
     clip-path="url(#ID000015)"
     id="ID000016"
     transform="translate(-156.236,-23.84375)">
    <polyline
       style="fill:none;stroke:#8e8ecc;stroke-width:2pt;stroke-dasharray:none"
       id="polyline224"
       points="575.250,45.448 575.941,48.008 576.632,50.475 577.323,52.822 578.014,55.052 578.706,57.170 579.397,59.179 580.088,61.085 580.779,62.890 581.470,64.599 582.161,66.215 582.852,67.742 583.543,69.183 584.235,70.541 584.926,71.820 585.617,73.022 586.308,74.151 586.999,75.210 587.690,76.200 588.381,77.126 589.072,77.989 589.764,78.792 590.455,79.537 591.146,80.227 591.837,80.864 592.528,81.450 593.219,81.987 593.910,82.478 594.601,82.924 595.292,83.326 595.984,83.688 596.675,84.011 597.366,84.295 598.057,84.544 598.748,84.758 599.439,84.940 600.130,85.090 600.821,85.210 601.513,85.301 602.204,85.365 602.895,85.403 603.586,85.416 604.277,85.405 604.968,85.372 605.659,85.318 606.350,85.243 607.042,85.149 607.733,85.036 608.424,84.906 609.115,84.760 609.806,84.598 610.497,84.421 611.188,84.230 611.879,84.026 612.570,83.810 613.262,83.581 613.953,83.342 614.644,83.092 615.335,82.833 616.026,82.564 616.717,82.287 617.408,82.002 618.099,81.710 618.791,81.411 619.482,81.105 620.173,80.793 620.864,80.476 621.555,80.154 622.246,79.827 622.937,79.497 623.628,79.162 624.320,78.824 625.011,78.483 625.702,78.139 626.393,77.793 627.084,77.445 627.775,77.095 628.466,76.743 629.157,76.391 629.848,76.037 630.540,75.683 631.231,75.328 631.922,74.973 632.613,74.618 633.304,74.263 633.995,73.909 634.686,73.555 635.377,73.202 636.069,72.849 636.760,72.498 637.451,72.148 638.142,71.800 638.833,71.453 639.524,71.107 640.215,70.764 640.906,70.422 641.598,70.082 642.289,69.744 642.980,69.409 643.671,69.075 644.362,68.744 645.053,68.416 645.744,68.090 646.435,67.766 647.126,67.445 647.818,67.127 648.509,66.812 649.200,66.499 649.891,66.189 650.582,65.882 651.273,65.578 651.964,65.277 652.655,64.979 653.347,64.684 654.038,64.392 654.729,64.103 655.420,63.817 656.111,63.534 656.802,63.254 657.493,62.978 658.184,62.704 658.876,62.434 659.567,62.167 660.258,61.903 660.949,61.642 661.640,61.385 662.331,61.130 663.022,60.879 663.713,60.631 664.404,60.386 665.096,60.144 665.787,59.905 666.478,59.669 667.169,59.436 667.860,59.207 668.551,58.980 669.242,58.757 669.933,58.536 670.625,58.319 671.316,58.104 672.007,57.893 672.698,57.684 673.389,57.479 674.080,57.276 674.771,57.076 675.462,56.879 676.154,56.685 676.845,56.494 677.536,56.306 678.227,56.120 678.918,55.937 679.609,55.757 680.300,55.579 680.991,55.404 681.682,55.232 682.374,55.062 683.065,54.895 683.756,54.731 684.447,54.569 685.138,54.409 685.829,54.252 686.520,54.097 687.211,53.945 687.903,53.795 688.594,53.648 689.285,53.503 689.976,53.360 690.667,53.220 691.358,53.081 692.049,52.945 692.740,52.811 693.432,52.680 694.123,52.550 694.814,52.423 695.505,52.297 696.196,52.174 696.887,52.053 697.578,51.934 698.269,51.816 698.960,51.701 699.652,51.587 700.343,51.476 701.034,51.366 701.725,51.258 702.416,51.152 703.107,51.048 703.798,50.946 704.489,50.845 705.181,50.746 705.872,50.648 706.563,50.553 707.254,50.459 707.945,50.366 708.636,50.275 709.327,50.186 710.018,50.098 710.710,50.012 711.401,49.928 712.092,49.844 712.783,49.762 713.474,49.682 714.165,49.603 714.856,49.526 715.547,49.449 716.238,49.375 716.930,49.301 717.621,49.229 718.312,49.158 719.003,49.088 719.694,49.020 720.385,48.952 721.076,48.886 721.767,48.821 722.459,48.758 723.150,48.695 723.841,48.634 724.532,48.573 725.223,48.514 725.914,48.456 726.605,48.399 727.296,48.343 727.988,48.288 728.679,48.234 729.370,48.180 730.061,48.128 730.752,48.077 731.443,48.027 732.134,47.978 732.825,47.929 733.516,47.882 734.208,47.835 734.899,47.789 735.590,47.744 736.281,47.700 736.972,47.657 737.663,47.614 738.354,47.573 739.045,47.532 739.737,47.491 740.428,47.452 741.119,47.413 741.810,47.375 742.501,47.338 743.192,47.301 743.883,47.265 744.574,47.230 745.266,47.196 745.957,47.162 746.648,47.128 747.339,47.096 748.030,47.064 748.721,47.032 749.412,47.001 750.103,46.971 750.794,46.941 751.486,46.912 752.177,46.884 752.868,46.856 753.559,46.828 754.250,46.801 754.941,46.775 755.632,46.749 756.323,46.723 757.015,46.698 757.706,46.674 758.397,46.649 759.088,46.626 759.779,46.603 760.470,46.580 761.161,46.558 761.852,46.536 762.544,46.514 763.235,46.493 763.926,46.473 764.617,46.453 765.308,46.433 765.999,46.413 766.690,46.394 767.381,46.376 768.072,46.357 768.764,46.339 769.455,46.322 770.146,46.304 770.837,46.287 771.528,46.271 772.219,46.254 772.910,46.238 773.601,46.223 774.293,46.207 774.984,46.192 775.675,46.177 776.366,46.163 777.057,46.149 777.748,46.135 778.439,46.121 779.130,46.108 779.822,46.094 780.513,46.082 781.204,46.069 781.895,46.057 782.586,46.044 783.277,46.032 783.968,46.021 784.659,46.009 785.350,45.998 786.042,45.987 786.733,45.976 787.424,45.966 788.115,45.955 788.806,45.945 789.497,45.935 790.188,45.925 790.879,45.916 791.571,45.906 792.262,45.897 792.953,45.888 793.644,45.879 794.335,45.871 795.026,45.862 795.717,45.854 796.408,45.846 797.100,45.838 797.791,45.830 798.482,45.822 799.173,45.815 799.864,45.807 800.555,45.800 801.246,45.793 801.937,45.786 802.628,45.779 803.320,45.772 804.011,45.766 804.702,45.759 805.393,45.753 806.084,45.747 806.775,45.741 807.466,45.735 808.157,45.729 808.849,45.724 809.540,45.718 810.231,45.712 810.922,45.707 811.613,45.702 812.304,45.697 812.995,45.692 813.686,45.687 814.378,45.682 815.069,45.677 815.760,45.672 816.451,45.668 817.142,45.663 817.833,45.659 818.524,45.655 819.215,45.651 819.906,45.646 820.598,45.642 821.289,45.638 821.980,45.635 822.671,45.631 823.362,45.627 824.053,45.623 824.744,45.620 825.435,45.616 826.127,45.613 826.818,45.610 827.509,45.606 828.200,45.603 828.891,45.600 829.582,45.597 830.273,45.594 830.964,45.591 831.656,45.588 832.347,45.585 833.038,45.582 833.729,45.579 834.420,45.577 " />
    <g
       id="g226" />
  </g>
  <g
     id="ID000017"
     transform="translate(-156.236,-23.84375)">
    <g
       id="g229"
       transform="translate(704.335,318.037)">
      <g
         id="g231">
        <text
           style="font-size:12.5px;text-anchor:middle;fill:#000000;font-family:Helvetica"
           id="text233"
           font-size="10pt"
           y="0"
           x="0">time (s)</text>
      </g>
    </g>
  </g>
  <g
     id="ID000018"
     transform="translate(-156.236,-23.84375)">
    <g
       id="g236"
       transform="translate(539.728,154.436)">
      <g
         id="g238"
         transform="matrix(0,-1,1,0,0,0)">
        <text
           style="font-size:12.5px;text-anchor:middle;fill:#000000;font-family:Helvetica"
           id="text240"
           font-size="10pt"
           y="0"
           x="0">
          <tspan
             id="tspan242">\dot</tspan>
          <tspan
             id="tspan244">y</tspan>
          <tspan
             id="tspan246" />
        </text>
      </g>
    </g>
  </g>
  <g
     clip-path="url(#ID000015)"
     id="ID000021"
     transform="translate(-156.236,-23.84375)">
    <polyline
       style="fill:none;stroke:#8ecccc;stroke-width:2pt;stroke-dasharray:8, 2"
       id="polyline275"
       points="575.250,261.422 575.941,256.239 576.632,251.180 577.323,246.243 578.014,241.423 578.706,236.720 579.397,232.129 580.088,227.649 580.779,223.276 581.470,219.008 582.161,214.843 582.852,210.777 583.543,206.810 584.235,202.937 584.926,199.157 585.617,195.468 586.308,191.868 586.999,188.353 587.690,184.924 588.381,181.576 589.072,178.309 589.764,175.121 590.455,172.008 591.146,168.971 591.837,166.006 592.528,163.113 593.219,160.289 593.910,157.533 594.601,154.843 595.292,152.217 595.984,149.655 596.675,147.154 597.366,144.713 598.057,142.330 598.748,140.005 599.439,137.736 600.130,135.521 600.821,133.359 601.513,131.249 602.204,129.190 602.895,127.180 603.586,125.219 604.277,123.304 604.968,121.436 605.659,119.612 606.350,117.832 607.042,116.095 607.733,114.399 608.424,112.744 609.115,111.129 609.806,109.553 610.497,108.014 611.188,106.513 611.879,105.047 612.570,103.617 613.262,102.221 613.953,100.858 614.644,99.528 615.335,98.230 616.026,96.964 616.717,95.727 617.408,94.520 618.099,93.343 618.791,92.193 619.482,91.071 620.173,89.976 620.864,88.908 621.555,87.865 622.246,86.847 622.937,85.853 623.628,84.883 624.320,83.937 625.011,83.013 625.702,82.112 626.393,81.232 627.084,80.373 627.775,79.535 628.466,78.716 629.157,77.918 629.848,77.139 630.540,76.378 631.231,75.636 631.922,74.911 632.613,74.204 633.304,73.514 633.995,72.840 634.686,72.183 635.377,71.541 636.069,70.915 636.760,70.304 637.451,69.707 638.142,69.125 638.833,68.557 639.524,68.002 640.215,67.461 640.906,66.933 641.598,66.417 642.289,65.914 642.980,65.422 643.671,64.943 644.362,64.475 645.053,64.018 645.744,63.573 646.435,63.138 647.126,62.713 647.818,62.299 648.509,61.894 649.200,61.500 649.891,61.114 650.582,60.738 651.273,60.371 651.964,60.013 652.655,59.664 653.347,59.322 654.038,58.989 654.729,58.664 655.420,58.347 656.111,58.038 656.802,57.736 657.493,57.441 658.184,57.153 658.876,56.872 659.567,56.598 660.258,56.330 660.949,56.069 661.640,55.814 662.331,55.565 663.022,55.322 663.713,55.085 664.404,54.854 665.096,54.628 665.787,54.408 666.478,54.193 667.169,53.983 667.860,53.778 668.551,53.578 669.242,53.383 669.933,53.193 670.625,53.007 671.316,52.825 672.007,52.648 672.698,52.475 673.389,52.307 674.080,52.142 674.771,51.981 675.462,51.825 676.154,51.672 676.845,51.522 677.536,51.376 678.227,51.234 678.918,51.095 679.609,50.960 680.300,50.827 680.991,50.698 681.682,50.572 682.374,50.449 683.065,50.329 683.756,50.212 684.447,50.098 685.138,49.986 685.829,49.877 686.520,49.771 687.211,49.667 687.903,49.566 688.594,49.467 689.285,49.371 689.976,49.276 690.667,49.184 691.358,49.095 692.049,49.007 692.740,48.922 693.432,48.838 694.123,48.757 694.814,48.678 695.505,48.600 696.196,48.524 696.887,48.451 697.578,48.379 698.269,48.308 698.960,48.240 699.652,48.173 700.343,48.107 701.034,48.043 701.725,47.981 702.416,47.920 703.107,47.861 703.798,47.803 704.489,47.746 705.181,47.691 705.872,47.637 706.563,47.585 707.254,47.534 707.945,47.483 708.636,47.435 709.327,47.387 710.018,47.340 710.710,47.295 711.401,47.251 712.092,47.207 712.783,47.165 713.474,47.124 714.165,47.084 714.856,47.044 715.547,47.006 716.238,46.969 716.930,46.932 717.621,46.896 718.312,46.862 719.003,46.828 719.694,46.795 720.385,46.762 721.076,46.731 721.767,46.700 722.459,46.670 723.150,46.641 723.841,46.612 724.532,46.584 725.223,46.557 725.914,46.530 726.605,46.504 727.296,46.479 727.988,46.454 728.679,46.430 729.370,46.406 730.061,46.383 730.752,46.361 731.443,46.339 732.134,46.317 732.825,46.297 733.516,46.276 734.208,46.256 734.899,46.237 735.590,46.218 736.281,46.199 736.972,46.181 737.663,46.164 738.354,46.147 739.045,46.130 739.737,46.113 740.428,46.097 741.119,46.082 741.810,46.067 742.501,46.052 743.192,46.037 743.883,46.023 744.574,46.009 745.266,45.996 745.957,45.983 746.648,45.970 747.339,45.957 748.030,45.945 748.721,45.933 749.412,45.921 750.103,45.910 750.794,45.899 751.486,45.888 752.177,45.878 752.868,45.867 753.559,45.857 754.250,45.847 754.941,45.838 755.632,45.828 756.323,45.819 757.015,45.810 757.706,45.802 758.397,45.793 759.088,45.785 759.779,45.777 760.470,45.769 761.161,45.761 761.852,45.754 762.544,45.746 763.235,45.739 763.926,45.732 764.617,45.725 765.308,45.719 765.999,45.712 766.690,45.706 767.381,45.700 768.072,45.693 768.764,45.688 769.455,45.682 770.146,45.676 770.837,45.671 771.528,45.665 772.219,45.660 772.910,45.655 773.601,45.650 774.293,45.645 774.984,45.640 775.675,45.636 776.366,45.631 777.057,45.627 777.748,45.623 778.439,45.618 779.130,45.614 779.822,45.610 780.513,45.606 781.204,45.603 781.895,45.599 782.586,45.595 783.277,45.592 783.968,45.588 784.659,45.585 785.350,45.582 786.042,45.578 786.733,45.575 787.424,45.572 788.115,45.569 788.806,45.566 789.497,45.563 790.188,45.561 790.879,45.558 791.571,45.555 792.262,45.553 792.953,45.550 793.644,45.548 794.335,45.545 795.026,45.543 795.717,45.541 796.408,45.538 797.100,45.536 797.791,45.534 798.482,45.532 799.173,45.530 799.864,45.528 800.555,45.526 801.246,45.524 801.937,45.522 802.628,45.521 803.320,45.519 804.011,45.517 804.702,45.515 805.393,45.514 806.084,45.512 806.775,45.511 807.466,45.509 808.157,45.508 808.849,45.506 809.540,45.505 810.231,45.503 810.922,45.502 811.613,45.501 812.304,45.499 812.995,45.498 813.686,45.497 814.378,45.496 815.069,45.495 815.760,45.494 816.451,45.492 817.142,45.491 817.833,45.490 818.524,45.489 819.215,45.488 819.906,45.487 820.598,45.486 821.289,45.485 821.980,45.484 822.671,45.484 823.362,45.483 824.053,45.482 824.744,45.481 825.435,45.480 826.127,45.479 826.818,45.479 827.509,45.478 828.200,45.477 828.891,45.477 829.582,45.476 830.273,45.475 830.964,45.474 831.656,45.474 832.347,45.473 833.038,45.473 833.729,45.472 834.420,45.471 " />
    <g
       id="g277" />
  </g>
  <g
     clip-path="url(#ID000015)"
     id="ID000024"
     transform="translate(-156.236,-23.84375)">
    <polyline
       style="fill:none;stroke:#cccc8e;stroke-width:2pt;stroke-dasharray:none"
       id="polyline306"
       points="575.250,45.448 575.941,45.534 576.632,45.784 577.323,46.180 578.014,46.706 578.706,47.347 579.397,48.089 580.088,48.919 580.779,49.824 581.470,50.795 582.161,51.820 582.852,52.891 583.543,53.999 584.235,55.135 584.926,56.293 585.617,57.466 586.308,58.647 586.999,59.832 587.690,61.016 588.381,62.193 589.072,63.360 589.764,64.513 590.455,65.649 591.146,66.765 591.837,67.858 592.528,68.925 593.219,69.965 593.910,70.977 594.601,71.957 595.292,72.906 595.984,73.822 596.675,74.704 597.366,75.551 598.057,76.363 598.748,77.139 599.439,77.880 600.130,78.584 600.821,79.252 601.513,79.885 602.204,80.481 602.895,81.041 603.586,81.566 604.277,82.057 604.968,82.512 605.659,82.934 606.350,83.322 607.042,83.677 607.733,84.000 608.424,84.291 609.115,84.552 609.806,84.783 610.497,84.984 611.188,85.156 611.879,85.301 612.570,85.419 613.262,85.510 613.953,85.576 614.644,85.618 615.335,85.635 616.026,85.630 616.717,85.603 617.408,85.554 618.099,85.484 618.791,85.395 619.482,85.287 620.173,85.161 620.864,85.017 621.555,84.857 622.246,84.681 622.937,84.489 623.628,84.283 624.320,84.063 625.011,83.831 625.702,83.585 626.393,83.328 627.084,83.060 627.775,82.781 628.466,82.492 629.157,82.194 629.848,81.887 630.540,81.572 631.231,81.249 631.922,80.919 632.613,80.583 633.304,80.240 633.995,79.892 634.686,79.538 635.377,79.180 636.069,78.817 636.760,78.451 637.451,78.081 638.142,77.707 638.833,77.332 639.524,76.953 640.215,76.573 640.906,76.191 641.598,75.808 642.289,75.423 642.980,75.038 643.671,74.652 644.362,74.266 645.053,73.880 645.744,73.495 646.435,73.109 647.126,72.725 647.818,72.341 648.509,71.959 649.200,71.578 649.891,71.199 650.582,70.821 651.273,70.445 651.964,70.071 652.655,69.699 653.347,69.330 654.038,68.963 654.729,68.598 655.420,68.236 656.111,67.877 656.802,67.521 657.493,67.168 658.184,66.818 658.876,66.471 659.567,66.127 660.258,65.787 660.949,65.450 661.640,65.116 662.331,64.786 663.022,64.459 663.713,64.136 664.404,63.817 665.096,63.501 665.787,63.189 666.478,62.881 667.169,62.576 667.860,62.275 668.551,61.978 669.242,61.685 669.933,61.395 670.625,61.110 671.316,60.828 672.007,60.550 672.698,60.275 673.389,60.005 674.080,59.738 674.771,59.475 675.462,59.216 676.154,58.961 676.845,58.709 677.536,58.461 678.227,58.217 678.918,57.977 679.609,57.740 680.300,57.507 680.991,57.277 681.682,57.051 682.374,56.829 683.065,56.610 683.756,56.394 684.447,56.183 685.138,55.974 685.829,55.769 686.520,55.568 687.211,55.369 687.903,55.175 688.594,54.983 689.285,54.795 689.976,54.609 690.667,54.427 691.358,54.249 692.049,54.073 692.740,53.900 693.432,53.731 694.123,53.564 694.814,53.400 695.505,53.240 696.196,53.082 696.887,52.927 697.578,52.774 698.269,52.625 698.960,52.478 699.652,52.334 700.343,52.193 701.034,52.054 701.725,51.918 702.416,51.784 703.107,51.653 703.798,51.524 704.489,51.398 705.181,51.274 705.872,51.153 706.563,51.034 707.254,50.917 707.945,50.802 708.636,50.690 709.327,50.579 710.018,50.471 710.710,50.365 711.401,50.261 712.092,50.159 712.783,50.059 713.474,49.961 714.165,49.865 714.856,49.771 715.547,49.679 716.238,49.588 716.930,49.500 717.621,49.413 718.312,49.328 719.003,49.244 719.694,49.163 720.385,49.083 721.076,49.004 721.767,48.927 722.459,48.852 723.150,48.778 723.841,48.706 724.532,48.635 725.223,48.566 725.914,48.498 726.605,48.432 727.296,48.366 727.988,48.303 728.679,48.240 729.370,48.179 730.061,48.119 730.752,48.061 731.443,48.003 732.134,47.947 732.825,47.892 733.516,47.838 734.208,47.785 734.899,47.734 735.590,47.683 736.281,47.634 736.972,47.585 737.663,47.538 738.354,47.492 739.045,47.446 739.737,47.402 740.428,47.358 741.119,47.316 741.810,47.274 742.501,47.233 743.192,47.194 743.883,47.155 744.574,47.116 745.266,47.079 745.957,47.043 746.648,47.007 747.339,46.972 748.030,46.938 748.721,46.904 749.412,46.871 750.103,46.839 750.794,46.808 751.486,46.777 752.177,46.747 752.868,46.718 753.559,46.689 754.250,46.661 754.941,46.634 755.632,46.607 756.323,46.581 757.015,46.555 757.706,46.530 758.397,46.505 759.088,46.481 759.779,46.458 760.470,46.435 761.161,46.412 761.852,46.391 762.544,46.369 763.235,46.348 763.926,46.328 764.617,46.307 765.308,46.288 765.999,46.269 766.690,46.250 767.381,46.232 768.072,46.214 768.764,46.196 769.455,46.179 770.146,46.162 770.837,46.146 771.528,46.130 772.219,46.114 772.910,46.099 773.601,46.084 774.293,46.069 774.984,46.055 775.675,46.041 776.366,46.027 777.057,46.014 777.748,46.001 778.439,45.988 779.130,45.976 779.822,45.964 780.513,45.952 781.204,45.940 781.895,45.929 782.586,45.918 783.277,45.907 783.968,45.896 784.659,45.886 785.350,45.876 786.042,45.866 786.733,45.856 787.424,45.846 788.115,45.837 788.806,45.828 789.497,45.819 790.188,45.811 790.879,45.802 791.571,45.794 792.262,45.786 792.953,45.778 793.644,45.770 794.335,45.763 795.026,45.756 795.717,45.748 796.408,45.741 797.100,45.735 797.791,45.728 798.482,45.721 799.173,45.715 799.864,45.709 800.555,45.703 801.246,45.697 801.937,45.691 802.628,45.685 803.320,45.680 804.011,45.674 804.702,45.669 805.393,45.664 806.084,45.659 806.775,45.654 807.466,45.649 808.157,45.644 808.849,45.640 809.540,45.635 810.231,45.631 810.922,45.626 811.613,45.622 812.304,45.618 812.995,45.614 813.686,45.610 814.378,45.606 815.069,45.603 815.760,45.599 816.451,45.596 817.142,45.592 817.833,45.589 818.524,45.585 819.215,45.582 819.906,45.579 820.598,45.576 821.289,45.573 821.980,45.570 822.671,45.567 823.362,45.564 824.053,45.561 824.744,45.559 825.435,45.556 826.127,45.554 826.818,45.551 827.509,45.549 828.200,45.546 828.891,45.544 829.582,45.542 830.273,45.539 830.964,45.537 831.656,45.535 832.347,45.533 833.038,45.531 833.729,45.529 834.420,45.527 " />
    <g
       id="g308" />
  </g>
  <g
     id="ID000027"
     transform="translate(-156.236,-23.84375)" />
  <g
     id="ID000028"
     transform="translate(-156.236,-23.84375)" />
  <g
     id="ID000029"
     transform="translate(-156.236,-23.84375)" />
  <g
     id="g339"
     transform="translate(-156.236,-23.84375)">
    <polyline
       points="575.250,283.020 575.250,280.113 "
       id="polyline341"
       style="fill:none;stroke:#000000;stroke-width:0.5pt;stroke-dasharray:none" />
    <polyline
       points="661.640,283.020 661.640,280.113 "
       id="polyline343"
       style="fill:none;stroke:#000000;stroke-width:0.5pt;stroke-dasharray:none" />
    <polyline
       points="748.030,283.020 748.030,280.113 "
       id="polyline345"
       style="fill:none;stroke:#000000;stroke-width:0.5pt;stroke-dasharray:none" />
    <polyline
       points="834.420,283.020 834.420,280.113 "
       id="polyline347"
       style="fill:none;stroke:#000000;stroke-width:0.5pt;stroke-dasharray:none" />
    <polyline
       points="575.250,283.020 834.420,283.020 "
       id="polyline349"
       style="fill:none;stroke:#000000;stroke-width:0.5pt;stroke-dasharray:none" />
    <g
       transform="translate(575.25,300.003)"
       id="g351">
      <g
         id="g353">
        <text
           x="0"
           y="0"
           font-size="10pt"
           id="text355"
           style="font-size:12.5px;text-anchor:middle;fill:#000000;font-family:Helvetica">0</text>
      </g>
    </g>
    <g
       transform="translate(661.64,300.003)"
       id="g357">
      <g
         id="g359">
        <text
           x="0"
           y="0"
           font-size="10pt"
           id="text361"
           style="font-size:12.5px;text-anchor:middle;fill:#000000;font-family:Helvetica">0.5</text>
      </g>
    </g>
    <g
       transform="translate(748.03,300.003)"
       id="g363">
      <g
         id="g365">
        <text
           x="0"
           y="0"
           font-size="10pt"
           id="text367"
           style="font-size:12.5px;text-anchor:middle;fill:#000000;font-family:Helvetica">1</text>
      </g>
    </g>
    <g
       transform="translate(834.42,300.003)"
       id="g369">
      <g
         id="g371">
        <text
           x="0"
           y="0"
           font-size="10pt"
           id="text373"
           style="font-size:12.5px;text-anchor:middle;fill:#000000;font-family:Helvetica">1.5</text>
      </g>
    </g>
    <polyline
       points="575.250,261.423 577.842,261.423 "
       id="polyline375"
       style="fill:none;stroke:#000000;stroke-width:0.5pt;stroke-dasharray:none" />
    <polyline
       points="575.250,225.427 577.842,225.427 "
       id="polyline377"
       style="fill:none;stroke:#000000;stroke-width:0.5pt;stroke-dasharray:none" />
    <polyline
       points="575.250,189.431 577.842,189.431 "
       id="polyline379"
       style="fill:none;stroke:#000000;stroke-width:0.5pt;stroke-dasharray:none" />
    <polyline
       points="575.250,153.435 577.842,153.435 "
       id="polyline381"
       style="fill:none;stroke:#000000;stroke-width:0.5pt;stroke-dasharray:none" />
    <polyline
       points="575.250,117.439 577.842,117.439 "
       id="polyline383"
       style="fill:none;stroke:#000000;stroke-width:0.5pt;stroke-dasharray:none" />
    <polyline
       points="575.250,81.443 577.842,81.443 "
       id="polyline385"
       style="fill:none;stroke:#000000;stroke-width:0.5pt;stroke-dasharray:none" />
    <polyline
       points="575.250,45.447 577.842,45.447 "
       id="polyline387"
       style="fill:none;stroke:#000000;stroke-width:0.5pt;stroke-dasharray:none" />
    <polyline
       points="575.250,283.020 575.250,23.850 "
       id="polyline389"
       style="fill:none;stroke:#000000;stroke-width:0.5pt;stroke-dasharray:none" />
    <g
       transform="translate(570.067,265.923)"
       id="g391">
      <g
         id="g393">
        <text
           x="0"
           y="0"
           font-size="10pt"
           id="text395"
           style="font-size:12.5px;text-anchor:end;fill:#000000;font-family:Helvetica">-3</text>
      </g>
    </g>
    <g
       transform="translate(570.067,229.927)"
       id="g397">
      <g
         id="g399">
        <text
           x="0"
           y="0"
           font-size="10pt"
           id="text401"
           style="font-size:12.5px;text-anchor:end;fill:#000000;font-family:Helvetica">-2.5</text>
      </g>
    </g>
    <g
       transform="translate(570.067,193.931)"
       id="g403">
      <g
         id="g405">
        <text
           x="0"
           y="0"
           font-size="10pt"
           id="text407"
           style="font-size:12.5px;text-anchor:end;fill:#000000;font-family:Helvetica">-2</text>
      </g>
    </g>
    <g
       transform="translate(570.067,157.935)"
       id="g409">
      <g
         id="g411">
        <text
           x="0"
           y="0"
           font-size="10pt"
           id="text413"
           style="font-size:12.5px;text-anchor:end;fill:#000000;font-family:Helvetica">-1.5</text>
      </g>
    </g>
    <g
       transform="translate(570.067,121.939)"
       id="g415">
      <g
         id="g417">
        <text
           x="0"
           y="0"
           font-size="10pt"
           id="text419"
           style="font-size:12.5px;text-anchor:end;fill:#000000;font-family:Helvetica">-1</text>
      </g>
    </g>
    <g
       transform="translate(570.067,85.943)"
       id="g421">
      <g
         id="g423">
        <text
           x="0"
           y="0"
           font-size="10pt"
           id="text425"
           style="font-size:12.5px;text-anchor:end;fill:#000000;font-family:Helvetica">-0.5</text>
      </g>
    </g>
    <g
       transform="translate(570.067,49.947)"
       id="g427">
      <g
         id="g429">
        <text
           x="0"
           y="0"
           font-size="10pt"
           id="text431"
           style="font-size:12.5px;text-anchor:end;fill:#000000;font-family:Helvetica">0</text>
      </g>
    </g>
    <polyline
       points="575.250,283.020 575.250,280.428 "
       id="polyline433"
       style="fill:none;stroke:#000000;stroke-width:0.5pt;stroke-dasharray:none" />
    <polyline
       points="575.250,283.020 575.250,280.428 "
       id="polyline435"
       style="fill:none;stroke:#000000;stroke-width:0.5pt;stroke-dasharray:none" />
    <polyline
       points="575.250,283.020 575.250,280.428 "
       id="polyline437"
       style="fill:none;stroke:#000000;stroke-width:0.5pt;stroke-dasharray:none" />
    <polyline
       points="575.250,283.020 575.250,283.020 "
       id="polyline439"
       style="fill:none;stroke:#000000;stroke-width:0.5pt;stroke-dasharray:none" />
  </g>
  <polygon
     points="1216.866,23.85 957.696,23.85 957.696,283.02 1216.866,283.02 "
     id="polygon445"
     style="fill:#ffffff;fill-opacity:1;stroke:none"
     transform="translate(-156.236,-23.84375)" />
  <polygon
     points="1216.866,23.85 957.696,23.85 957.696,23.85 1216.866,23.85 "
     id="polygon447"
     style="fill:#ffffff;fill-opacity:1;stroke:none"
     transform="translate(-156.236,-23.84375)" />
  <polygon
     points="957.696,23.85 957.696,23.85 957.696,283.02 957.696,283.02 "
     id="polygon449"
     style="fill:#ffffff;fill-opacity:1;stroke:none"
     transform="translate(-156.236,-23.84375)" />
  <g
     clip-path="url(#ID000031)"
     id="ID000032"
     transform="translate(-156.236,-23.84375)">
    <polyline
       style="fill:none;stroke:#8e8ecc;stroke-width:2pt;stroke-dasharray:none"
       id="polyline454"
       points="957.696,261.422 958.387,256.884 959.078,247.946 959.769,239.334 960.460,231.040 961.151,223.051 961.842,215.359 962.533,207.953 963.225,200.824 963.916,193.963 964.607,187.361 965.298,181.009 965.989,174.899 966.680,169.023 967.371,163.373 968.062,157.942 968.754,152.722 969.445,147.706 970.136,142.888 970.827,138.260 971.518,133.816 972.209,129.550 972.900,125.456 973.591,121.528 974.283,117.760 974.974,114.147 975.665,110.683 976.356,107.364 977.047,104.184 977.738,101.138 978.429,98.223 979.120,95.432 979.811,92.763 980.503,90.210 981.194,87.769 981.885,85.437 982.576,83.210 983.267,81.084 983.958,79.055 984.649,77.120 985.340,75.276 986.032,73.518 986.723,71.845 987.414,70.253 988.105,68.739 988.796,67.299 989.487,65.933 990.178,64.636 990.869,63.406 991.561,62.241 992.252,61.138 992.943,60.095 993.634,59.110 994.325,58.180 995.016,57.303 995.707,56.477 996.398,55.701 997.089,54.972 997.781,54.289 998.472,53.650 999.163,53.052 999.854,52.495 1000.545,51.976 1001.236,51.495 1001.927,51.049 1002.618,50.638 1003.310,50.259 1004.001,49.912 1004.692,49.595 1005.383,49.307 1006.074,49.047 1006.765,48.813 1007.456,48.605 1008.147,48.421 1008.839,48.260 1009.530,48.121 1010.221,48.003 1010.912,47.906 1011.603,47.828 1012.294,47.769 1012.985,47.727 1013.676,47.702 1014.367,47.693 1015.059,47.700 1015.750,47.721 1016.441,47.755 1017.132,47.803 1017.823,47.863 1018.514,47.935 1019.205,48.019 1019.896,48.113 1020.588,48.217 1021.279,48.331 1021.970,48.454 1022.661,48.585 1023.352,48.724 1024.043,48.871 1024.734,49.025 1025.425,49.186 1026.117,49.353 1026.808,49.525 1027.499,49.704 1028.190,49.887 1028.881,50.076 1029.572,50.268 1030.263,50.465 1030.954,50.666 1031.645,50.870 1032.337,51.077 1033.028,51.288 1033.719,51.501 1034.410,51.716 1035.101,51.934 1035.792,52.154 1036.483,52.375 1037.174,52.598 1037.866,52.823 1038.557,53.048 1039.248,53.275 1039.939,53.502 1040.630,53.730 1041.321,53.958 1042.012,54.186 1042.703,54.415 1043.395,54.644 1044.086,54.873 1044.777,55.101 1045.468,55.329 1046.159,55.557 1046.850,55.783 1047.541,56.010 1048.232,56.235 1048.923,56.460 1049.615,56.684 1050.306,56.906 1050.997,57.128 1051.688,57.348 1052.379,57.567 1053.070,57.785 1053.761,58.001 1054.452,58.216 1055.144,58.429 1055.835,58.641 1056.526,58.851 1057.217,59.059 1057.908,59.266 1058.599,59.471 1059.290,59.675 1059.981,59.876 1060.673,60.076 1061.364,60.274 1062.055,60.470 1062.746,60.664 1063.437,60.856 1064.128,61.046 1064.819,61.234 1065.510,61.420 1066.201,61.605 1066.893,61.787 1067.584,61.967 1068.275,62.145 1068.966,62.322 1069.657,62.496 1070.348,62.668 1071.039,62.838 1071.730,63.006 1072.422,63.172 1073.113,63.336 1073.804,63.498 1074.495,63.658 1075.186,63.816 1075.877,63.972 1076.568,64.126 1077.259,64.278 1077.951,64.428 1078.642,64.576 1079.333,64.722 1080.024,64.866 1080.715,65.008 1081.406,65.149 1082.097,65.287 1082.788,65.423 1083.479,65.557 1084.171,65.690 1084.862,65.821 1085.553,65.949 1086.244,66.076 1086.935,66.201 1087.626,66.325 1088.317,66.446 1089.008,66.566 1089.700,66.684 1090.391,66.800 1091.082,66.915 1091.773,67.027 1092.464,67.138 1093.155,67.248 1093.846,67.356 1094.537,67.462 1095.229,67.566 1095.920,67.669 1096.611,67.770 1097.302,67.870 1097.993,67.968 1098.684,68.064 1099.375,68.159 1100.066,68.253 1100.757,68.345 1101.449,68.436 1102.140,68.525 1102.831,68.612 1103.522,68.699 1104.213,68.784 1104.904,68.867 1105.595,68.949 1106.286,69.030 1106.978,69.110 1107.669,69.188 1108.360,69.265 1109.051,69.340 1109.742,69.415 1110.433,69.488 1111.124,69.560 1111.815,69.630 1112.507,69.700 1113.198,69.768 1113.889,69.835 1114.580,69.902 1115.271,69.967 1115.962,70.030 1116.653,70.093 1117.344,70.155 1118.035,70.215 1118.727,70.275 1119.418,70.334 1120.109,70.391 1120.800,70.448 1121.491,70.503 1122.182,70.558 1122.873,70.612 1123.564,70.664 1124.256,70.716 1124.947,70.767 1125.638,70.817 1126.329,70.866 1127.020,70.914 1127.711,70.962 1128.402,71.008 1129.093,71.054 1129.785,71.099 1130.476,71.143 1131.167,71.187 1131.858,71.229 1132.549,71.271 1133.240,71.312 1133.931,71.352 1134.622,71.392 1135.313,71.431 1136.005,71.469 1136.696,71.507 1137.387,71.543 1138.078,71.580 1138.769,71.615 1139.460,71.650 1140.151,71.684 1140.842,71.718 1141.534,71.751 1142.225,71.783 1142.916,71.815 1143.607,71.846 1144.298,71.877 1144.989,71.907 1145.680,71.936 1146.371,71.965 1147.063,71.994 1147.754,72.022 1148.445,72.049 1149.136,72.076 1149.827,72.102 1150.518,72.128 1151.209,72.154 1151.900,72.179 1152.591,72.203 1153.283,72.227 1153.974,72.251 1154.665,72.274 1155.356,72.297 1156.047,72.319 1156.738,72.341 1157.429,72.362 1158.120,72.383 1158.812,72.404 1159.503,72.424 1160.194,72.444 1160.885,72.464 1161.576,72.483 1162.267,72.502 1162.958,72.520 1163.649,72.538 1164.341,72.556 1165.032,72.573 1165.723,72.591 1166.414,72.607 1167.105,72.624 1167.796,72.640 1168.487,72.656 1169.178,72.671 1169.869,72.686 1170.561,72.701 1171.252,72.716 1171.943,72.730 1172.634,72.744 1173.325,72.758 1174.016,72.772 1174.707,72.785 1175.398,72.798 1176.090,72.811 1176.781,72.823 1177.472,72.836 1178.163,72.848 1178.854,72.860 1179.545,72.871 1180.236,72.883 1180.927,72.894 1181.619,72.905 1182.310,72.915 1183.001,72.926 1183.692,72.936 1184.383,72.946 1185.074,72.956 1185.765,72.966 1186.456,72.976 1187.147,72.985 1187.839,72.994 1188.530,73.003 1189.221,73.012 1189.912,73.020 1190.603,73.029 1191.294,73.037 1191.985,73.045 1192.676,73.053 1193.368,73.061 1194.059,73.069 1194.750,73.076 1195.441,73.084 1196.132,73.091 1196.823,73.098 1197.514,73.105 1198.205,73.112 1198.897,73.119 1199.588,73.125 1200.279,73.132 1200.970,73.138 1201.661,73.144 1202.352,73.150 1203.043,73.156 1203.734,73.162 1204.425,73.168 1205.117,73.173 1205.808,73.179 1206.499,73.184 1207.190,73.189 1207.881,73.194 1208.572,73.200 1209.263,73.205 1209.954,73.209 1210.646,73.214 1211.337,73.219 1212.028,73.223 1212.719,73.228 1213.410,73.232 1214.101,73.237 1214.792,73.241 1215.483,73.245 1216.175,73.249 1216.866,73.253 " />
    <g
       id="g456" />
  </g>
  <g
     id="ID000033"
     transform="translate(-156.236,-23.84375)">
    <g
       id="g459"
       transform="translate(1086.28,318.037)">
      <g
         id="g461">
        <text
           style="font-size:12.5px;text-anchor:middle;fill:#000000;font-family:Helvetica"
           id="text463"
           font-size="10pt"
           y="0"
           x="0">time (s)</text>
      </g>
    </g>
  </g>
  <g
     id="ID000034"
     transform="translate(-156.236,-23.84375)">
    <g
       id="g466"
       transform="translate(932.681,154.436)">
      <g
         id="g468"
         transform="matrix(0,-1,1,0,0,0)">
        <text
           style="font-size:12.5px;text-anchor:middle;fill:#000000;font-family:Helvetica"
           id="text470"
           font-size="10pt"
           y="0"
           x="0">
          <tspan
             id="tspan472">\ddot</tspan>
          <tspan
             id="tspan474">y</tspan>
          <tspan
             id="tspan476" />
        </text>
      </g>
    </g>
  </g>
  <g
     clip-path="url(#ID000031)"
     id="ID000037"
     transform="translate(-156.236,-23.84375)">
    <polyline
       style="fill:none;stroke:#cccc8e;stroke-width:2pt;stroke-dasharray:none"
       id="polyline505"
       points="957.696,73.446 958.387,85.978 959.078,97.191 959.769,107.181 960.460,116.034 961.151,123.835 961.842,130.662 962.533,136.587 963.225,141.680 963.916,146.004 964.607,149.621 965.298,152.586 965.989,154.952 966.680,156.770 967.371,158.085 968.062,158.940 968.754,159.376 969.445,159.432 970.136,159.141 970.827,158.538 971.518,157.652 972.209,156.512 972.900,155.145 973.591,153.576 974.283,151.827 974.974,149.920 975.665,147.874 976.356,145.708 977.047,143.439 977.738,141.083 978.429,138.654 979.120,136.165 979.811,133.629 980.503,131.056 981.194,128.458 981.885,125.844 982.576,123.223 983.267,120.601 983.958,117.988 984.649,115.389 985.340,112.811 986.032,110.258 986.723,107.735 987.414,105.247 988.105,102.798 988.796,100.392 989.487,98.030 990.178,95.716 990.869,93.453 991.561,91.241 992.252,89.083 992.943,86.981 993.634,84.935 994.325,82.947 995.016,81.016 995.707,79.144 996.398,77.331 997.089,75.577 997.781,73.882 998.472,72.246 999.163,70.668 999.854,69.149 1000.545,67.688 1001.236,66.284 1001.927,64.936 1002.618,63.644 1003.310,62.407 1004.001,61.225 1004.692,60.095 1005.383,59.018 1006.074,57.991 1006.765,57.015 1007.456,56.088 1008.147,55.209 1008.839,54.377 1009.530,53.591 1010.221,52.849 1010.912,52.150 1011.603,51.494 1012.294,50.879 1012.985,50.303 1013.676,49.766 1014.367,49.267 1015.059,48.804 1015.750,48.377 1016.441,47.983 1017.132,47.623 1017.823,47.294 1018.514,46.996 1019.205,46.728 1019.896,46.488 1020.588,46.277 1021.279,46.091 1021.970,45.931 1022.661,45.796 1023.352,45.684 1024.043,45.595 1024.734,45.528 1025.425,45.481 1026.117,45.455 1026.808,45.448 1027.499,45.458 1028.190,45.487 1028.881,45.531 1029.572,45.592 1030.263,45.668 1030.954,45.758 1031.645,45.862 1032.337,45.979 1033.028,46.108 1033.719,46.248 1034.410,46.400 1035.101,46.562 1035.792,46.734 1036.483,46.916 1037.174,47.105 1037.866,47.304 1038.557,47.509 1039.248,47.722 1039.939,47.942 1040.630,48.168 1041.321,48.399 1042.012,48.636 1042.703,48.878 1043.395,49.124 1044.086,49.375 1044.777,49.629 1045.468,49.887 1046.159,50.148 1046.850,50.411 1047.541,50.677 1048.232,50.946 1048.923,51.216 1049.615,51.487 1050.306,51.760 1050.997,52.034 1051.688,52.309 1052.379,52.585 1053.070,52.861 1053.761,53.137 1054.452,53.413 1055.144,53.689 1055.835,53.964 1056.526,54.239 1057.217,54.514 1057.908,54.787 1058.599,55.059 1059.290,55.331 1059.981,55.601 1060.673,55.869 1061.364,56.136 1062.055,56.402 1062.746,56.665 1063.437,56.927 1064.128,57.187 1064.819,57.445 1065.510,57.701 1066.201,57.955 1066.893,58.207 1067.584,58.456 1068.275,58.703 1068.966,58.947 1069.657,59.190 1070.348,59.429 1071.039,59.666 1071.730,59.901 1072.422,60.133 1073.113,60.362 1073.804,60.589 1074.495,60.813 1075.186,61.034 1075.877,61.253 1076.568,61.469 1077.259,61.682 1077.951,61.892 1078.642,62.100 1079.333,62.305 1080.024,62.507 1080.715,62.706 1081.406,62.903 1082.097,63.096 1082.788,63.287 1083.479,63.476 1084.171,63.661 1084.862,63.844 1085.553,64.024 1086.244,64.202 1086.935,64.376 1087.626,64.548 1088.317,64.718 1089.008,64.884 1089.700,65.049 1090.391,65.210 1091.082,65.369 1091.773,65.525 1092.464,65.679 1093.155,65.831 1093.846,65.979 1094.537,66.126 1095.229,66.270 1095.920,66.411 1096.611,66.550 1097.302,66.687 1097.993,66.821 1098.684,66.953 1099.375,67.083 1100.066,67.210 1100.757,67.336 1101.449,67.459 1102.140,67.580 1102.831,67.698 1103.522,67.815 1104.213,67.929 1104.904,68.042 1105.595,68.152 1106.286,68.260 1106.978,68.367 1107.669,68.471 1108.360,68.574 1109.051,68.674 1109.742,68.773 1110.433,68.870 1111.124,68.965 1111.815,69.058 1112.507,69.149 1113.198,69.239 1113.889,69.327 1114.580,69.413 1115.271,69.498 1115.962,69.581 1116.653,69.662 1117.344,69.742 1118.035,69.820 1118.727,69.897 1119.418,69.972 1120.109,70.046 1120.800,70.119 1121.491,70.189 1122.182,70.259 1122.873,70.327 1123.564,70.394 1124.256,70.459 1124.947,70.523 1125.638,70.586 1126.329,70.648 1127.020,70.708 1127.711,70.767 1128.402,70.825 1129.093,70.882 1129.785,70.937 1130.476,70.991 1131.167,71.045 1131.858,71.097 1132.549,71.148 1133.240,71.198 1133.931,71.247 1134.622,71.295 1135.313,71.342 1136.005,71.388 1136.696,71.433 1137.387,71.478 1138.078,71.521 1138.769,71.563 1139.460,71.605 1140.151,71.645 1140.842,71.685 1141.534,71.724 1142.225,71.762 1142.916,71.799 1143.607,71.836 1144.298,71.871 1144.989,71.906 1145.680,71.940 1146.371,71.974 1147.063,72.007 1147.754,72.039 1148.445,72.070 1149.136,72.101 1149.827,72.131 1150.518,72.160 1151.209,72.189 1151.900,72.217 1152.591,72.245 1153.283,72.272 1153.974,72.298 1154.665,72.324 1155.356,72.349 1156.047,72.374 1156.738,72.398 1157.429,72.421 1158.120,72.444 1158.812,72.467 1159.503,72.489 1160.194,72.511 1160.885,72.532 1161.576,72.552 1162.267,72.573 1162.958,72.592 1163.649,72.612 1164.341,72.631 1165.032,72.649 1165.723,72.667 1166.414,72.685 1167.105,72.702 1167.796,72.719 1168.487,72.736 1169.178,72.752 1169.869,72.768 1170.561,72.783 1171.252,72.798 1171.943,72.813 1172.634,72.828 1173.325,72.842 1174.016,72.856 1174.707,72.869 1175.398,72.882 1176.090,72.895 1176.781,72.908 1177.472,72.920 1178.163,72.932 1178.854,72.944 1179.545,72.955 1180.236,72.967 1180.927,72.978 1181.619,72.989 1182.310,72.999 1183.001,73.009 1183.692,73.019 1184.383,73.029 1185.074,73.039 1185.765,73.048 1186.456,73.057 1187.147,73.066 1187.839,73.075 1188.530,73.084 1189.221,73.092 1189.912,73.100 1190.603,73.108 1191.294,73.116 1191.985,73.124 1192.676,73.131 1193.368,73.138 1194.059,73.146 1194.750,73.153 1195.441,73.159 1196.132,73.166 1196.823,73.172 1197.514,73.179 1198.205,73.185 1198.897,73.191 1199.588,73.197 1200.279,73.203 1200.970,73.208 1201.661,73.214 1202.352,73.219 1203.043,73.225 1203.734,73.230 1204.425,73.235 1205.117,73.240 1205.808,73.245 1206.499,73.249 1207.190,73.254 1207.881,73.258 1208.572,73.263 1209.263,73.267 1209.954,73.271 1210.646,73.275 1211.337,73.279 1212.028,73.283 1212.719,73.287 1213.410,73.291 1214.101,73.294 1214.792,73.298 1215.483,73.301 1216.175,73.305 1216.866,73.308 " />
    <g
       id="g507" />
  </g>
  <g
     id="ID000040"
     transform="translate(-156.236,-23.84375)" />
  <polyline
     style="fill:none;stroke:#000000;stroke-width:0.5pt;stroke-dasharray:none"
     id="polyline538"
     points="957.696,283.020 957.696,280.113 "
     transform="translate(-156.236,-23.84375)" />
  <polyline
     style="fill:none;stroke:#000000;stroke-width:0.5pt;stroke-dasharray:none"
     id="polyline540"
     points="1044.086,283.020 1044.086,280.113 "
     transform="translate(-156.236,-23.84375)" />
  <polyline
     style="fill:none;stroke:#000000;stroke-width:0.5pt;stroke-dasharray:none"
     id="polyline542"
     points="1130.476,283.020 1130.476,280.113 "
     transform="translate(-156.236,-23.84375)" />
  <polyline
     style="fill:none;stroke:#000000;stroke-width:0.5pt;stroke-dasharray:none"
     id="polyline544"
     points="1216.866,283.020 1216.866,280.113 "
     transform="translate(-156.236,-23.84375)" />
  <polyline
     style="fill:none;stroke:#000000;stroke-width:0.5pt;stroke-dasharray:none"
     id="polyline546"
     points="957.696,283.020 1216.866,283.020 "
     transform="translate(-156.236,-23.84375)" />
  <g
     id="g548"
     transform="translate(801.46,276.15925)">
    <g
       id="g550">
      <text
         style="font-size:12.5px;text-anchor:middle;fill:#000000;font-family:Helvetica"
         id="text552"
         font-size="10pt"
         y="0"
         x="0">0</text>
    </g>
  </g>
  <g
     id="g554"
     transform="translate(887.85,276.15925)">
    <g
       id="g556">
      <text
         style="font-size:12.5px;text-anchor:middle;fill:#000000;font-family:Helvetica"
         id="text558"
         font-size="10pt"
         y="0"
         x="0">0.5</text>
    </g>
  </g>
  <g
     id="g560"
     transform="translate(974.24,276.15925)">
    <g
       id="g562">
      <text
         style="font-size:12.5px;text-anchor:middle;fill:#000000;font-family:Helvetica"
         id="text564"
         font-size="10pt"
         y="0"
         x="0">1</text>
    </g>
  </g>
  <g
     id="g566"
     transform="translate(1060.63,276.15925)">
    <g
       id="g568">
      <text
         style="font-size:12.5px;text-anchor:middle;fill:#000000;font-family:Helvetica"
         id="text570"
         font-size="10pt"
         y="0"
         x="0">1.5</text>
    </g>
  </g>
  <polyline
     style="fill:none;stroke:#000000;stroke-width:0.5pt;stroke-dasharray:none"
     id="polyline572"
     points="957.696,282.309 960.287,282.309 "
     transform="translate(-156.236,-23.84375)" />
  <polyline
     style="fill:none;stroke:#000000;stroke-width:0.5pt;stroke-dasharray:none"
     id="polyline574"
     points="957.696,240.536 960.287,240.536 "
     transform="translate(-156.236,-23.84375)" />
  <polyline
     style="fill:none;stroke:#000000;stroke-width:0.5pt;stroke-dasharray:none"
     id="polyline576"
     points="957.696,198.764 960.287,198.764 "
     transform="translate(-156.236,-23.84375)" />
  <polyline
     style="fill:none;stroke:#000000;stroke-width:0.5pt;stroke-dasharray:none"
     id="polyline578"
     points="957.696,156.991 960.287,156.991 "
     transform="translate(-156.236,-23.84375)" />
  <polyline
     style="fill:none;stroke:#000000;stroke-width:0.5pt;stroke-dasharray:none"
     id="polyline580"
     points="957.696,115.219 960.287,115.219 "
     transform="translate(-156.236,-23.84375)" />
  <polyline
     style="fill:none;stroke:#000000;stroke-width:0.5pt;stroke-dasharray:none"
     id="polyline582"
     points="957.696,73.446 960.287,73.446 "
     transform="translate(-156.236,-23.84375)" />
  <polyline
     style="fill:none;stroke:#000000;stroke-width:0.5pt;stroke-dasharray:none"
     id="polyline584"
     points="957.696,31.674 960.287,31.674 "
     transform="translate(-156.236,-23.84375)" />
  <polyline
     style="fill:none;stroke:#000000;stroke-width:0.5pt;stroke-dasharray:none"
     id="polyline586"
     points="957.696,283.020 957.696,23.850 "
     transform="translate(-156.236,-23.84375)" />
  <g
     id="g588"
     transform="translate(796.276,262.96525)">
    <g
       id="g590">
      <text
         style="font-size:12.5px;text-anchor:end;fill:#000000;font-family:Helvetica"
         id="text592"
         font-size="10pt"
         y="0"
         x="0">-5</text>
    </g>
  </g>
  <g
     id="g594"
     transform="translate(796.276,221.19225)">
    <g
       id="g596">
      <text
         style="font-size:12.5px;text-anchor:end;fill:#000000;font-family:Helvetica"
         id="text598"
         font-size="10pt"
         y="0"
         x="0">-4</text>
    </g>
  </g>
  <g
     id="g600"
     transform="translate(796.276,179.42025)">
    <g
       id="g602">
      <text
         style="font-size:12.5px;text-anchor:end;fill:#000000;font-family:Helvetica"
         id="text604"
         font-size="10pt"
         y="0"
         x="0">-3</text>
    </g>
  </g>
  <g
     id="g606"
     transform="translate(796.276,137.64725)">
    <g
       id="g608">
      <text
         style="font-size:12.5px;text-anchor:end;fill:#000000;font-family:Helvetica"
         id="text610"
         font-size="10pt"
         y="0"
         x="0">-2</text>
    </g>
  </g>
  <g
     id="g612"
     transform="translate(796.276,95.87525)">
    <g
       id="g614">
      <text
         style="font-size:12.5px;text-anchor:end;fill:#000000;font-family:Helvetica"
         id="text616"
         font-size="10pt"
         y="0"
         x="0">-1</text>
    </g>
  </g>
  <g
     id="g618"
     transform="translate(796.276,54.10225)">
    <g
       id="g620">
      <text
         style="font-size:12.5px;text-anchor:end;fill:#000000;font-family:Helvetica"
         id="text622"
         font-size="10pt"
         y="0"
         x="0">0</text>
    </g>
  </g>
  <g
     id="g624"
     transform="translate(796.276,12.33025)">
    <g
       id="g626">
      <text
         style="font-size:12.5px;text-anchor:end;fill:#000000;font-family:Helvetica"
         id="text628"
         font-size="10pt"
         y="0"
         x="0">1</text>
    </g>
  </g>
  <polyline
     style="fill:none;stroke:#000000;stroke-width:0.5pt;stroke-dasharray:none"
     id="polyline630"
     points="957.696,283.020 957.696,280.428 "
     transform="translate(-156.236,-23.84375)" />
  <polyline
     style="fill:none;stroke:#000000;stroke-width:0.5pt;stroke-dasharray:none"
     id="polyline632"
     points="957.696,283.020 957.696,280.428 "
     transform="translate(-156.236,-23.84375)" />
  <polyline
     style="fill:none;stroke:#000000;stroke-width:0.5pt;stroke-dasharray:none"
     id="polyline634"
     points="957.696,283.020 957.696,280.428 "
     transform="translate(-156.236,-23.84375)" />
  <polyline
     style="fill:none;stroke:#000000;stroke-width:0.5pt;stroke-dasharray:none"
     id="polyline636"
     points="957.696,283.020 957.696,283.020 "
     transform="translate(-156.236,-23.84375)" />
  <g
     id="ID000041"
     transform="translate(-88.62672,-126.34815)">
    <clipPath
       id="ID000042">
      <rect
         id="rect640"
         height="66.25"
         width="244.5"
         y="212"
         x="583.25" />
    </clipPath>
    <polygon
       style="fill:#ffffff;fill-opacity:1;stroke:none"
       id="polygon642"
       points="827.75,212 583.25,212 583.25,278.25 827.75,278.25 " />
    <polygon
       style="fill:#ffffff;fill-opacity:1;stroke:none"
       id="polygon644"
       points="827.75,212 583.25,212 583.25,212 827.75,212 " />
    <polygon
       style="fill:#ffffff;fill-opacity:1;stroke:none"
       id="polygon646"
       points="583.25,212 583.25,212 583.25,278.25 583.25,278.25 " />
    <g
       id="g648">
      <g
         id="ID000043">
        <g
           id="g651"
           transform="translate(632.649,230.051)">
          <g
             id="g653">
            <text
               style="font-size:12.5px;text-anchor:start;fill:#000000;font-family:Helvetica"
               id="text655"
               font-size="10pt"
               y="0"
               x="0">DMP without delayed goal system</text>
          </g>
        </g>
      </g>
      <g
         clip-path="url(#ID000042)"
         id="ID000044">
        <polyline
           style="fill:none;stroke:#8e8ecc;stroke-width:2pt;stroke-dasharray:none"
           id="polyline658"
           points="590.750,224.500 628.250,224.500 " />
        <g
           id="g660" />
      </g>
      <g
         clip-path="url(#ID000042)"
         id="ID000045">
        <g
           id="g663" />
      </g>
      <g
         id="ID000046">
        <g
           id="g666"
           transform="translate(632.649,251.131)">
          <g
             id="g668">
            <text
               style="font-size:12.5px;text-anchor:start;fill:#000000;font-family:Helvetica"
               id="text670"
               font-size="10pt"
               y="0"
               x="0">delayed goal system</text>
          </g>
        </g>
      </g>
      <g
         clip-path="url(#ID000042)"
         id="ID000047">
        <polyline
           style="fill:none;stroke:#8ecccc;stroke-width:2pt;stroke-dasharray:8, 2"
           id="polyline673"
           points="590.750,245.125 628.250,245.125 " />
        <g
           id="g675" />
      </g>
      <g
         clip-path="url(#ID000042)"
         id="ID000048">
        <g
           id="g678" />
      </g>
      <g
         id="ID000049">
        <g
           id="g681"
           transform="translate(632.649,271.206)">
          <g
             id="g683">
            <text
               style="font-size:12.5px;text-anchor:start;fill:#000000;font-family:Helvetica"
               id="text685"
               font-size="10pt"
               y="0"
               x="0">DMP with delayed goal system</text>
          </g>
        </g>
      </g>
      <g
         clip-path="url(#ID000042)"
         id="ID000050">
        <polyline
           style="fill:none;stroke:#cccc8e;stroke-width:2pt;stroke-dasharray:none"
           id="polyline688"
           points="590.750,265.750 628.250,265.750 " />
        <g
           id="g690" />
      </g>
      <g
         clip-path="url(#ID000042)"
         id="ID000051">
        <g
           id="g693" />
      </g>
      <g
         id="ID000052" />
      <g
         id="ID000053" />
      <g
         id="ID000054" />
    </g>
    <g
       id="g698">
      <polyline
         style="fill:none;stroke:#000000;stroke-width:0.5pt;stroke-dasharray:none"
         id="polyline700"
         points="583.250,278.250 827.750,278.250 " />
      <polyline
         style="fill:none;stroke:#000000;stroke-width:0.5pt;stroke-dasharray:none"
         id="polyline702"
         points="583.250,212.000 827.750,212.000 " />
      <polyline
         style="fill:none;stroke:#000000;stroke-width:0.5pt;stroke-dasharray:none"
         id="polyline704"
         points="583.250,278.250 583.250,212.000 " />
      <polyline
         style="fill:none;stroke:#000000;stroke-width:0.5pt;stroke-dasharray:none"
         id="polyline706"
         points="827.750,278.250 827.750,212.000 " />
      <polyline
         style="fill:none;stroke:#000000;stroke-width:0.5pt;stroke-dasharray:none"
         id="polyline708"
         points="583.250,278.250 583.250,277.587 " />
      <polyline
         style="fill:none;stroke:#000000;stroke-width:0.5pt;stroke-dasharray:none"
         id="polyline710"
         points="583.250,278.250 583.250,278.250 " />
    </g>
  </g>
  <text
     style="font-size:10px;font-style:normal;font-variant:normal;font-weight:normal;font-stretch:normal;text-align:center;line-height:125%;writing-mode:lr-tb;text-anchor:middle;fill:#000000;font-family:FreeSans;-inkscape-font-specification:FreeSans"
     id="text233-6-6"
     font-size="10pt"
     y="-65.777306"
     x="917.69611"
     sodipodi:linespacing="125%" />
  <text
     style="font-size:12.5px;text-anchor:middle;fill:#000000;font-family:Helvetica"
     font-size="10pt"
     y="-65.777306"
     x="917.69611"
     id="text4665" />
  <text
     xml:space="preserve"
     style="font-size:16px;font-style:normal;font-variant:normal;font-weight:normal;font-stretch:normal;text-align:center;line-height:125%;letter-spacing:0px;word-spacing:0px;text-anchor:middle;fill:#000000;fill-opacity:1;stroke:none;font-family:Arial;-inkscape-font-specification:Arial"
     x="953.69916"
     y="130.5854"
     id="text4667"
     sodipodi:linespacing="125%"><tspan
       sodipodi:role="line"
       x="955.36322"
       y="130.5854"
       id="tspan4671"
       style="font-size:12px">(no accelerations for delayed goal </tspan><tspan
       sodipodi:role="line"
       x="953.69916"
       y="145.5854"
       id="tspan4699"
       style="font-size:12px">system, because 1st order)</tspan></text>
  <text
     xml:space="preserve"
     style="font-size:16px;font-style:normal;font-variant:normal;font-weight:normal;font-stretch:normal;text-align:center;line-height:125%;letter-spacing:0px;word-spacing:0px;text-anchor:middle;fill:#000000;fill-opacity:1;stroke:none;font-family:Arial;-inkscape-font-specification:Arial"
     x="919.38678"
     y="226.13995"
     id="text4667-9"
     sodipodi:linespacing="125%"><tspan
       sodipodi:role="line"
       x="921.60553"
       y="226.13995"
       id="tspan4703">high initial accelerations without </tspan><tspan
       sodipodi:role="line"
       x="919.38678"
       y="246.13995"
       id="tspan4707">delayed goal system</tspan></text>
</svg>
