<?xml version="1.0" encoding="UTF-8" standalone="no"?>
<svg
   xmlns:dc="http://purl.org/dc/elements/1.1/"
   xmlns:cc="http://creativecommons.org/ns#"
   xmlns:rdf="http://www.w3.org/1999/02/22-rdf-syntax-ns#"
   xmlns:svg="http://www.w3.org/2000/svg"
   xmlns="http://www.w3.org/2000/svg"
   xmlns:sodipodi="http://sodipodi.sourceforge.net/DTD/sodipodi-0.dtd"
   xmlns:inkscape="http://www.inkscape.org/namespaces/inkscape"
   preserveAspectRatio="xMinYMin meet"
   width="100%"
   height="100%"
   viewBox="0 0 1068.7759 299.1375"
   version="1.1"
   id="svg2"
   inkscape:version="0.48.2 r9819"
   sodipodi:docname="dmp_forcing_terms.svg"
   inkscape:export-filename="/home/stulp/coding/oo_dmp_bbo/oo_dmp_bbo/cpp/docs/images/dmp_forcing_terms.png"
   inkscape:export-xdpi="90"
   inkscape:export-ydpi="90">
  <metadata
     id="metadata707">
    <rdf:RDF>
      <cc:Work
         rdf:about="">
        <dc:format>image/svg+xml</dc:format>
        <dc:type
           rdf:resource="http://purl.org/dc/dcmitype/StillImage" />
        <dc:title></dc:title>
      </cc:Work>
    </rdf:RDF>
  </metadata>
  <defs
     id="defs705">
    <clipPath
       id="ID000001">
      <rect
         x="192.804"
         y="23.85"
         width="259.17001"
         height="259.17001"
         id="rect11" />
    </clipPath>
    <clipPath
       id="ID000017">
      <rect
         x="575.25"
         y="23.85"
         width="259.17001"
         height="259.17001"
         id="rect223" />
    </clipPath>
    <clipPath
       id="ID000031">
      <rect
         x="957.69598"
         y="23.85"
         width="259.17001"
         height="259.17001"
         id="rect427" />
    </clipPath>
  </defs>
  <sodipodi:namedview
     pagecolor="#ffffff"
     bordercolor="#666666"
     borderopacity="1"
     objecttolerance="10"
     gridtolerance="10"
     guidetolerance="10"
     inkscape:pageopacity="0"
     inkscape:pageshadow="2"
     inkscape:window-width="1366"
     inkscape:window-height="703"
     id="namedview703"
     showgrid="false"
     inkscape:zoom="1.1686267"
     inkscape:cx="534.38794"
     inkscape:cy="149.56875"
     inkscape:window-x="-4"
     inkscape:window-y="-3"
     inkscape:window-maximized="1"
     inkscape:current-layer="svg2"
     fit-margin-top="0"
     fit-margin-left="0"
     fit-margin-right="0"
     fit-margin-bottom="0" />
  <desc
     id="desc4">Matlab Figure Converted by PLOT2SVG written by Juerg Schwizer</desc>
  <polygon
     points="192.804,23.85 192.804,283.02 451.974,283.02 451.974,23.85 "
     id="polygon13"
     style="fill:#ffffff;fill-opacity:1;stroke:none"
     transform="translate(-156.236,-21.5495)" />
  <polygon
     points="192.804,23.85 192.804,23.85 451.974,23.85 451.974,23.85 "
     id="polygon15"
     style="fill:#ffffff;fill-opacity:1;stroke:none"
     transform="translate(-156.236,-21.5495)" />
  <polygon
     points="192.804,23.85 192.804,283.02 192.804,283.02 192.804,23.85 "
     id="polygon17"
     style="fill:#ffffff;fill-opacity:1;stroke:none"
     transform="translate(-156.236,-21.5495)" />
  <g
     clip-path="url(#ID000001)"
     id="ID000002"
     transform="translate(-156.236,-21.5495)">
    <polyline
       style="fill:none;stroke:#8e8ecc;stroke-width:2pt;stroke-dasharray:none"
       id="polyline22"
       points="192.804,65.183 193.495,65.184 194.187,65.191 194.878,65.207 195.569,65.237 196.260,65.283 196.951,65.348 197.642,65.436 198.333,65.549 199.024,65.688 199.716,65.856 200.407,66.054 201.098,66.283 201.789,66.546 202.480,66.842 203.171,67.173 203.862,67.540 204.553,67.943 205.245,68.381 205.936,68.857 206.627,69.369 207.318,69.918 208.009,70.503 208.700,71.125 209.391,71.783 210.082,72.476 210.773,73.205 211.465,73.969 212.156,74.767 212.847,75.599 213.538,76.464 214.229,77.361 214.920,78.290 215.611,79.250 216.302,80.239 216.994,81.258 217.685,82.305 218.376,83.379 219.067,84.480 219.758,85.606 220.449,86.757 221.140,87.932 221.831,89.129 222.523,90.349 223.214,91.589 223.905,92.849 224.596,94.128 225.287,95.425 225.978,96.740 226.669,98.071 227.360,99.417 228.051,100.777 228.743,102.151 229.434,103.538 230.125,104.936 230.816,106.345 231.507,107.765 232.198,109.194 232.889,110.631 233.580,112.075 234.272,113.527 234.963,114.985 235.654,116.448 236.345,117.916 237.036,119.388 237.727,120.863 238.418,122.340 239.109,123.819 239.801,125.300 240.492,126.781 241.183,128.263 241.874,129.744 242.565,131.223 243.256,132.701 243.947,134.177 244.638,135.650 245.329,137.120 246.021,138.586 246.712,140.048 247.403,141.505 248.094,142.958 248.785,144.405 249.476,145.845 250.167,147.280 250.858,148.708 251.550,150.129 252.241,151.543 252.932,152.949 253.623,154.347 254.314,155.737 255.005,157.119 255.696,158.491 256.387,159.855 257.079,161.209 257.770,162.554 258.461,163.888 259.152,165.213 259.843,166.528 260.534,167.833 261.225,169.127 261.916,170.410 262.607,171.683 263.299,172.944 263.990,174.195 264.681,175.434 265.372,176.662 266.063,177.878 266.754,179.083 267.445,180.277 268.136,181.459 268.828,182.629 269.519,183.787 270.210,184.933 270.901,186.068 271.592,187.190 272.283,188.301 272.974,189.400 273.665,190.486 274.357,191.561 275.048,192.623 275.739,193.674 276.430,194.712 277.121,195.739 277.812,196.753 278.503,197.756 279.194,198.746 279.885,199.725 280.577,200.692 281.268,201.647 281.959,202.590 282.650,203.521 283.341,204.441 284.032,205.349 284.723,206.246 285.414,207.130 286.106,208.004 286.797,208.866 287.488,209.716 288.179,210.556 288.870,211.384 289.561,212.201 290.252,213.007 290.943,213.802 291.635,214.586 292.326,215.359 293.017,216.122 293.708,216.874 294.399,217.615 295.090,218.346 295.781,219.067 296.472,219.777 297.163,220.477 297.855,221.167 298.546,221.847 299.237,222.517 299.928,223.178 300.619,223.828 301.310,224.469 302.001,225.101 302.692,225.723 303.384,226.336 304.075,226.939 304.766,227.534 305.457,228.119 306.148,228.696 306.839,229.264 307.530,229.823 308.221,230.373 308.913,230.915 309.604,231.448 310.295,231.974 310.986,232.490 311.677,232.999 312.368,233.500 313.059,233.993 313.750,234.478 314.441,234.956 315.133,235.425 315.824,235.888 316.515,236.342 317.206,236.790 317.897,237.230 318.588,237.663 319.279,238.089 319.970,238.508 320.662,238.921 321.353,239.326 322.044,239.725 322.735,240.117 323.426,240.503 324.117,240.883 324.808,241.256 325.499,241.623 326.191,241.983 326.882,242.338 327.573,242.687 328.264,243.030 328.955,243.367 329.646,243.698 330.337,244.024 331.028,244.344 331.719,244.659 332.411,244.968 333.102,245.272 333.793,245.571 334.484,245.865 335.175,246.154 335.866,246.437 336.557,246.716 337.248,246.990 337.940,247.260 338.631,247.524 339.322,247.784 340.013,248.039 340.704,248.290 341.395,248.537 342.086,248.779 342.777,249.017 343.469,249.251 344.160,249.481 344.851,249.706 345.542,249.928 346.233,250.145 346.924,250.359 347.615,250.569 348.306,250.775 348.997,250.978 349.689,251.177 350.380,251.372 351.071,251.564 351.762,251.753 352.453,251.938 353.144,252.119 353.835,252.298 354.526,252.473 355.218,252.645 355.909,252.814 356.600,252.980 357.291,253.143 357.982,253.302 358.673,253.459 359.364,253.614 360.055,253.765 360.747,253.913 361.438,254.059 362.129,254.202 362.820,254.343 363.511,254.481 364.202,254.616 364.893,254.749 365.584,254.879 366.275,255.007 366.967,255.133 367.658,255.256 368.349,255.377 369.040,255.496 369.731,255.613 370.422,255.727 371.113,255.839 371.804,255.949 372.496,256.058 373.187,256.164 373.878,256.268 374.569,256.370 375.260,256.470 375.951,256.569 376.642,256.665 377.333,256.760 378.025,256.853 378.716,256.944 379.407,257.033 380.098,257.121 380.789,257.207 381.480,257.292 382.171,257.375 382.862,257.456 383.553,257.536 384.245,257.614 384.936,257.691 385.627,257.766 386.318,257.840 387.009,257.912 387.700,257.984 388.391,258.053 389.082,258.122 389.774,258.189 390.465,258.255 391.156,258.319 391.847,258.382 392.538,258.445 393.229,258.505 393.920,258.565 394.611,258.624 395.303,258.681 395.994,258.738 396.685,258.793 397.376,258.847 398.067,258.900 398.758,258.953 399.449,259.004 400.140,259.054 400.831,259.103 401.523,259.151 402.214,259.199 402.905,259.245 403.596,259.290 404.287,259.335 404.978,259.379 405.669,259.422 406.360,259.464 407.052,259.505 407.743,259.545 408.434,259.585 409.125,259.624 409.816,259.662 410.507,259.699 411.198,259.736 411.889,259.772 412.581,259.807 413.272,259.842 413.963,259.875 414.654,259.909 415.345,259.941 416.036,259.973 416.727,260.004 417.418,260.035 418.109,260.065 418.801,260.095 419.492,260.124 420.183,260.152 420.874,260.180 421.565,260.207 422.256,260.234 422.947,260.260 423.638,260.285 424.330,260.310 425.021,260.335 425.712,260.359 426.403,260.383 427.094,260.406 427.785,260.429 428.476,260.451 429.167,260.473 429.859,260.495 430.550,260.516 431.241,260.536 431.932,260.556 432.623,260.576 433.314,260.595 434.005,260.614 434.696,260.633 435.387,260.651 436.079,260.669 436.770,260.687 437.461,260.704 438.152,260.721 438.843,260.737 439.534,260.754 440.225,260.769 440.916,260.785 441.608,260.800 442.299,260.815 442.990,260.830 443.681,260.844 444.372,260.858 445.063,260.872 445.754,260.885 446.445,260.899 447.137,260.912 447.828,260.924 448.519,260.937 449.210,260.949 449.901,260.961 450.592,260.973 451.283,260.984 451.974,260.995 " />
    <g
       id="g24" />
  </g>
  <g
     id="ID000003"
     transform="translate(-156.236,-21.5495)">
    <g
       id="g27"
       transform="translate(321.389,318.037)">
      <g
         id="g29">
        <text
           style="font-size:12.5px;text-anchor:middle;fill:#000000;font-family:Helvetica"
           id="text31"
           font-size="10pt"
           y="0"
           x="0">time (s)</text>
      </g>
    </g>
  </g>
  <g
     id="ID000004"
     transform="translate(-156.236,-21.5495)">
    <g
       id="g34"
       transform="translate(162.786,154.436)">
      <g
         id="g36"
         transform="matrix(0,-1,1,0,0,0)">
        <text
           style="font-size:12.5px;text-anchor:middle;fill:#000000;font-family:Helvetica"
           id="text38"
           font-size="10pt"
           y="0"
           x="0">y</text>
      </g>
    </g>
  </g>
  <g
     clip-path="url(#ID000001)"
     id="ID000007"
     transform="translate(-156.236,-21.5495)">
    <polyline
       style="fill:none;stroke:#8ecccc;stroke-width:2pt;stroke-dasharray:none"
       id="polyline63"
       points="192.804,65.183 193.495,65.291 194.187,65.528 194.878,65.876 195.569,66.313 196.260,66.822 196.951,67.382 197.642,67.972 198.333,68.573 199.024,69.166 199.716,69.729 200.407,70.244 201.098,70.694 201.789,71.061 202.480,71.332 203.171,71.494 203.862,71.537 204.553,71.454 205.245,71.241 205.936,70.898 206.627,70.424 207.318,69.824 208.009,69.104 208.700,68.272 209.391,67.337 210.082,66.309 210.773,65.202 211.465,64.025 212.156,62.794 212.847,61.520 213.538,60.217 214.229,58.898 214.920,57.576 215.611,56.266 216.302,54.979 216.994,53.728 217.685,52.527 218.376,51.386 219.067,50.319 219.758,49.335 220.449,48.445 221.140,47.657 221.831,46.980 222.523,46.421 223.214,45.985 223.905,45.676 224.596,45.496 225.287,45.448 225.978,45.530 226.669,45.742 227.360,46.081 228.051,46.545 228.743,47.129 229.434,47.830 230.125,48.642 230.816,49.560 231.507,50.579 232.198,51.693 232.889,52.897 233.580,54.185 234.272,55.551 234.963,56.990 235.654,58.497 236.345,60.065 237.036,61.690 237.727,63.367 238.418,65.090 239.109,66.856 239.801,68.659 240.492,70.496 241.183,72.361 241.874,74.253 242.565,76.166 243.256,78.099 243.947,80.047 244.638,82.008 245.329,83.980 246.021,85.961 246.712,87.948 247.403,89.939 248.094,91.934 248.785,93.930 249.476,95.926 250.167,97.921 250.858,99.914 251.550,101.904 252.241,103.889 252.932,105.869 253.623,107.843 254.314,109.810 255.005,111.769 255.696,113.721 256.387,115.664 257.079,117.597 257.770,119.521 258.461,121.434 259.152,123.337 259.843,125.229 260.534,127.109 261.225,128.977 261.916,130.832 262.607,132.675 263.299,134.505 263.990,136.321 264.681,138.124 265.372,139.912 266.063,141.685 266.754,143.444 267.445,145.188 268.136,146.916 268.828,148.628 269.519,150.324 270.210,152.004 270.901,153.668 271.592,155.314 272.283,156.943 272.974,158.555 273.665,160.150 274.357,161.727 275.048,163.285 275.739,164.826 276.430,166.349 277.121,167.853 277.812,169.339 278.503,170.806 279.194,172.255 279.885,173.685 280.577,175.096 281.268,176.489 281.959,177.862 282.650,179.218 283.341,180.554 284.032,181.872 284.723,183.172 285.414,184.453 286.106,185.716 286.797,186.961 287.488,188.188 288.179,189.397 288.870,190.589 289.561,191.764 290.252,192.921 290.943,194.062 291.635,195.185 292.326,196.292 293.017,197.383 293.708,198.457 294.399,199.515 295.090,200.557 295.781,201.584 296.472,202.595 297.163,203.590 297.855,204.571 298.546,205.536 299.237,206.486 299.928,207.422 300.619,208.343 301.310,209.250 302.001,210.143 302.692,211.022 303.384,211.887 304.075,212.739 304.766,213.577 305.457,214.402 306.148,215.214 306.839,216.013 307.530,216.799 308.221,217.573 308.913,218.334 309.604,219.084 310.295,219.821 310.986,220.546 311.677,221.260 312.368,221.963 313.059,222.654 313.750,223.334 314.441,224.003 315.133,224.661 315.824,225.308 316.515,225.945 317.206,226.572 317.897,227.188 318.588,227.795 319.279,228.391 319.970,228.978 320.662,229.554 321.353,230.122 322.044,230.680 322.735,231.229 323.426,231.769 324.117,232.299 324.808,232.821 325.499,233.335 326.191,233.840 326.882,234.336 327.573,234.824 328.264,235.304 328.955,235.776 329.646,236.239 330.337,236.696 331.028,237.144 331.719,237.585 332.411,238.018 333.102,238.444 333.793,238.863 334.484,239.274 335.175,239.679 335.866,240.076 336.557,240.467 337.248,240.851 337.940,241.229 338.631,241.600 339.322,241.964 340.013,242.322 340.704,242.674 341.395,243.020 342.086,243.360 342.777,243.694 343.469,244.023 344.160,244.345 344.851,244.662 345.542,244.973 346.233,245.279 346.924,245.580 347.615,245.875 348.306,246.165 348.997,246.450 349.689,246.730 350.380,247.005 351.071,247.275 351.762,247.540 352.453,247.801 353.144,248.057 353.835,248.308 354.526,248.556 355.218,248.798 355.909,249.037 356.600,249.271 357.291,249.501 357.982,249.727 358.673,249.948 359.364,250.166 360.055,250.380 360.747,250.591 361.438,250.797 362.129,251.000 362.820,251.199 363.511,251.394 364.202,251.586 364.893,251.775 365.584,251.960 366.275,252.142 366.967,252.320 367.658,252.495 368.349,252.667 369.040,252.836 369.731,253.002 370.422,253.165 371.113,253.325 371.804,253.482 372.496,253.636 373.187,253.787 373.878,253.936 374.569,254.081 375.260,254.224 375.951,254.365 376.642,254.503 377.333,254.638 378.025,254.771 378.716,254.901 379.407,255.029 380.098,255.155 380.789,255.278 381.480,255.399 382.171,255.517 382.862,255.634 383.553,255.748 384.245,255.860 384.936,255.970 385.627,256.078 386.318,256.184 387.009,256.288 387.700,256.390 388.391,256.490 389.082,256.589 389.774,256.685 390.465,256.779 391.156,256.872 391.847,256.963 392.538,257.052 393.229,257.140 393.920,257.226 394.611,257.310 395.303,257.393 395.994,257.474 396.685,257.554 397.376,257.632 398.067,257.708 398.758,257.784 399.449,257.857 400.140,257.930 400.831,258.001 401.523,258.070 402.214,258.138 402.905,258.205 403.596,258.271 404.287,258.335 404.978,258.398 405.669,258.460 406.360,258.521 407.052,258.581 407.743,258.639 408.434,258.696 409.125,258.752 409.816,258.808 410.507,258.862 411.198,258.915 411.889,258.967 412.581,259.018 413.272,259.068 413.963,259.117 414.654,259.165 415.345,259.212 416.036,259.258 416.727,259.303 417.418,259.348 418.109,259.391 418.801,259.434 419.492,259.476 420.183,259.517 420.874,259.557 421.565,259.597 422.256,259.635 422.947,259.673 423.638,259.711 424.330,259.747 425.021,259.783 425.712,259.818 426.403,259.852 427.094,259.886 427.785,259.919 428.476,259.951 429.167,259.983 429.859,260.014 430.550,260.045 431.241,260.075 431.932,260.104 432.623,260.133 433.314,260.161 434.005,260.189 434.696,260.216 435.387,260.242 436.079,260.268 436.770,260.294 437.461,260.319 438.152,260.343 438.843,260.367 439.534,260.391 440.225,260.414 440.916,260.437 441.608,260.459 442.299,260.481 442.990,260.502 443.681,260.523 444.372,260.543 445.063,260.563 445.754,260.583 446.445,260.602 447.137,260.621 447.828,260.640 448.519,260.658 449.210,260.676 449.901,260.693 450.592,260.710 451.283,260.727 451.974,260.743 " />
    <g
       id="g65" />
  </g>
  <g
     clip-path="url(#ID000001)"
     id="ID000010"
     transform="translate(-156.236,-21.5495)">
    <polyline
       style="fill:none;stroke:#cccc8e;stroke-width:2pt;stroke-dasharray:none"
       id="polyline90"
       points="192.804,65.183 193.495,65.407 194.187,65.916 194.878,66.688 195.569,67.706 196.260,68.951 196.951,70.406 197.642,72.057 198.333,73.887 199.024,75.883 199.716,78.032 200.407,80.322 201.098,82.741 201.789,85.278 202.480,87.923 203.171,90.666 203.862,93.496 204.553,96.406 205.245,99.386 205.936,102.427 206.627,105.521 207.318,108.660 208.009,111.836 208.700,115.042 209.391,118.269 210.082,121.510 210.773,124.759 211.465,128.008 212.156,131.250 212.847,134.480 213.538,137.690 214.229,140.874 214.920,144.026 215.611,147.140 216.302,150.209 216.994,153.228 217.685,156.190 218.376,159.090 219.067,161.923 219.758,164.682 220.449,167.365 221.140,169.966 221.831,172.481 222.523,174.908 223.214,177.245 223.905,179.489 224.596,181.642 225.287,183.701 225.978,185.670 226.669,187.548 227.360,189.339 228.051,191.044 228.743,192.668 229.434,194.213 230.125,195.683 230.816,197.082 231.507,198.414 232.198,199.682 232.889,200.892 233.580,202.047 234.272,203.152 234.963,204.210 235.654,205.226 236.345,206.204 237.036,207.147 237.727,208.060 238.418,208.946 239.109,209.809 239.801,210.651 240.492,211.477 241.183,212.289 241.874,213.090 242.565,213.881 243.256,214.665 243.947,215.442 244.638,216.215 245.329,216.983 246.021,217.749 246.712,218.511 247.403,219.269 248.094,220.025 248.785,220.778 249.476,221.526 250.167,222.270 250.858,223.010 251.550,223.744 252.241,224.471 252.932,225.192 253.623,225.905 254.314,226.609 255.005,227.305 255.696,227.990 256.387,228.664 257.079,229.326 257.770,229.976 258.461,230.613 259.152,231.235 259.843,231.844 260.534,232.437 261.225,233.015 261.916,233.577 262.607,234.124 263.299,234.654 263.990,235.169 264.681,235.668 265.372,236.152 266.063,236.621 266.754,237.075 267.445,237.514 268.136,237.940 268.828,238.353 269.519,238.753 270.210,239.141 270.901,239.517 271.592,239.882 272.283,240.237 272.974,240.582 273.665,240.917 274.357,241.244 275.048,241.562 275.739,241.873 276.430,242.175 277.121,242.471 277.812,242.761 278.503,243.044 279.194,243.322 279.885,243.594 280.577,243.861 281.268,244.123 281.959,244.381 282.650,244.635 283.341,244.885 284.032,245.130 284.723,245.373 285.414,245.611 286.106,245.847 286.797,246.079 287.488,246.308 288.179,246.534 288.870,246.757 289.561,246.978 290.252,247.195 290.943,247.410 291.635,247.623 292.326,247.833 293.017,248.040 293.708,248.245 294.399,248.449 295.090,248.649 295.781,248.848 296.472,249.045 297.163,249.240 297.855,249.433 298.546,249.624 299.237,249.814 299.928,250.002 300.619,250.188 301.310,250.372 302.001,250.555 302.692,250.736 303.384,250.916 304.075,251.094 304.766,251.270 305.457,251.445 306.148,251.617 306.839,251.788 307.530,251.958 308.221,252.125 308.913,252.291 309.604,252.455 310.295,252.616 310.986,252.776 311.677,252.934 312.368,253.090 313.059,253.244 313.750,253.396 314.441,253.546 315.133,253.694 315.824,253.840 316.515,253.984 317.206,254.125 317.897,254.265 318.588,254.403 319.279,254.538 319.970,254.671 320.662,254.803 321.353,254.932 322.044,255.059 322.735,255.184 323.426,255.307 324.117,255.428 324.808,255.547 325.499,255.664 326.191,255.779 326.882,255.893 327.573,256.004 328.264,256.113 328.955,256.220 329.646,256.326 330.337,256.430 331.028,256.531 331.719,256.631 332.411,256.730 333.102,256.826 333.793,256.921 334.484,257.014 335.175,257.105 335.866,257.195 336.557,257.283 337.248,257.370 337.940,257.455 338.631,257.538 339.322,257.620 340.013,257.700 340.704,257.779 341.395,257.856 342.086,257.932 342.777,258.007 343.469,258.080 344.160,258.152 344.851,258.222 345.542,258.291 346.233,258.359 346.924,258.425 347.615,258.490 348.306,258.554 348.997,258.617 349.689,258.678 350.380,258.738 351.071,258.798 351.762,258.855 352.453,258.912 353.144,258.968 353.835,259.022 354.526,259.075 355.218,259.128 355.909,259.179 356.600,259.229 357.291,259.278 357.982,259.326 358.673,259.373 359.364,259.419 360.055,259.465 360.747,259.509 361.438,259.552 362.129,259.595 362.820,259.636 363.511,259.677 364.202,259.716 364.893,259.755 365.584,259.794 366.275,259.831 366.967,259.867 367.658,259.903 368.349,259.938 369.040,259.972 369.731,260.006 370.422,260.039 371.113,260.071 371.804,260.102 372.496,260.133 373.187,260.163 373.878,260.193 374.569,260.222 375.260,260.250 375.951,260.277 376.642,260.305 377.333,260.331 378.025,260.357 378.716,260.382 379.407,260.407 380.098,260.431 380.789,260.455 381.480,260.478 382.171,260.501 382.862,260.523 383.553,260.545 384.245,260.567 384.936,260.587 385.627,260.608 386.318,260.628 387.009,260.647 387.700,260.667 388.391,260.685 389.082,260.704 389.774,260.722 390.465,260.739 391.156,260.756 391.847,260.773 392.538,260.790 393.229,260.806 393.920,260.821 394.611,260.837 395.303,260.852 395.994,260.867 396.685,260.881 397.376,260.895 398.067,260.909 398.758,260.923 399.449,260.936 400.140,260.949 400.831,260.961 401.523,260.974 402.214,260.986 402.905,260.998 403.596,261.010 404.287,261.021 404.978,261.032 405.669,261.043 406.360,261.054 407.052,261.064 407.743,261.074 408.434,261.084 409.125,261.094 409.816,261.103 410.507,261.113 411.198,261.122 411.889,261.131 412.581,261.140 413.272,261.148 413.963,261.157 414.654,261.165 415.345,261.173 416.036,261.181 416.727,261.188 417.418,261.196 418.109,261.203 418.801,261.210 419.492,261.218 420.183,261.224 420.874,261.231 421.565,261.238 422.256,261.244 422.947,261.251 423.638,261.257 424.330,261.263 425.021,261.269 425.712,261.274 426.403,261.280 427.094,261.286 427.785,261.291 428.476,261.296 429.167,261.302 429.859,261.307 430.550,261.312 431.241,261.316 431.932,261.321 432.623,261.326 433.314,261.330 434.005,261.335 434.696,261.339 435.387,261.344 436.079,261.348 436.770,261.352 437.461,261.356 438.152,261.360 438.843,261.364 439.534,261.367 440.225,261.371 440.916,261.375 441.608,261.378 442.299,261.382 442.990,261.385 443.681,261.388 444.372,261.391 445.063,261.395 445.754,261.398 446.445,261.401 447.137,261.404 447.828,261.406 448.519,261.409 449.210,261.412 449.901,261.415 450.592,261.417 451.283,261.420 451.974,261.422 " />
    <g
       id="g92" />
  </g>
  <g
     id="ID000013"
     transform="translate(-156.236,-21.5495)" />
  <g
     id="ID000014"
     transform="translate(-156.236,-21.5495)" />
  <g
     id="ID000015"
     transform="translate(-156.236,-21.5495)" />
  <g
     id="g119"
     transform="translate(-156.236,-21.5495)">
    <polyline
       points="192.804,283.020 192.804,280.113 "
       id="polyline121"
       style="fill:none;stroke:#000000;stroke-width:0.5pt;stroke-dasharray:none" />
    <polyline
       points="279.194,283.020 279.194,280.113 "
       id="polyline123"
       style="fill:none;stroke:#000000;stroke-width:0.5pt;stroke-dasharray:none" />
    <polyline
       points="365.584,283.020 365.584,280.113 "
       id="polyline125"
       style="fill:none;stroke:#000000;stroke-width:0.5pt;stroke-dasharray:none" />
    <polyline
       points="451.974,283.020 451.974,280.113 "
       id="polyline127"
       style="fill:none;stroke:#000000;stroke-width:0.5pt;stroke-dasharray:none" />
    <polyline
       points="192.804,283.020 451.974,283.020 "
       id="polyline129"
       style="fill:none;stroke:#000000;stroke-width:0.5pt;stroke-dasharray:none" />
    <g
       transform="translate(192.804,300.003)"
       id="g131">
      <g
         id="g133">
        <text
           x="0"
           y="0"
           font-size="10pt"
           id="text135"
           style="font-size:12.5px;text-anchor:middle;fill:#000000;font-family:Helvetica">0</text>
      </g>
    </g>
    <g
       transform="translate(279.194,300.003)"
       id="g137">
      <g
         id="g139">
        <text
           x="0"
           y="0"
           font-size="10pt"
           id="text141"
           style="font-size:12.5px;text-anchor:middle;fill:#000000;font-family:Helvetica">0.5</text>
      </g>
    </g>
    <g
       transform="translate(365.584,300.003)"
       id="g143">
      <g
         id="g145">
        <text
           x="0"
           y="0"
           font-size="10pt"
           id="text147"
           style="font-size:12.5px;text-anchor:middle;fill:#000000;font-family:Helvetica">1</text>
      </g>
    </g>
    <g
       transform="translate(451.974,300.003)"
       id="g149">
      <g
         id="g151">
        <text
           x="0"
           y="0"
           font-size="10pt"
           id="text153"
           style="font-size:12.5px;text-anchor:middle;fill:#000000;font-family:Helvetica">1.5</text>
      </g>
    </g>
    <polyline
       points="192.804,261.538 195.396,261.538 "
       id="polyline155"
       style="fill:none;stroke:#000000;stroke-width:0.5pt;stroke-dasharray:none" />
    <polyline
       points="192.804,222.267 195.396,222.267 "
       id="polyline157"
       style="fill:none;stroke:#000000;stroke-width:0.5pt;stroke-dasharray:none" />
    <polyline
       points="192.804,182.996 195.396,182.996 "
       id="polyline159"
       style="fill:none;stroke:#000000;stroke-width:0.5pt;stroke-dasharray:none" />
    <polyline
       points="192.804,143.725 195.396,143.725 "
       id="polyline161"
       style="fill:none;stroke:#000000;stroke-width:0.5pt;stroke-dasharray:none" />
    <polyline
       points="192.804,104.454 195.396,104.454 "
       id="polyline163"
       style="fill:none;stroke:#000000;stroke-width:0.5pt;stroke-dasharray:none" />
    <polyline
       points="192.804,65.183 195.396,65.183 "
       id="polyline165"
       style="fill:none;stroke:#000000;stroke-width:0.5pt;stroke-dasharray:none" />
    <polyline
       points="192.804,25.912 195.396,25.912 "
       id="polyline167"
       style="fill:none;stroke:#000000;stroke-width:0.5pt;stroke-dasharray:none" />
    <polyline
       points="192.804,283.020 192.804,23.850 "
       id="polyline169"
       style="fill:none;stroke:#000000;stroke-width:0.5pt;stroke-dasharray:none" />
    <g
       transform="translate(187.621,266.038)"
       id="g171">
      <g
         id="g173">
        <text
           x="0"
           y="0"
           font-size="10pt"
           id="text175"
           style="font-size:12.5px;text-anchor:end;fill:#000000;font-family:Helvetica">0.5</text>
      </g>
    </g>
    <g
       transform="translate(187.621,226.767)"
       id="g177">
      <g
         id="g179">
        <text
           x="0"
           y="0"
           font-size="10pt"
           id="text181"
           style="font-size:12.5px;text-anchor:end;fill:#000000;font-family:Helvetica">0.6</text>
      </g>
    </g>
    <g
       transform="translate(187.621,187.496)"
       id="g183">
      <g
         id="g185">
        <text
           x="0"
           y="0"
           font-size="10pt"
           id="text187"
           style="font-size:12.5px;text-anchor:end;fill:#000000;font-family:Helvetica">0.7</text>
      </g>
    </g>
    <g
       transform="translate(187.621,148.225)"
       id="g189">
      <g
         id="g191">
        <text
           x="0"
           y="0"
           font-size="10pt"
           id="text193"
           style="font-size:12.5px;text-anchor:end;fill:#000000;font-family:Helvetica">0.8</text>
      </g>
    </g>
    <g
       transform="translate(187.621,108.954)"
       id="g195">
      <g
         id="g197">
        <text
           x="0"
           y="0"
           font-size="10pt"
           id="text199"
           style="font-size:12.5px;text-anchor:end;fill:#000000;font-family:Helvetica">0.9</text>
      </g>
    </g>
    <g
       transform="translate(187.621,69.683)"
       id="g201">
      <g
         id="g203">
        <text
           x="0"
           y="0"
           font-size="10pt"
           id="text205"
           style="font-size:12.5px;text-anchor:end;fill:#000000;font-family:Helvetica">1</text>
      </g>
    </g>
    <g
       transform="translate(187.621,30.412)"
       id="g207">
      <g
         id="g209">
        <text
           x="0"
           y="0"
           font-size="10pt"
           id="text211"
           style="font-size:12.5px;text-anchor:end;fill:#000000;font-family:Helvetica">1.1</text>
      </g>
    </g>
    <polyline
       points="192.804,283.020 192.804,280.428 "
       id="polyline213"
       style="fill:none;stroke:#000000;stroke-width:0.5pt;stroke-dasharray:none" />
    <polyline
       points="192.804,283.020 192.804,280.428 "
       id="polyline215"
       style="fill:none;stroke:#000000;stroke-width:0.5pt;stroke-dasharray:none" />
    <polyline
       points="192.804,283.020 192.804,280.428 "
       id="polyline217"
       style="fill:none;stroke:#000000;stroke-width:0.5pt;stroke-dasharray:none" />
    <polyline
       points="192.804,283.020 192.804,283.020 "
       id="polyline219"
       style="fill:none;stroke:#000000;stroke-width:0.5pt;stroke-dasharray:none" />
  </g>
  <polygon
     points="575.25,23.85 575.25,283.02 834.42,283.02 834.42,23.85 "
     id="polygon225"
     style="fill:#ffffff;fill-opacity:1;stroke:none"
     transform="translate(-156.236,-21.5495)" />
  <polygon
     points="575.25,23.85 575.25,23.85 834.42,23.85 834.42,23.85 "
     id="polygon227"
     style="fill:#ffffff;fill-opacity:1;stroke:none"
     transform="translate(-156.236,-21.5495)" />
  <polygon
     points="575.25,23.85 575.25,283.02 575.25,283.02 575.25,23.85 "
     id="polygon229"
     style="fill:#ffffff;fill-opacity:1;stroke:none"
     transform="translate(-156.236,-21.5495)" />
  <g
     clip-path="url(#ID000017)"
     id="ID000018"
     transform="translate(-156.236,-21.5495)">
    <polyline
       style="fill:none;stroke:#8e8ecc;stroke-width:2pt;stroke-dasharray:none"
       id="polyline234"
       points="575.250,107.855 575.941,107.962 576.632,108.273 577.323,108.770 578.014,109.437 578.706,110.255 579.397,111.211 580.088,112.291 580.779,113.480 581.470,114.766 582.161,116.138 582.852,117.585 583.543,119.096 584.235,120.662 584.926,122.274 585.617,123.924 586.308,125.605 586.999,127.308 587.690,129.027 588.381,130.757 589.072,132.491 589.764,134.224 590.455,135.952 591.146,137.670 591.837,139.374 592.528,141.060 593.219,142.725 593.910,144.366 594.601,145.980 595.292,147.564 595.984,149.116 596.675,150.634 597.366,152.117 598.057,153.562 598.748,154.969 599.439,156.336 600.130,157.661 600.821,158.945 601.513,160.186 602.204,161.383 602.895,162.537 603.586,163.647 604.277,164.713 604.968,165.734 605.659,166.711 606.350,167.643 607.042,168.531 607.733,169.375 608.424,170.175 609.115,170.932 609.806,171.645 610.497,172.317 611.188,172.946 611.879,173.533 612.570,174.080 613.262,174.587 613.953,175.054 614.644,175.482 615.335,175.872 616.026,176.224 616.717,176.540 617.408,176.820 618.099,177.065 618.791,177.276 619.482,177.454 620.173,177.599 620.864,177.712 621.555,177.794 622.246,177.846 622.937,177.869 623.628,177.864 624.320,177.831 625.011,177.771 625.702,177.686 626.393,177.575 627.084,177.441 627.775,177.282 628.466,177.102 629.157,176.899 629.848,176.675 630.540,176.432 631.231,176.168 631.922,175.886 632.613,175.586 633.304,175.268 633.995,174.934 634.686,174.585 635.377,174.220 636.069,173.840 636.760,173.447 637.451,173.040 638.142,172.621 638.833,172.190 639.524,171.748 640.215,171.295 640.906,170.831 641.598,170.359 642.289,169.877 642.980,169.386 643.671,168.888 644.362,168.382 645.053,167.869 645.744,167.350 646.435,166.825 647.126,166.294 647.818,165.758 648.509,165.217 649.200,164.672 649.891,164.123 650.582,163.571 651.273,163.015 651.964,162.457 652.655,161.897 653.347,161.334 654.038,160.770 654.729,160.204 655.420,159.637 656.111,159.069 656.802,158.501 657.493,157.933 658.184,157.365 658.876,156.797 659.567,156.229 660.258,155.663 660.949,155.097 661.640,154.533 662.331,153.970 663.022,153.409 663.713,152.849 664.404,152.292 665.096,151.737 665.787,151.184 666.478,150.634 667.169,150.086 667.860,149.541 668.551,148.999 669.242,148.461 669.933,147.925 670.625,147.393 671.316,146.865 672.007,146.340 672.698,145.818 673.389,145.301 674.080,144.787 674.771,144.277 675.462,143.772 676.154,143.270 676.845,142.772 677.536,142.279 678.227,141.790 678.918,141.306 679.609,140.825 680.300,140.350 680.991,139.879 681.682,139.412 682.374,138.950 683.065,138.492 683.756,138.039 684.447,137.591 685.138,137.147 685.829,136.708 686.520,136.274 687.211,135.845 687.903,135.420 688.594,135.000 689.285,134.584 689.976,134.174 690.667,133.768 691.358,133.367 692.049,132.971 692.740,132.579 693.432,132.192 694.123,131.810 694.814,131.432 695.505,131.059 696.196,130.691 696.887,130.328 697.578,129.969 698.269,129.614 698.960,129.265 699.652,128.919 700.343,128.579 701.034,128.242 701.725,127.911 702.416,127.583 703.107,127.261 703.798,126.942 704.489,126.628 705.181,126.318 705.872,126.013 706.563,125.712 707.254,125.415 707.945,125.122 708.636,124.833 709.327,124.548 710.018,124.268 710.710,123.992 711.401,123.719 712.092,123.451 712.783,123.186 713.474,122.926 714.165,122.669 714.856,122.416 715.547,122.167 716.238,121.921 716.930,121.679 717.621,121.441 718.312,121.207 719.003,120.976 719.694,120.749 720.385,120.525 721.076,120.304 721.767,120.087 722.459,119.874 723.150,119.664 723.841,119.457 724.532,119.253 725.223,119.052 725.914,118.855 726.605,118.661 727.296,118.470 727.988,118.282 728.679,118.097 729.370,117.915 730.061,117.735 730.752,117.559 731.443,117.386 732.134,117.215 732.825,117.048 733.516,116.883 734.208,116.721 734.899,116.561 735.590,116.404 736.281,116.250 736.972,116.098 737.663,115.949 738.354,115.802 739.045,115.658 739.737,115.516 740.428,115.376 741.119,115.239 741.810,115.104 742.501,114.972 743.192,114.842 743.883,114.714 744.574,114.588 745.266,114.464 745.957,114.343 746.648,114.223 747.339,114.106 748.030,113.990 748.721,113.877 749.412,113.765 750.103,113.656 750.794,113.548 751.486,113.443 752.177,113.339 752.868,113.237 753.559,113.136 754.250,113.038 754.941,112.941 755.632,112.846 756.323,112.753 757.015,112.661 757.706,112.571 758.397,112.482 759.088,112.396 759.779,112.310 760.470,112.226 761.161,112.144 761.852,112.063 762.544,111.984 763.235,111.906 763.926,111.829 764.617,111.754 765.308,111.680 765.999,111.607 766.690,111.536 767.381,111.466 768.072,111.398 768.764,111.330 769.455,111.264 770.146,111.199 770.837,111.135 771.528,111.073 772.219,111.011 772.910,110.951 773.601,110.892 774.293,110.833 774.984,110.776 775.675,110.720 776.366,110.665 777.057,110.611 777.748,110.558 778.439,110.506 779.130,110.455 779.822,110.405 780.513,110.356 781.204,110.308 781.895,110.260 782.586,110.214 783.277,110.168 783.968,110.123 784.659,110.080 785.350,110.036 786.042,109.994 786.733,109.953 787.424,109.912 788.115,109.872 788.806,109.833 789.497,109.794 790.188,109.757 790.879,109.720 791.571,109.683 792.262,109.648 792.953,109.613 793.644,109.578 794.335,109.545 795.026,109.512 795.717,109.479 796.408,109.447 797.100,109.416 797.791,109.386 798.482,109.356 799.173,109.326 799.864,109.297 800.555,109.269 801.246,109.241 801.937,109.214 802.628,109.187 803.320,109.161 804.011,109.135 804.702,109.110 805.393,109.085 806.084,109.061 806.775,109.037 807.466,109.014 808.157,108.991 808.849,108.969 809.540,108.947 810.231,108.925 810.922,108.904 811.613,108.883 812.304,108.863 812.995,108.843 813.686,108.823 814.378,108.804 815.069,108.785 815.760,108.767 816.451,108.749 817.142,108.731 817.833,108.714 818.524,108.696 819.215,108.680 819.906,108.663 820.598,108.647 821.289,108.631 821.980,108.616 822.671,108.601 823.362,108.586 824.053,108.571 824.744,108.557 825.435,108.543 826.127,108.529 826.818,108.516 827.509,108.503 828.200,108.490 828.891,108.477 829.582,108.465 830.273,108.452 830.964,108.440 831.656,108.429 832.347,108.417 833.038,108.406 833.729,108.395 834.420,108.384 " />
    <g
       id="g236" />
  </g>
  <g
     id="ID000019"
     transform="translate(-156.236,-21.5495)">
    <g
       id="g239"
       transform="translate(704.335,318.037)">
      <g
         id="g241">
        <text
           style="font-size:12.5px;text-anchor:middle;fill:#000000;font-family:Helvetica"
           id="text243"
           font-size="10pt"
           y="0"
           x="0">time (s)</text>
      </g>
    </g>
  </g>
  <g
     id="ID000020"
     transform="translate(-156.236,-21.5495)">
    <g
       id="g246"
       transform="translate(539.728,154.436)">
      <g
         id="g248"
         transform="matrix(0,-1,1,0,0,0)">
        <text
           style="font-size:12.5px;text-anchor:middle;fill:#000000;font-family:Helvetica"
           id="text250"
           font-size="10pt"
           y="0"
           x="0">
          <tspan
             id="tspan252">\dot</tspan>
          <tspan
             id="tspan254">y</tspan>
          <tspan
             id="tspan256" />
        </text>
      </g>
    </g>
  </g>
  <g
     clip-path="url(#ID000017)"
     id="ID000023"
     transform="translate(-156.236,-21.5495)">
    <polyline
       style="fill:none;stroke:#8ecccc;stroke-width:2pt;stroke-dasharray:none"
       id="polyline285"
       points="575.250,107.855 575.941,114.548 576.632,120.427 577.323,125.394 578.014,129.441 578.706,132.556 579.397,134.728 580.088,135.951 580.779,136.224 581.470,135.554 582.161,133.962 582.852,131.487 583.543,128.181 584.235,124.120 584.926,119.397 585.617,114.121 586.308,108.417 586.999,102.415 587.690,96.250 588.381,90.055 589.072,83.954 589.764,78.060 590.455,72.472 591.146,67.275 591.837,62.539 592.528,58.318 593.219,54.653 593.910,51.576 594.601,49.106 595.292,47.258 595.984,46.038 596.675,45.448 597.366,45.485 598.057,46.146 598.748,47.420 599.439,49.297 600.130,51.760 600.821,54.788 601.513,58.355 602.204,62.428 602.895,66.966 603.586,71.923 604.277,77.243 604.968,82.868 605.659,88.731 606.350,94.769 607.042,100.913 607.733,107.103 608.424,113.277 609.115,119.383 609.806,125.374 610.497,131.211 611.188,136.861 611.879,142.298 612.570,147.503 613.262,152.460 613.953,157.160 614.644,161.596 615.335,165.766 616.026,169.669 616.717,173.307 617.408,176.683 618.099,179.801 618.791,182.667 619.482,185.288 620.173,187.671 620.864,189.825 621.555,191.760 622.246,193.485 622.937,195.012 623.628,196.352 624.320,197.518 625.011,198.522 625.702,199.377 626.393,200.095 627.084,200.688 627.775,201.168 628.466,201.545 629.157,201.829 629.848,202.028 630.540,202.151 631.231,202.204 631.922,202.193 632.613,202.125 633.304,202.003 633.995,201.833 634.686,201.619 635.377,201.363 636.069,201.069 636.760,200.740 637.451,200.379 638.142,199.989 638.833,199.570 639.524,199.126 640.215,198.657 640.906,198.166 641.598,197.654 642.289,197.122 642.980,196.569 643.671,195.998 644.362,195.409 645.053,194.802 645.744,194.177 646.435,193.535 647.126,192.877 647.818,192.201 648.509,191.510 649.200,190.803 649.891,190.082 650.582,189.345 651.273,188.595 651.964,187.832 652.655,187.056 653.347,186.268 654.038,185.468 654.729,184.658 655.420,183.838 656.111,183.007 656.802,182.168 657.493,181.321 658.184,180.466 658.876,179.604 659.567,178.735 660.258,177.862 660.949,176.984 661.640,176.102 662.331,175.218 663.022,174.333 663.713,173.447 664.404,172.563 665.096,171.681 665.787,170.802 666.478,169.928 667.169,169.059 667.860,168.195 668.551,167.338 669.242,166.488 669.933,165.646 670.625,164.811 671.316,163.985 672.007,163.166 672.698,162.356 673.389,161.555 674.080,160.762 674.771,159.978 675.462,159.202 676.154,158.435 676.845,157.677 677.536,156.926 678.227,156.185 678.918,155.451 679.609,154.726 680.300,154.010 680.991,153.302 681.682,152.602 682.374,151.911 683.065,151.228 683.756,150.554 684.447,149.888 685.138,149.231 685.829,148.582 686.520,147.943 687.211,147.311 687.903,146.689 688.594,146.074 689.285,145.469 689.976,144.871 690.667,144.283 691.358,143.702 692.049,143.130 692.740,142.565 693.432,142.009 694.123,141.461 694.814,140.920 695.505,140.387 696.196,139.862 696.887,139.344 697.578,138.834 698.269,138.331 698.960,137.836 699.652,137.348 700.343,136.866 701.034,136.392 701.725,135.925 702.416,135.464 703.107,135.010 703.798,134.563 704.489,134.123 705.181,133.688 705.872,133.261 706.563,132.839 707.254,132.424 707.945,132.015 708.636,131.612 709.327,131.215 710.018,130.824 710.710,130.439 711.401,130.060 712.092,129.686 712.783,129.318 713.474,128.956 714.165,128.598 714.856,128.247 715.547,127.900 716.238,127.559 716.930,127.223 717.621,126.892 718.312,126.566 719.003,126.246 719.694,125.930 720.385,125.619 721.076,125.312 721.767,125.011 722.459,124.714 723.150,124.422 723.841,124.135 724.532,123.852 725.223,123.573 725.914,123.299 726.605,123.030 727.296,122.765 727.988,122.504 728.679,122.247 729.370,121.995 730.061,121.747 730.752,121.503 731.443,121.262 732.134,121.026 732.825,120.794 733.516,120.566 734.208,120.341 734.899,120.120 735.590,119.903 736.281,119.690 736.972,119.480 737.663,119.274 738.354,119.071 739.045,118.872 739.737,118.676 740.428,118.483 741.119,118.294 741.810,118.107 742.501,117.924 743.192,117.744 743.883,117.567 744.574,117.393 745.266,117.222 745.957,117.053 746.648,116.888 747.339,116.725 748.030,116.565 748.721,116.407 749.412,116.252 750.103,116.100 750.794,115.950 751.486,115.803 752.177,115.658 752.868,115.516 753.559,115.376 754.250,115.239 754.941,115.103 755.632,114.970 756.323,114.840 757.015,114.711 757.706,114.585 758.397,114.461 759.088,114.339 759.779,114.219 760.470,114.102 761.161,113.986 761.852,113.872 762.544,113.761 763.235,113.651 763.926,113.543 764.617,113.437 765.308,113.333 765.999,113.231 766.690,113.130 767.381,113.032 768.072,112.935 768.764,112.839 769.455,112.746 770.146,112.654 770.837,112.564 771.528,112.475 772.219,112.388 772.910,112.303 773.601,112.219 774.293,112.136 774.984,112.055 775.675,111.976 776.366,111.898 777.057,111.821 777.748,111.746 778.439,111.672 779.130,111.599 779.822,111.528 780.513,111.458 781.204,111.389 781.895,111.322 782.586,111.255 783.277,111.190 783.968,111.127 784.659,111.064 785.350,111.003 786.042,110.942 786.733,110.883 787.424,110.825 788.115,110.768 788.806,110.712 789.497,110.657 790.188,110.603 790.879,110.550 791.571,110.498 792.262,110.447 792.953,110.397 793.644,110.347 794.335,110.299 795.026,110.252 795.717,110.205 796.408,110.160 797.100,110.115 797.791,110.071 798.482,110.028 799.173,109.986 799.864,109.945 800.555,109.904 801.246,109.864 801.937,109.825 802.628,109.786 803.320,109.749 804.011,109.712 804.702,109.676 805.393,109.640 806.084,109.605 806.775,109.571 807.466,109.537 808.157,109.504 808.849,109.472 809.540,109.440 810.231,109.409 810.922,109.379 811.613,109.349 812.304,109.319 812.995,109.290 813.686,109.262 814.378,109.235 815.069,109.207 815.760,109.181 816.451,109.155 817.142,109.129 817.833,109.104 818.524,109.079 819.215,109.055 819.906,109.031 820.598,109.008 821.289,108.985 821.980,108.963 822.671,108.941 823.362,108.919 824.053,108.898 824.744,108.878 825.435,108.857 826.127,108.837 826.818,108.818 827.509,108.799 828.200,108.780 828.891,108.762 829.582,108.744 830.273,108.726 830.964,108.708 831.656,108.691 832.347,108.675 833.038,108.658 833.729,108.642 834.420,108.627 " />
    <g
       id="g287" />
  </g>
  <g
     clip-path="url(#ID000017)"
     id="ID000026"
     transform="translate(-156.236,-21.5495)">
    <polyline
       style="fill:none;stroke:#cccc8e;stroke-width:2pt;stroke-dasharray:none"
       id="polyline316"
       points="575.250,107.855 575.941,121.869 576.632,135.065 577.323,147.320 578.014,158.691 578.706,169.231 579.397,178.990 580.088,188.016 580.779,196.354 581.470,204.046 582.161,211.130 582.852,217.642 583.543,223.614 584.235,229.073 584.926,234.045 585.617,238.550 586.308,242.607 586.999,246.233 587.690,249.440 588.381,252.243 589.072,254.652 589.764,256.678 590.455,258.332 591.146,259.623 591.837,260.563 592.528,261.160 593.219,261.423 593.910,261.360 594.601,260.979 595.292,260.286 595.984,259.288 596.675,257.989 597.366,256.394 598.057,254.507 598.748,252.333 599.439,249.876 600.130,247.143 600.821,244.143 601.513,240.888 602.204,237.394 602.895,233.682 603.586,229.775 604.277,225.705 604.968,221.503 605.659,217.207 606.350,212.853 607.042,208.479 607.733,204.122 608.424,199.816 609.115,195.591 609.806,191.474 610.497,187.487 611.188,183.651 611.879,179.978 612.570,176.481 613.262,173.168 613.953,170.045 614.644,167.115 615.335,164.382 616.026,161.845 616.717,159.504 617.408,157.358 618.099,155.406 618.791,153.643 619.482,152.066 620.173,150.669 620.864,149.445 621.555,148.387 622.246,147.482 622.937,146.721 623.628,146.089 624.320,145.571 625.011,145.151 625.702,144.814 626.393,144.544 627.084,144.324 627.775,144.141 628.466,143.981 629.157,143.834 629.848,143.688 630.540,143.536 631.231,143.370 631.922,143.184 632.613,142.974 633.304,142.737 633.995,142.468 634.686,142.166 635.377,141.829 636.069,141.456 636.760,141.044 637.451,140.594 638.142,140.106 638.833,139.580 639.524,139.016 640.215,138.417 640.906,137.784 641.598,137.120 642.289,136.430 642.980,135.717 643.671,134.987 644.362,134.244 645.053,133.496 645.744,132.745 646.435,131.999 647.126,131.262 647.818,130.537 648.509,129.829 649.200,129.140 649.891,128.472 650.582,127.829 651.273,127.210 651.964,126.616 652.655,126.049 653.347,125.508 654.038,124.993 654.729,124.504 655.420,124.041 656.111,123.603 656.802,123.189 657.493,122.799 658.184,122.432 658.876,122.088 659.567,121.764 660.258,121.460 660.949,121.176 661.640,120.909 662.331,120.659 663.022,120.424 663.713,120.203 664.404,119.994 665.096,119.797 665.787,119.609 666.478,119.431 667.169,119.261 667.860,119.098 668.551,118.942 669.242,118.791 669.933,118.646 670.625,118.505 671.316,118.369 672.007,118.237 672.698,118.110 673.389,117.986 674.080,117.866 674.771,117.750 675.462,117.638 676.154,117.530 676.845,117.426 677.536,117.325 678.227,117.228 678.918,117.135 679.609,117.045 680.300,116.958 680.991,116.874 681.682,116.792 682.374,116.711 683.065,116.633 683.756,116.555 684.447,116.478 685.138,116.400 685.829,116.323 686.520,116.244 687.211,116.165 687.903,116.084 688.594,116.003 689.285,115.920 689.976,115.835 690.667,115.749 691.358,115.661 692.049,115.573 692.740,115.482 693.432,115.391 694.123,115.298 694.814,115.204 695.505,115.110 696.196,115.014 696.887,114.918 697.578,114.821 698.269,114.723 698.960,114.625 699.652,114.527 700.343,114.429 701.034,114.330 701.725,114.232 702.416,114.133 703.107,114.035 703.798,113.938 704.489,113.840 705.181,113.744 705.872,113.648 706.563,113.552 707.254,113.457 707.945,113.363 708.636,113.270 709.327,113.178 710.018,113.087 710.710,112.997 711.401,112.907 712.092,112.819 712.783,112.732 713.474,112.646 714.165,112.561 714.856,112.478 715.547,112.395 716.238,112.314 716.930,112.234 717.621,112.155 718.312,112.077 719.003,112.000 719.694,111.925 720.385,111.850 721.076,111.777 721.767,111.705 722.459,111.634 723.150,111.564 723.841,111.495 724.532,111.427 725.223,111.360 725.914,111.294 726.605,111.230 727.296,111.166 727.988,111.102 728.679,111.040 729.370,110.979 730.061,110.919 730.752,110.859 731.443,110.801 732.134,110.743 732.825,110.686 733.516,110.630 734.208,110.575 734.899,110.521 735.590,110.468 736.281,110.415 736.972,110.363 737.663,110.312 738.354,110.262 739.045,110.213 739.737,110.164 740.428,110.117 741.119,110.070 741.810,110.024 742.501,109.979 743.192,109.935 743.883,109.891 744.574,109.848 745.266,109.807 745.957,109.766 746.648,109.725 747.339,109.686 748.030,109.647 748.721,109.609 749.412,109.572 750.103,109.536 750.794,109.500 751.486,109.466 752.177,109.431 752.868,109.398 753.559,109.365 754.250,109.333 754.941,109.302 755.632,109.271 756.323,109.241 757.015,109.211 757.706,109.183 758.397,109.154 759.088,109.127 759.779,109.100 760.470,109.073 761.161,109.047 761.852,109.022 762.544,108.997 763.235,108.972 763.926,108.948 764.617,108.925 765.308,108.902 765.999,108.880 766.690,108.858 767.381,108.836 768.072,108.815 768.764,108.795 769.455,108.775 770.146,108.755 770.837,108.736 771.528,108.717 772.219,108.698 772.910,108.680 773.601,108.663 774.293,108.645 774.984,108.628 775.675,108.612 776.366,108.595 777.057,108.580 777.748,108.564 778.439,108.549 779.130,108.534 779.822,108.519 780.513,108.505 781.204,108.491 781.895,108.477 782.586,108.464 783.277,108.451 783.968,108.438 784.659,108.426 785.350,108.413 786.042,108.401 786.733,108.389 787.424,108.378 788.115,108.367 788.806,108.356 789.497,108.345 790.188,108.334 790.879,108.324 791.571,108.314 792.262,108.304 792.953,108.294 793.644,108.285 794.335,108.276 795.026,108.267 795.717,108.258 796.408,108.249 797.100,108.241 797.791,108.232 798.482,108.224 799.173,108.216 799.864,108.208 800.555,108.201 801.246,108.193 801.937,108.186 802.628,108.179 803.320,108.172 804.011,108.165 804.702,108.158 805.393,108.152 806.084,108.146 806.775,108.139 807.466,108.133 808.157,108.127 808.849,108.121 809.540,108.116 810.231,108.110 810.922,108.104 811.613,108.099 812.304,108.094 812.995,108.089 813.686,108.084 814.378,108.079 815.069,108.074 815.760,108.069 816.451,108.065 817.142,108.060 817.833,108.056 818.524,108.051 819.215,108.047 819.906,108.043 820.598,108.039 821.289,108.035 821.980,108.031 822.671,108.027 823.362,108.024 824.053,108.020 824.744,108.016 825.435,108.013 826.127,108.010 826.818,108.006 827.509,108.003 828.200,108.000 828.891,107.997 829.582,107.994 830.273,107.991 830.964,107.988 831.656,107.985 832.347,107.982 833.038,107.979 833.729,107.977 834.420,107.974 " />
    <g
       id="g318" />
  </g>
  <g
     id="ID000029"
     transform="translate(-156.236,-21.5495)" />
  <g
     id="g347"
     transform="translate(-156.236,-21.5495)">
    <polyline
       points="575.250,283.020 575.250,280.113 "
       id="polyline349"
       style="fill:none;stroke:#000000;stroke-width:0.5pt;stroke-dasharray:none" />
    <polyline
       points="661.640,283.020 661.640,280.113 "
       id="polyline351"
       style="fill:none;stroke:#000000;stroke-width:0.5pt;stroke-dasharray:none" />
    <polyline
       points="748.030,283.020 748.030,280.113 "
       id="polyline353"
       style="fill:none;stroke:#000000;stroke-width:0.5pt;stroke-dasharray:none" />
    <polyline
       points="834.420,283.020 834.420,280.113 "
       id="polyline355"
       style="fill:none;stroke:#000000;stroke-width:0.5pt;stroke-dasharray:none" />
    <polyline
       points="575.250,283.020 834.420,283.020 "
       id="polyline357"
       style="fill:none;stroke:#000000;stroke-width:0.5pt;stroke-dasharray:none" />
    <g
       transform="translate(575.25,300.003)"
       id="g359">
      <g
         id="g361">
        <text
           x="0"
           y="0"
           font-size="10pt"
           id="text363"
           style="font-size:12.5px;text-anchor:middle;fill:#000000;font-family:Helvetica">0</text>
      </g>
    </g>
    <g
       transform="translate(661.64,300.003)"
       id="g365">
      <g
         id="g367">
        <text
           x="0"
           y="0"
           font-size="10pt"
           id="text369"
           style="font-size:12.5px;text-anchor:middle;fill:#000000;font-family:Helvetica">0.5</text>
      </g>
    </g>
    <g
       transform="translate(748.03,300.003)"
       id="g371">
      <g
         id="g373">
        <text
           x="0"
           y="0"
           font-size="10pt"
           id="text375"
           style="font-size:12.5px;text-anchor:middle;fill:#000000;font-family:Helvetica">1</text>
      </g>
    </g>
    <g
       transform="translate(834.42,300.003)"
       id="g377">
      <g
         id="g379">
        <text
           x="0"
           y="0"
           font-size="10pt"
           id="text381"
           style="font-size:12.5px;text-anchor:middle;fill:#000000;font-family:Helvetica">1.5</text>
      </g>
    </g>
    <polyline
       points="575.250,256.342 577.842,256.342 "
       id="polyline383"
       style="fill:none;stroke:#000000;stroke-width:0.5pt;stroke-dasharray:none" />
    <polyline
       points="575.250,182.098 577.842,182.098 "
       id="polyline385"
       style="fill:none;stroke:#000000;stroke-width:0.5pt;stroke-dasharray:none" />
    <polyline
       points="575.250,107.855 577.842,107.855 "
       id="polyline387"
       style="fill:none;stroke:#000000;stroke-width:0.5pt;stroke-dasharray:none" />
    <polyline
       points="575.250,33.612 577.842,33.612 "
       id="polyline389"
       style="fill:none;stroke:#000000;stroke-width:0.5pt;stroke-dasharray:none" />
    <polyline
       points="575.250,283.020 575.250,23.850 "
       id="polyline391"
       style="fill:none;stroke:#000000;stroke-width:0.5pt;stroke-dasharray:none" />
    <g
       transform="translate(570.067,260.842)"
       id="g393">
      <g
         id="g395">
        <text
           x="0"
           y="0"
           font-size="10pt"
           id="text397"
           style="font-size:12.5px;text-anchor:end;fill:#000000;font-family:Helvetica">-1</text>
      </g>
    </g>
    <g
       transform="translate(570.067,186.598)"
       id="g399">
      <g
         id="g401">
        <text
           x="0"
           y="0"
           font-size="10pt"
           id="text403"
           style="font-size:12.5px;text-anchor:end;fill:#000000;font-family:Helvetica">-0.5</text>
      </g>
    </g>
    <g
       transform="translate(570.067,112.355)"
       id="g405">
      <g
         id="g407">
        <text
           x="0"
           y="0"
           font-size="10pt"
           id="text409"
           style="font-size:12.5px;text-anchor:end;fill:#000000;font-family:Helvetica">0</text>
      </g>
    </g>
    <g
       transform="translate(570.067,38.112)"
       id="g411">
      <g
         id="g413">
        <text
           x="0"
           y="0"
           font-size="10pt"
           id="text415"
           style="font-size:12.5px;text-anchor:end;fill:#000000;font-family:Helvetica">0.5</text>
      </g>
    </g>
    <polyline
       points="575.250,283.020 575.250,280.428 "
       id="polyline417"
       style="fill:none;stroke:#000000;stroke-width:0.5pt;stroke-dasharray:none" />
    <polyline
       points="575.250,283.020 575.250,280.428 "
       id="polyline419"
       style="fill:none;stroke:#000000;stroke-width:0.5pt;stroke-dasharray:none" />
    <polyline
       points="575.250,283.020 575.250,280.428 "
       id="polyline421"
       style="fill:none;stroke:#000000;stroke-width:0.5pt;stroke-dasharray:none" />
    <polyline
       points="575.250,283.020 575.250,283.020 "
       id="polyline423"
       style="fill:none;stroke:#000000;stroke-width:0.5pt;stroke-dasharray:none" />
  </g>
  <polygon
     points="957.696,23.85 957.696,283.02 1216.866,283.02 1216.866,23.85 "
     id="polygon429"
     style="fill:#ffffff;fill-opacity:1;stroke:none"
     transform="translate(-156.236,-21.5495)" />
  <polygon
     points="957.696,23.85 957.696,23.85 1216.866,23.85 1216.866,23.85 "
     id="polygon431"
     style="fill:#ffffff;fill-opacity:1;stroke:none"
     transform="translate(-156.236,-21.5495)" />
  <polygon
     points="957.696,23.85 957.696,283.02 957.696,283.02 957.696,23.85 "
     id="polygon433"
     style="fill:#ffffff;fill-opacity:1;stroke:none"
     transform="translate(-156.236,-21.5495)" />
  <g
     clip-path="url(#ID000031)"
     id="ID000032"
     transform="translate(-156.236,-21.5495)">
    <polyline
       style="fill:none;stroke:#8e8ecc;stroke-width:2pt;stroke-dasharray:none"
       id="polyline438"
       points="957.696,110.706 958.387,112.952 959.078,114.999 959.769,116.860 960.460,118.546 961.151,120.066 961.842,121.433 962.533,122.654 963.225,123.740 963.916,124.699 964.607,125.539 965.298,126.268 965.989,126.893 966.680,127.422 967.371,127.861 968.062,128.216 968.754,128.494 969.445,128.699 970.136,128.837 970.827,128.913 971.518,128.932 972.209,128.898 972.900,128.816 973.591,128.689 974.283,128.521 974.974,128.316 975.665,128.077 976.356,127.807 977.047,127.509 977.738,127.185 978.429,126.839 979.120,126.473 979.811,126.088 980.503,125.688 981.194,125.274 981.885,124.848 982.576,124.412 983.267,123.968 983.958,123.516 984.649,123.059 985.340,122.597 986.032,122.133 986.723,121.666 987.414,121.199 988.105,120.732 988.796,120.266 989.487,119.802 990.178,119.340 990.869,118.882 991.561,118.428 992.252,117.978 992.943,117.534 993.634,117.095 994.325,116.662 995.016,116.236 995.707,115.817 996.398,115.405 997.089,115.001 997.781,114.604 998.472,114.215 999.163,113.835 999.854,113.462 1000.545,113.098 1001.236,112.743 1001.927,112.397 1002.618,112.059 1003.310,111.730 1004.001,111.410 1004.692,111.098 1005.383,110.796 1006.074,110.502 1006.765,110.217 1007.456,109.941 1008.147,109.674 1008.839,109.415 1009.530,109.165 1010.221,108.923 1010.912,108.690 1011.603,108.465 1012.294,108.248 1012.985,108.039 1013.676,107.838 1014.367,107.645 1015.059,107.460 1015.750,107.282 1016.441,107.112 1017.132,106.949 1017.823,106.793 1018.514,106.644 1019.205,106.502 1019.896,106.367 1020.588,106.239 1021.279,106.117 1021.970,106.001 1022.661,105.891 1023.352,105.788 1024.043,105.690 1024.734,105.598 1025.425,105.511 1026.117,105.430 1026.808,105.354 1027.499,105.283 1028.190,105.218 1028.881,105.157 1029.572,105.101 1030.263,105.049 1030.954,105.002 1031.645,104.959 1032.337,104.920 1033.028,104.886 1033.719,104.855 1034.410,104.828 1035.101,104.805 1035.792,104.785 1036.483,104.769 1037.174,104.756 1037.866,104.746 1038.557,104.740 1039.248,104.736 1039.939,104.735 1040.630,104.737 1041.321,104.741 1042.012,104.748 1042.703,104.758 1043.395,104.770 1044.086,104.784 1044.777,104.800 1045.468,104.819 1046.159,104.839 1046.850,104.861 1047.541,104.885 1048.232,104.911 1048.923,104.939 1049.615,104.968 1050.306,104.998 1050.997,105.030 1051.688,105.064 1052.379,105.098 1053.070,105.134 1053.761,105.171 1054.452,105.209 1055.144,105.249 1055.835,105.289 1056.526,105.330 1057.217,105.372 1057.908,105.414 1058.599,105.458 1059.290,105.502 1059.981,105.547 1060.673,105.592 1061.364,105.638 1062.055,105.685 1062.746,105.732 1063.437,105.779 1064.128,105.827 1064.819,105.875 1065.510,105.923 1066.201,105.972 1066.893,106.021 1067.584,106.070 1068.275,106.119 1068.966,106.169 1069.657,106.219 1070.348,106.268 1071.039,106.318 1071.730,106.368 1072.422,106.417 1073.113,106.467 1073.804,106.517 1074.495,106.567 1075.186,106.616 1075.877,106.666 1076.568,106.715 1077.259,106.764 1077.951,106.813 1078.642,106.862 1079.333,106.911 1080.024,106.959 1080.715,107.007 1081.406,107.055 1082.097,107.103 1082.788,107.150 1083.479,107.198 1084.171,107.244 1084.862,107.291 1085.553,107.337 1086.244,107.383 1086.935,107.429 1087.626,107.474 1088.317,107.519 1089.008,107.563 1089.700,107.608 1090.391,107.651 1091.082,107.695 1091.773,107.738 1092.464,107.781 1093.155,107.823 1093.846,107.865 1094.537,107.906 1095.229,107.947 1095.920,107.988 1096.611,108.028 1097.302,108.068 1097.993,108.108 1098.684,108.147 1099.375,108.185 1100.066,108.224 1100.757,108.261 1101.449,108.299 1102.140,108.336 1102.831,108.372 1103.522,108.408 1104.213,108.444 1104.904,108.479 1105.595,108.514 1106.286,108.549 1106.978,108.583 1107.669,108.616 1108.360,108.649 1109.051,108.682 1109.742,108.714 1110.433,108.746 1111.124,108.778 1111.815,108.809 1112.507,108.840 1113.198,108.870 1113.889,108.900 1114.580,108.929 1115.271,108.958 1115.962,108.987 1116.653,109.015 1117.344,109.043 1118.035,109.071 1118.727,109.098 1119.418,109.125 1120.109,109.151 1120.800,109.177 1121.491,109.203 1122.182,109.228 1122.873,109.253 1123.564,109.278 1124.256,109.302 1124.947,109.326 1125.638,109.349 1126.329,109.372 1127.020,109.395 1127.711,109.417 1128.402,109.440 1129.093,109.461 1129.785,109.483 1130.476,109.504 1131.167,109.525 1131.858,109.545 1132.549,109.565 1133.240,109.585 1133.931,109.605 1134.622,109.624 1135.313,109.643 1136.005,109.662 1136.696,109.680 1137.387,109.698 1138.078,109.716 1138.769,109.733 1139.460,109.751 1140.151,109.768 1140.842,109.784 1141.534,109.801 1142.225,109.817 1142.916,109.833 1143.607,109.848 1144.298,109.864 1144.989,109.879 1145.680,109.894 1146.371,109.908 1147.063,109.923 1147.754,109.937 1148.445,109.951 1149.136,109.964 1149.827,109.978 1150.518,109.991 1151.209,110.004 1151.900,110.017 1152.591,110.029 1153.283,110.042 1153.974,110.054 1154.665,110.066 1155.356,110.077 1156.047,110.089 1156.738,110.100 1157.429,110.111 1158.120,110.122 1158.812,110.133 1159.503,110.144 1160.194,110.154 1160.885,110.164 1161.576,110.174 1162.267,110.184 1162.958,110.194 1163.649,110.203 1164.341,110.213 1165.032,110.222 1165.723,110.231 1166.414,110.240 1167.105,110.249 1167.796,110.257 1168.487,110.266 1169.178,110.274 1169.869,110.282 1170.561,110.290 1171.252,110.298 1171.943,110.305 1172.634,110.313 1173.325,110.320 1174.016,110.328 1174.707,110.335 1175.398,110.342 1176.090,110.349 1176.781,110.355 1177.472,110.362 1178.163,110.369 1178.854,110.375 1179.545,110.381 1180.236,110.387 1180.927,110.393 1181.619,110.399 1182.310,110.405 1183.001,110.411 1183.692,110.417 1184.383,110.422 1185.074,110.428 1185.765,110.433 1186.456,110.438 1187.147,110.443 1187.839,110.448 1188.530,110.453 1189.221,110.458 1189.912,110.463 1190.603,110.468 1191.294,110.472 1191.985,110.477 1192.676,110.481 1193.368,110.485 1194.059,110.490 1194.750,110.494 1195.441,110.498 1196.132,110.502 1196.823,110.506 1197.514,110.510 1198.205,110.514 1198.897,110.517 1199.588,110.521 1200.279,110.525 1200.970,110.528 1201.661,110.532 1202.352,110.535 1203.043,110.538 1203.734,110.542 1204.425,110.545 1205.117,110.548 1205.808,110.551 1206.499,110.554 1207.190,110.557 1207.881,110.560 1208.572,110.563 1209.263,110.566 1209.954,110.568 1210.646,110.571 1211.337,110.574 1212.028,110.576 1212.719,110.579 1213.410,110.581 1214.101,110.584 1214.792,110.586 1215.483,110.588 1216.175,110.591 1216.866,110.593 " />
    <g
       id="g440" />
  </g>
  <g
     id="ID000033"
     transform="translate(-156.236,-21.5495)">
    <g
       id="g443"
       transform="translate(1086.28,318.037)">
      <g
         id="g445">
        <text
           style="font-size:12.5px;text-anchor:middle;fill:#000000;font-family:Helvetica"
           id="text447"
           font-size="10pt"
           y="0"
           x="0">time (s)</text>
      </g>
    </g>
  </g>
  <g
     id="ID000034"
     transform="translate(-156.236,-21.5495)">
    <g
       id="g450"
       transform="translate(925.676,154.436)">
      <g
         id="g452"
         transform="matrix(0,-1,1,0,0,0)">
        <text
           style="font-size:12.5px;text-anchor:middle;fill:#000000;font-family:Helvetica"
           id="text454"
           font-size="10pt"
           y="0"
           x="0">
          <tspan
             id="tspan456">\ddot</tspan>
          <tspan
             id="tspan458">y</tspan>
          <tspan
             id="tspan460" />
        </text>
      </g>
    </g>
  </g>
  <g
     clip-path="url(#ID000031)"
     id="ID000037"
     transform="translate(-156.236,-21.5495)">
    <polyline
       style="fill:none;stroke:#8ecccc;stroke-width:2pt;stroke-dasharray:none"
       id="polyline489"
       points="957.696,184.813 958.387,177.220 959.078,167.699 959.769,158.082 960.460,148.351 961.151,138.502 961.842,128.553 962.533,118.552 963.225,108.581 963.916,98.754 964.607,89.224 965.298,80.170 965.989,71.792 966.680,64.297 967.371,57.877 968.062,52.695 968.754,48.865 969.445,46.449 970.136,45.448 970.827,45.805 971.518,47.419 972.209,50.156 972.900,53.861 973.591,58.371 974.283,63.530 974.974,69.192 975.665,75.227 976.356,81.528 977.047,88.002 977.738,94.577 978.429,101.196 979.120,107.813 979.811,114.391 980.503,120.896 981.194,127.294 981.885,133.546 982.576,139.608 983.267,145.424 983.958,150.930 984.649,156.051 985.340,160.712 986.032,164.837 986.723,168.356 987.414,171.218 988.105,173.390 988.796,174.863 989.487,175.651 990.178,175.791 990.869,175.339 991.561,174.360 992.252,172.927 992.943,171.117 993.634,169.000 994.325,166.645 995.016,164.111 995.707,161.450 996.398,158.706 997.089,155.915 997.781,153.108 998.472,150.307 999.163,147.533 999.854,144.800 1000.545,142.121 1001.236,139.507 1001.927,136.969 1002.618,134.515 1003.310,132.156 1004.001,129.900 1004.692,127.756 1005.383,125.732 1006.074,123.835 1006.765,122.070 1007.456,120.437 1008.147,118.936 1008.839,117.564 1009.530,116.315 1010.221,115.181 1010.912,114.153 1011.603,113.221 1012.294,112.377 1012.985,111.610 1013.676,110.913 1014.367,110.277 1015.059,109.696 1015.750,109.164 1016.441,108.675 1017.132,108.225 1017.823,107.811 1018.514,107.430 1019.205,107.077 1019.896,106.751 1020.588,106.449 1021.279,106.169 1021.970,105.908 1022.661,105.663 1023.352,105.433 1024.043,105.215 1024.734,105.006 1025.425,104.805 1026.117,104.610 1026.808,104.420 1027.499,104.234 1028.190,104.052 1028.881,103.873 1029.572,103.698 1030.263,103.527 1030.954,103.361 1031.645,103.201 1032.337,103.046 1033.028,102.897 1033.719,102.754 1034.410,102.618 1035.101,102.489 1035.792,102.366 1036.483,102.249 1037.174,102.139 1037.866,102.035 1038.557,101.937 1039.248,101.846 1039.939,101.762 1040.630,101.684 1041.321,101.614 1042.012,101.553 1042.703,101.501 1043.395,101.459 1044.086,101.429 1044.777,101.410 1045.468,101.403 1046.159,101.408 1046.850,101.426 1047.541,101.455 1048.232,101.495 1048.923,101.544 1049.615,101.602 1050.306,101.667 1050.997,101.739 1051.688,101.815 1052.379,101.896 1053.070,101.980 1053.761,102.066 1054.452,102.154 1055.144,102.242 1055.835,102.332 1056.526,102.422 1057.217,102.512 1057.908,102.602 1058.599,102.691 1059.290,102.781 1059.981,102.869 1060.673,102.958 1061.364,103.046 1062.055,103.134 1062.746,103.223 1063.437,103.311 1064.128,103.400 1064.819,103.489 1065.510,103.578 1066.201,103.668 1066.893,103.758 1067.584,103.848 1068.275,103.939 1068.966,104.029 1069.657,104.119 1070.348,104.209 1071.039,104.299 1071.730,104.387 1072.422,104.476 1073.113,104.563 1073.804,104.649 1074.495,104.735 1075.186,104.820 1075.877,104.904 1076.568,104.986 1077.259,105.068 1077.951,105.149 1078.642,105.229 1079.333,105.308 1080.024,105.385 1080.715,105.462 1081.406,105.538 1082.097,105.613 1082.788,105.687 1083.479,105.760 1084.171,105.832 1084.862,105.903 1085.553,105.974 1086.244,106.043 1086.935,106.112 1087.626,106.179 1088.317,106.246 1089.008,106.312 1089.700,106.377 1090.391,106.441 1091.082,106.505 1091.773,106.567 1092.464,106.629 1093.155,106.690 1093.846,106.750 1094.537,106.810 1095.229,106.868 1095.920,106.926 1096.611,106.983 1097.302,107.039 1097.993,107.094 1098.684,107.149 1099.375,107.203 1100.066,107.256 1100.757,107.309 1101.449,107.361 1102.140,107.413 1102.831,107.463 1103.522,107.514 1104.213,107.564 1104.904,107.613 1105.595,107.662 1106.286,107.710 1106.978,107.758 1107.669,107.805 1108.360,107.852 1109.051,107.898 1109.742,107.943 1110.433,107.988 1111.124,108.032 1111.815,108.076 1112.507,108.119 1113.198,108.162 1113.889,108.204 1114.580,108.246 1115.271,108.287 1115.962,108.327 1116.653,108.367 1117.344,108.406 1118.035,108.445 1118.727,108.483 1119.418,108.521 1120.109,108.557 1120.800,108.594 1121.491,108.629 1122.182,108.664 1122.873,108.699 1123.564,108.732 1124.256,108.765 1124.947,108.798 1125.638,108.830 1126.329,108.861 1127.020,108.891 1127.711,108.922 1128.402,108.951 1129.093,108.981 1129.785,109.009 1130.476,109.037 1131.167,109.065 1131.858,109.092 1132.549,109.119 1133.240,109.146 1133.931,109.172 1134.622,109.198 1135.313,109.223 1136.005,109.248 1136.696,109.273 1137.387,109.297 1138.078,109.321 1138.769,109.345 1139.460,109.368 1140.151,109.391 1140.842,109.414 1141.534,109.436 1142.225,109.458 1142.916,109.480 1143.607,109.501 1144.298,109.522 1144.989,109.543 1145.680,109.563 1146.371,109.583 1147.063,109.602 1147.754,109.622 1148.445,109.641 1149.136,109.660 1149.827,109.678 1150.518,109.696 1151.209,109.714 1151.900,109.732 1152.591,109.749 1153.283,109.766 1153.974,109.783 1154.665,109.799 1155.356,109.816 1156.047,109.832 1156.738,109.847 1157.429,109.863 1158.120,109.878 1158.812,109.893 1159.503,109.907 1160.194,109.922 1160.885,109.936 1161.576,109.950 1162.267,109.964 1162.958,109.977 1163.649,109.991 1164.341,110.004 1165.032,110.016 1165.723,110.029 1166.414,110.041 1167.105,110.054 1167.796,110.066 1168.487,110.077 1169.178,110.089 1169.869,110.100 1170.561,110.112 1171.252,110.123 1171.943,110.133 1172.634,110.144 1173.325,110.154 1174.016,110.165 1174.707,110.175 1175.398,110.185 1176.090,110.194 1176.781,110.204 1177.472,110.213 1178.163,110.222 1178.854,110.231 1179.545,110.240 1180.236,110.249 1180.927,110.258 1181.619,110.266 1182.310,110.274 1183.001,110.282 1183.692,110.290 1184.383,110.298 1185.074,110.306 1185.765,110.314 1186.456,110.321 1187.147,110.328 1187.839,110.335 1188.530,110.342 1189.221,110.349 1189.912,110.356 1190.603,110.363 1191.294,110.369 1191.985,110.376 1192.676,110.382 1193.368,110.388 1194.059,110.394 1194.750,110.400 1195.441,110.406 1196.132,110.412 1196.823,110.417 1197.514,110.423 1198.205,110.428 1198.897,110.434 1199.588,110.439 1200.279,110.444 1200.970,110.449 1201.661,110.454 1202.352,110.459 1203.043,110.464 1203.734,110.468 1204.425,110.473 1205.117,110.477 1205.808,110.482 1206.499,110.486 1207.190,110.490 1207.881,110.495 1208.572,110.499 1209.263,110.503 1209.954,110.507 1210.646,110.511 1211.337,110.514 1212.028,110.518 1212.719,110.522 1213.410,110.525 1214.101,110.529 1214.792,110.532 1215.483,110.536 1216.175,110.539 1216.866,110.542 " />
    <g
       id="g491" />
  </g>
  <g
     clip-path="url(#ID000031)"
     id="ID000040"
     transform="translate(-156.236,-21.5495)">
    <polyline
       style="fill:none;stroke:#cccc8e;stroke-width:2pt;stroke-dasharray:none"
       id="polyline520"
       points="957.696,261.422 958.387,254.417 959.078,244.240 959.769,234.661 960.460,225.655 961.151,217.193 961.842,209.250 962.533,201.794 963.225,194.795 963.916,188.220 964.607,182.033 965.298,176.199 965.989,170.678 966.680,165.434 967.371,160.431 968.062,155.635 968.754,151.020 969.445,146.561 970.136,142.241 970.827,138.047 971.518,133.971 972.209,130.008 972.900,126.152 973.591,122.401 974.283,118.751 974.974,115.198 975.665,111.735 976.356,108.355 977.047,105.050 977.738,101.811 978.429,98.629 979.120,95.496 979.811,92.407 980.503,89.362 981.194,86.364 981.885,83.426 982.576,80.567 983.267,77.816 983.958,75.210 984.649,72.794 985.340,70.616 986.032,68.725 986.723,67.165 987.414,65.973 988.105,65.170 988.796,64.766 989.487,64.755 990.178,65.116 990.869,65.818 991.561,66.824 992.252,68.090 992.943,69.572 993.634,71.229 994.325,73.022 995.016,74.918 995.707,76.888 996.398,78.907 997.089,80.957 997.781,83.021 998.472,85.087 999.163,87.146 999.854,89.186 1000.545,91.199 1001.236,93.175 1001.927,95.100 1002.618,96.962 1003.310,98.743 1004.001,100.425 1004.692,101.992 1005.383,103.423 1006.074,104.705 1006.765,105.824 1007.456,106.775 1008.147,107.555 1008.839,108.169 1009.530,108.626 1010.221,108.938 1010.912,109.120 1011.603,109.189 1012.294,109.160 1012.985,109.050 1013.676,108.873 1014.367,108.642 1015.059,108.366 1015.750,108.054 1016.441,107.715 1017.132,107.354 1017.823,106.975 1018.514,106.584 1019.205,106.184 1019.896,105.779 1020.588,105.375 1021.279,104.977 1021.970,104.591 1022.661,104.225 1023.352,103.886 1024.043,103.583 1024.734,103.323 1025.425,103.113 1026.117,102.958 1026.808,102.859 1027.499,102.818 1028.190,102.833 1028.881,102.901 1029.572,103.015 1030.263,103.170 1030.954,103.359 1031.645,103.577 1032.337,103.815 1033.028,104.070 1033.719,104.336 1034.410,104.608 1035.101,104.884 1035.792,105.160 1036.483,105.435 1037.174,105.706 1037.866,105.973 1038.557,106.233 1039.248,106.487 1039.939,106.732 1040.630,106.970 1041.321,107.197 1042.012,107.414 1042.703,107.620 1043.395,107.813 1044.086,107.993 1044.777,108.160 1045.468,108.313 1046.159,108.452 1046.850,108.577 1047.541,108.689 1048.232,108.789 1048.923,108.879 1049.615,108.958 1050.306,109.030 1050.997,109.094 1051.688,109.152 1052.379,109.205 1053.070,109.254 1053.761,109.300 1054.452,109.344 1055.144,109.386 1055.835,109.427 1056.526,109.468 1057.217,109.509 1057.908,109.549 1058.599,109.589 1059.290,109.629 1059.981,109.668 1060.673,109.706 1061.364,109.742 1062.055,109.776 1062.746,109.807 1063.437,109.833 1064.128,109.855 1064.819,109.873 1065.510,109.885 1066.201,109.892 1066.893,109.894 1067.584,109.893 1068.275,109.887 1068.966,109.878 1069.657,109.867 1070.348,109.854 1071.039,109.840 1071.730,109.825 1072.422,109.809 1073.113,109.794 1073.804,109.779 1074.495,109.764 1075.186,109.751 1075.877,109.738 1076.568,109.726 1077.259,109.715 1077.951,109.706 1078.642,109.697 1079.333,109.690 1080.024,109.684 1080.715,109.679 1081.406,109.675 1082.097,109.673 1082.788,109.671 1083.479,109.671 1084.171,109.672 1084.862,109.674 1085.553,109.677 1086.244,109.681 1086.935,109.686 1087.626,109.692 1088.317,109.699 1089.008,109.706 1089.700,109.715 1090.391,109.723 1091.082,109.732 1091.773,109.742 1092.464,109.752 1093.155,109.763 1093.846,109.774 1094.537,109.785 1095.229,109.797 1095.920,109.808 1096.611,109.820 1097.302,109.832 1097.993,109.845 1098.684,109.857 1099.375,109.870 1100.066,109.882 1100.757,109.894 1101.449,109.907 1102.140,109.919 1102.831,109.931 1103.522,109.943 1104.213,109.954 1104.904,109.965 1105.595,109.976 1106.286,109.987 1106.978,109.998 1107.669,110.008 1108.360,110.018 1109.051,110.028 1109.742,110.038 1110.433,110.048 1111.124,110.058 1111.815,110.067 1112.507,110.077 1113.198,110.086 1113.889,110.095 1114.580,110.104 1115.271,110.113 1115.962,110.122 1116.653,110.131 1117.344,110.140 1118.035,110.149 1118.727,110.158 1119.418,110.166 1120.109,110.175 1120.800,110.184 1121.491,110.192 1122.182,110.201 1122.873,110.210 1123.564,110.218 1124.256,110.227 1124.947,110.236 1125.638,110.244 1126.329,110.253 1127.020,110.262 1127.711,110.270 1128.402,110.279 1129.093,110.287 1129.785,110.296 1130.476,110.304 1131.167,110.312 1131.858,110.320 1132.549,110.328 1133.240,110.336 1133.931,110.343 1134.622,110.351 1135.313,110.358 1136.005,110.365 1136.696,110.372 1137.387,110.379 1138.078,110.386 1138.769,110.393 1139.460,110.399 1140.151,110.406 1140.842,110.412 1141.534,110.418 1142.225,110.424 1142.916,110.430 1143.607,110.436 1144.298,110.441 1144.989,110.447 1145.680,110.452 1146.371,110.458 1147.063,110.463 1147.754,110.468 1148.445,110.473 1149.136,110.478 1149.827,110.483 1150.518,110.487 1151.209,110.492 1151.900,110.496 1152.591,110.501 1153.283,110.505 1153.974,110.509 1154.665,110.514 1155.356,110.518 1156.047,110.522 1156.738,110.526 1157.429,110.529 1158.120,110.533 1158.812,110.537 1159.503,110.540 1160.194,110.544 1160.885,110.547 1161.576,110.551 1162.267,110.554 1162.958,110.557 1163.649,110.560 1164.341,110.564 1165.032,110.567 1165.723,110.570 1166.414,110.572 1167.105,110.575 1167.796,110.578 1168.487,110.581 1169.178,110.583 1169.869,110.586 1170.561,110.589 1171.252,110.591 1171.943,110.594 1172.634,110.596 1173.325,110.598 1174.016,110.601 1174.707,110.603 1175.398,110.605 1176.090,110.607 1176.781,110.609 1177.472,110.611 1178.163,110.614 1178.854,110.615 1179.545,110.617 1180.236,110.619 1180.927,110.621 1181.619,110.623 1182.310,110.625 1183.001,110.627 1183.692,110.628 1184.383,110.630 1185.074,110.632 1185.765,110.633 1186.456,110.635 1187.147,110.636 1187.839,110.638 1188.530,110.639 1189.221,110.641 1189.912,110.642 1190.603,110.643 1191.294,110.645 1191.985,110.646 1192.676,110.647 1193.368,110.649 1194.059,110.650 1194.750,110.651 1195.441,110.652 1196.132,110.653 1196.823,110.654 1197.514,110.656 1198.205,110.657 1198.897,110.658 1199.588,110.659 1200.279,110.660 1200.970,110.661 1201.661,110.662 1202.352,110.663 1203.043,110.664 1203.734,110.664 1204.425,110.665 1205.117,110.666 1205.808,110.667 1206.499,110.668 1207.190,110.669 1207.881,110.670 1208.572,110.670 1209.263,110.671 1209.954,110.672 1210.646,110.673 1211.337,110.673 1212.028,110.674 1212.719,110.675 1213.410,110.675 1214.101,110.676 1214.792,110.677 1215.483,110.677 1216.175,110.678 1216.866,110.678 " />
    <g
       id="g522" />
  </g>
  <g
     id="ID000043"
     transform="translate(-156.236,-21.5495)" />
  <g
     id="g551"
     transform="translate(-156.236,-21.5495)">
    <polyline
       points="957.696,283.020 957.696,280.113 "
       id="polyline553"
       style="fill:none;stroke:#000000;stroke-width:0.5pt;stroke-dasharray:none" />
    <polyline
       points="1044.086,283.020 1044.086,280.113 "
       id="polyline555"
       style="fill:none;stroke:#000000;stroke-width:0.5pt;stroke-dasharray:none" />
    <polyline
       points="1130.476,283.020 1130.476,280.113 "
       id="polyline557"
       style="fill:none;stroke:#000000;stroke-width:0.5pt;stroke-dasharray:none" />
    <polyline
       points="1216.866,283.020 1216.866,280.113 "
       id="polyline559"
       style="fill:none;stroke:#000000;stroke-width:0.5pt;stroke-dasharray:none" />
    <polyline
       points="957.696,283.020 1216.866,283.020 "
       id="polyline561"
       style="fill:none;stroke:#000000;stroke-width:0.5pt;stroke-dasharray:none" />
    <g
       transform="translate(957.696,300.003)"
       id="g563">
      <g
         id="g565">
        <text
           x="0"
           y="0"
           font-size="10pt"
           id="text567"
           style="font-size:12.5px;text-anchor:middle;fill:#000000;font-family:Helvetica">0</text>
      </g>
    </g>
    <g
       transform="translate(1044.086,300.003)"
       id="g569">
      <g
         id="g571">
        <text
           x="0"
           y="0"
           font-size="10pt"
           id="text573"
           style="font-size:12.5px;text-anchor:middle;fill:#000000;font-family:Helvetica">0.5</text>
      </g>
    </g>
    <g
       transform="translate(1130.476,300.003)"
       id="g575">
      <g
         id="g577">
        <text
           x="0"
           y="0"
           font-size="10pt"
           id="text579"
           style="font-size:12.5px;text-anchor:middle;fill:#000000;font-family:Helvetica">1</text>
      </g>
    </g>
    <g
       transform="translate(1216.866,300.003)"
       id="g581">
      <g
         id="g583">
        <text
           x="0"
           y="0"
           font-size="10pt"
           id="text585"
           style="font-size:12.5px;text-anchor:middle;fill:#000000;font-family:Helvetica">1.5</text>
      </g>
    </g>
    <polyline
       points="957.696,235.493 960.287,235.493 "
       id="polyline587"
       style="fill:none;stroke:#000000;stroke-width:0.5pt;stroke-dasharray:none" />
    <polyline
       points="957.696,173.099 960.287,173.099 "
       id="polyline589"
       style="fill:none;stroke:#000000;stroke-width:0.5pt;stroke-dasharray:none" />
    <polyline
       points="957.696,110.706 960.287,110.706 "
       id="polyline591"
       style="fill:none;stroke:#000000;stroke-width:0.5pt;stroke-dasharray:none" />
    <polyline
       points="957.696,48.312 960.287,48.312 "
       id="polyline593"
       style="fill:none;stroke:#000000;stroke-width:0.5pt;stroke-dasharray:none" />
    <polyline
       points="957.696,283.020 957.696,23.850 "
       id="polyline595"
       style="fill:none;stroke:#000000;stroke-width:0.5pt;stroke-dasharray:none" />
    <g
       transform="translate(952.512,239.993)"
       id="g597">
      <g
         id="g599">
        <text
           x="0"
           y="0"
           font-size="10pt"
           id="text601"
           style="font-size:12.5px;text-anchor:end;fill:#000000;font-family:Helvetica">-10</text>
      </g>
    </g>
    <g
       transform="translate(952.512,177.599)"
       id="g603">
      <g
         id="g605">
        <text
           x="0"
           y="0"
           font-size="10pt"
           id="text607"
           style="font-size:12.5px;text-anchor:end;fill:#000000;font-family:Helvetica">-5</text>
      </g>
    </g>
    <g
       transform="translate(952.512,115.206)"
       id="g609">
      <g
         id="g611">
        <text
           x="0"
           y="0"
           font-size="10pt"
           id="text613"
           style="font-size:12.5px;text-anchor:end;fill:#000000;font-family:Helvetica">0</text>
      </g>
    </g>
    <g
       transform="translate(952.512,52.812)"
       id="g615">
      <g
         id="g617">
        <text
           x="0"
           y="0"
           font-size="10pt"
           id="text619"
           style="font-size:12.5px;text-anchor:end;fill:#000000;font-family:Helvetica">5</text>
      </g>
    </g>
    <polyline
       points="957.696,283.020 957.696,280.428 "
       id="polyline621"
       style="fill:none;stroke:#000000;stroke-width:0.5pt;stroke-dasharray:none" />
    <polyline
       points="957.696,283.020 957.696,280.428 "
       id="polyline623"
       style="fill:none;stroke:#000000;stroke-width:0.5pt;stroke-dasharray:none" />
    <polyline
       points="957.696,283.020 957.696,280.428 "
       id="polyline625"
       style="fill:none;stroke:#000000;stroke-width:0.5pt;stroke-dasharray:none" />
    <polyline
       points="957.696,283.020 957.696,283.020 "
       id="polyline627"
       style="fill:none;stroke:#000000;stroke-width:0.5pt;stroke-dasharray:none" />
  </g>
  <g
     id="ID000044"
     transform="translate(-95.169547,-21.5495)">
    <clipPath
       id="ID000045">
      <rect
         id="rect631"
         height="66.25"
         width="177.5"
         y="27.25"
         x="234.25" />
    </clipPath>
    <polygon
       style="fill:#ffffff;fill-opacity:1;stroke:none"
       id="polygon633"
       points="411.75,27.25 234.25,27.25 234.25,93.5 411.75,93.5 " />
    <polygon
       style="fill:#ffffff;fill-opacity:1;stroke:none"
       id="polygon635"
       points="411.75,27.25 234.25,27.25 234.25,27.25 411.75,27.25 " />
    <polygon
       style="fill:#ffffff;fill-opacity:1;stroke:none"
       id="polygon637"
       points="234.25,27.25 234.25,27.25 234.25,93.5 234.25,93.5 " />
    <g
       id="g639">
      <g
         id="ID000046">
        <g
           id="g642"
           transform="translate(283.611,45.301)">
          <g
             id="g644">
            <text
               style="font-size:12.5px;text-anchor:start;fill:#000000;font-family:Helvetica"
               id="text646"
               font-size="10pt"
               y="0"
               x="0">DMP (no forcing term)</text>
          </g>
        </g>
      </g>
      <g
         clip-path="url(#ID000045)"
         id="ID000047">
        <polyline
           style="fill:none;stroke:#8e8ecc;stroke-width:2pt;stroke-dasharray:none"
           id="polyline649"
           points="241.750,39.750 279.250,39.750 " />
        <g
           id="g651" />
      </g>
      <g
         clip-path="url(#ID000045)"
         id="ID000048">
        <g
           id="g654" />
      </g>
      <g
         id="ID000049">
        <g
           id="g657"
           transform="translate(283.611,66.381)">
          <g
             id="g659">
            <text
               style="font-size:12.5px;text-anchor:start;fill:#000000;font-family:Helvetica"
               id="text661"
               font-size="10pt"
               y="0"
               x="0">DMP (forcing term 1)</text>
          </g>
        </g>
      </g>
      <g
         clip-path="url(#ID000045)"
         id="ID000050">
        <polyline
           style="fill:none;stroke:#8ecccc;stroke-width:2pt;stroke-dasharray:none"
           id="polyline664"
           points="241.750,60.375 279.250,60.375 " />
        <g
           id="g666" />
      </g>
      <g
         clip-path="url(#ID000045)"
         id="ID000051">
        <g
           id="g669" />
      </g>
      <g
         id="ID000052">
        <g
           id="g672"
           transform="translate(283.611,86.456)">
          <g
             id="g674">
            <text
               style="font-size:12.5px;text-anchor:start;fill:#000000;font-family:Helvetica"
               id="text676"
               font-size="10pt"
               y="0"
               x="0">DMP (forcing term 2)</text>
          </g>
        </g>
      </g>
      <g
         clip-path="url(#ID000045)"
         id="ID000053">
        <polyline
           style="fill:none;stroke:#cccc8e;stroke-width:2pt;stroke-dasharray:none"
           id="polyline679"
           points="241.750,81.000 279.250,81.000 " />
        <g
           id="g681" />
      </g>
      <g
         clip-path="url(#ID000045)"
         id="ID000054">
        <g
           id="g684" />
      </g>
      <g
         id="ID000055" />
      <g
         id="ID000056" />
      <g
         id="ID000057" />
    </g>
    <g
       id="g689">
      <polyline
         style="fill:none;stroke:#000000;stroke-width:0.5pt;stroke-dasharray:none"
         id="polyline691"
         points="234.250,93.500 411.750,93.500 " />
      <polyline
         style="fill:none;stroke:#000000;stroke-width:0.5pt;stroke-dasharray:none"
         id="polyline693"
         points="234.250,27.250 411.750,27.250 " />
      <polyline
         style="fill:none;stroke:#000000;stroke-width:0.5pt;stroke-dasharray:none"
         id="polyline695"
         points="234.250,93.500 234.250,27.250 " />
      <polyline
         style="fill:none;stroke:#000000;stroke-width:0.5pt;stroke-dasharray:none"
         id="polyline697"
         points="411.750,93.500 411.750,27.250 " />
      <polyline
         style="fill:none;stroke:#000000;stroke-width:0.5pt;stroke-dasharray:none"
         id="polyline699"
         points="234.250,93.500 234.250,92.837 " />
      <polyline
         style="fill:none;stroke:#000000;stroke-width:0.5pt;stroke-dasharray:none"
         id="polyline701"
         points="234.250,93.500 234.250,93.500 " />
    </g>
  </g>
</svg>
