<?xml version="1.0" encoding="UTF-8" standalone="no"?>
<svg
   xmlns:dc="http://purl.org/dc/elements/1.1/"
   xmlns:cc="http://creativecommons.org/ns#"
   xmlns:rdf="http://www.w3.org/1999/02/22-rdf-syntax-ns#"
   xmlns:svg="http://www.w3.org/2000/svg"
   xmlns="http://www.w3.org/2000/svg"
   xmlns:sodipodi="http://sodipodi.sourceforge.net/DTD/sodipodi-0.dtd"
   xmlns:inkscape="http://www.inkscape.org/namespaces/inkscape"
   preserveAspectRatio="xMinYMin meet"
   width="100%"
   height="100%"
   viewBox="0 0 686.3049 299.2365"
   version="1.1"
   id="svg2"
   inkscape:version="0.48.2 r9819"
   sodipodi:docname="phase_systems.svg"
   inkscape:export-filename="/home/stulp/coding/oo_dmp_bbo/oo_dmp_bbo/cpp/docs/images/phase_systems.png"
   inkscape:export-xdpi="90"
   inkscape:export-ydpi="90">
  <metadata
     id="metadata590">
    <rdf:RDF>
      <cc:Work
         rdf:about="">
        <dc:format>image/svg+xml</dc:format>
        <dc:type
           rdf:resource="http://purl.org/dc/dcmitype/StillImage" />
        <dc:title></dc:title>
      </cc:Work>
    </rdf:RDF>
  </metadata>
  <defs
     id="defs588">
    <clipPath
       id="ID000018">
      <rect
         x="575.25"
         y="23.85"
         width="259.17001"
         height="259.17001"
         id="rect256" />
    </clipPath>
    <clipPath
       id="ID000001">
      <rect
         x="192.804"
         y="23.85"
         width="259.17001"
         height="259.17001"
         id="rect11" />
    </clipPath>
  </defs>
  <sodipodi:namedview
     pagecolor="#ffffff"
     bordercolor="#666666"
     borderopacity="1"
     objecttolerance="10"
     gridtolerance="10"
     guidetolerance="10"
     inkscape:pageopacity="0"
     inkscape:pageshadow="2"
     inkscape:window-width="1366"
     inkscape:window-height="703"
     id="namedview586"
     showgrid="false"
     fit-margin-top="0"
     fit-margin-left="0"
     fit-margin-right="0"
     fit-margin-bottom="0"
     inkscape:zoom="0.91703377"
     inkscape:cx="524.764"
     inkscape:cy="160.3435"
     inkscape:window-x="-4"
     inkscape:window-y="-3"
     inkscape:window-maximized="1"
     inkscape:current-layer="svg2" />
  <desc
     id="desc4">Matlab Figure Converted by PLOT2SVG written by Juerg Schwizer</desc>
  <polygon
     points="192.804,23.85 192.804,283.02 451.974,283.02 451.974,23.85 "
     id="polygon13"
     style="fill:#ffffff;fill-opacity:1;stroke:none"
     transform="translate(-156.236,-21.4505)" />
  <polygon
     points="192.804,23.85 192.804,23.85 451.974,23.85 451.974,23.85 "
     id="polygon15"
     style="fill:#ffffff;fill-opacity:1;stroke:none"
     transform="translate(-156.236,-21.4505)" />
  <polygon
     points="192.804,23.85 192.804,283.02 192.804,283.02 192.804,23.85 "
     id="polygon17"
     style="fill:#ffffff;fill-opacity:1;stroke:none"
     transform="translate(-156.236,-21.4505)" />
  <g
     clip-path="url(#ID000001)"
     id="ID000002"
     transform="translate(-156.236,-21.4505)">
    <polyline
       style="fill:none;stroke:#8e8ecc;stroke-width:2pt;stroke-dasharray:none"
       id="polyline22"
       points="192.804,45.448 193.495,52.359 194.187,59.049 194.878,65.525 195.569,71.793 196.260,77.862 196.951,83.736 197.642,89.421 198.333,94.926 199.024,100.253 199.716,105.411 200.407,110.403 201.098,115.236 201.789,119.914 202.480,124.442 203.171,128.825 203.862,133.069 204.553,137.176 205.245,141.152 205.936,145.000 206.627,148.726 207.318,152.332 208.009,155.823 208.700,159.202 209.391,162.473 210.082,165.640 210.773,168.705 211.465,171.672 212.156,174.544 212.847,177.324 213.538,180.015 214.229,182.620 214.920,185.142 215.611,187.583 216.302,189.946 216.994,192.233 217.685,194.447 218.376,196.590 219.067,198.665 219.758,200.673 220.449,202.617 221.140,204.499 221.831,206.320 222.523,208.084 223.214,209.790 223.905,211.443 224.596,213.042 225.287,214.590 225.978,216.089 226.669,217.540 227.360,218.944 228.051,220.303 228.743,221.619 229.434,222.893 230.125,224.126 230.816,225.319 231.507,226.474 232.198,227.593 232.889,228.675 233.580,229.723 234.272,230.738 234.963,231.720 235.654,232.670 236.345,233.590 237.036,234.481 237.727,235.343 238.418,236.177 239.109,236.985 239.801,237.767 240.492,238.524 241.183,239.257 241.874,239.966 242.565,240.653 243.256,241.317 243.947,241.961 244.638,242.584 245.329,243.186 246.021,243.770 246.712,244.335 247.403,244.882 248.094,245.411 248.785,245.923 249.476,246.419 250.167,246.899 250.858,247.364 251.550,247.814 252.241,248.250 252.932,248.671 253.623,249.079 254.314,249.474 255.005,249.856 255.696,250.227 256.387,250.585 257.079,250.932 257.770,251.267 258.461,251.592 259.152,251.907 259.843,252.211 260.534,252.506 261.225,252.791 261.916,253.068 262.607,253.335 263.299,253.594 263.990,253.844 264.681,254.087 265.372,254.322 266.063,254.549 266.754,254.769 267.445,254.982 268.136,255.188 268.828,255.387 269.519,255.580 270.210,255.767 270.901,255.948 271.592,256.123 272.283,256.293 272.974,256.457 273.665,256.616 274.357,256.770 275.048,256.919 275.739,257.063 276.430,257.202 277.121,257.337 277.812,257.468 278.503,257.595 279.194,257.717 279.885,257.836 280.577,257.951 281.268,258.062 281.959,258.169 282.650,258.273 283.341,258.374 284.032,258.472 284.723,258.566 285.414,258.657 286.106,258.746 286.797,258.832 287.488,258.915 288.179,258.995 288.870,259.072 289.561,259.148 290.252,259.220 290.943,259.291 291.635,259.359 292.326,259.425 293.017,259.489 293.708,259.551 294.399,259.611 295.090,259.669 295.781,259.725 296.472,259.779 297.163,259.832 297.855,259.883 298.546,259.932 299.237,259.980 299.928,260.026 300.619,260.071 301.310,260.114 302.001,260.156 302.692,260.196 303.384,260.235 304.075,260.273 304.766,260.310 305.457,260.346 306.148,260.380 306.839,260.414 307.530,260.446 308.221,260.477 308.913,260.507 309.604,260.537 310.295,260.565 310.986,260.592 311.677,260.619 312.368,260.645 313.059,260.670 313.750,260.694 314.441,260.717 315.133,260.740 315.824,260.761 316.515,260.783 317.206,260.803 317.897,260.823 318.588,260.842 319.279,260.861 319.970,260.879 320.662,260.896 321.353,260.913 322.044,260.929 322.735,260.945 323.426,260.960 324.117,260.975 324.808,260.989 325.499,261.003 326.191,261.017 326.882,261.030 327.573,261.042 328.264,261.054 328.955,261.066 329.646,261.078 330.337,261.089 331.028,261.099 331.719,261.110 332.411,261.120 333.102,261.129 333.793,261.139 334.484,261.148 335.175,261.157 335.866,261.165 336.557,261.173 337.248,261.181 337.940,261.189 338.631,261.197 339.322,261.204 340.013,261.211 340.704,261.218 341.395,261.224 342.086,261.230 342.777,261.237 343.469,261.243 344.160,261.248 344.851,261.254 345.542,261.259 346.233,261.264 346.924,261.270 347.615,261.274 348.306,261.279 348.997,261.284 349.689,261.288 350.380,261.292 351.071,261.297 351.762,261.301 352.453,261.305 353.144,261.308 353.835,261.312 354.526,261.316 355.218,261.319 355.909,261.322 356.600,261.325 357.291,261.329 357.982,261.332 358.673,261.334 359.364,261.337 360.055,261.340 360.747,261.343 361.438,261.345 362.129,261.348 362.820,261.350 363.511,261.352 364.202,261.355 364.893,261.357 365.584,261.359 366.275,261.361 366.967,261.363 367.658,261.365 368.349,261.367 369.040,261.368 369.731,261.370 370.422,261.372 371.113,261.373 371.804,261.375 372.496,261.377 373.187,261.378 373.878,261.379 374.569,261.381 375.260,261.382 375.951,261.383 376.642,261.385 377.333,261.386 378.025,261.387 378.716,261.388 379.407,261.389 380.098,261.390 380.789,261.391 381.480,261.392 382.171,261.393 382.862,261.394 383.553,261.395 384.245,261.396 384.936,261.397 385.627,261.398 386.318,261.399 387.009,261.399 387.700,261.400 388.391,261.401 389.082,261.401 389.774,261.402 390.465,261.403 391.156,261.403 391.847,261.404 392.538,261.405 393.229,261.405 393.920,261.406 394.611,261.406 395.303,261.407 395.994,261.407 396.685,261.408 397.376,261.408 398.067,261.409 398.758,261.409 399.449,261.410 400.140,261.410 400.831,261.410 401.523,261.411 402.214,261.411 402.905,261.412 403.596,261.412 404.287,261.412 404.978,261.413 405.669,261.413 406.360,261.413 407.052,261.413 407.743,261.414 408.434,261.414 409.125,261.414 409.816,261.415 410.507,261.415 411.198,261.415 411.889,261.415 412.581,261.416 413.272,261.416 413.963,261.416 414.654,261.416 415.345,261.416 416.036,261.417 416.727,261.417 417.418,261.417 418.109,261.417 418.801,261.417 419.492,261.417 420.183,261.418 420.874,261.418 421.565,261.418 422.256,261.418 422.947,261.418 423.638,261.418 424.330,261.418 425.021,261.419 425.712,261.419 426.403,261.419 427.094,261.419 427.785,261.419 428.476,261.419 429.167,261.419 429.859,261.419 430.550,261.420 431.241,261.420 431.932,261.420 432.623,261.420 433.314,261.420 434.005,261.420 434.696,261.420 435.387,261.420 436.079,261.420 436.770,261.420 437.461,261.420 438.152,261.420 438.843,261.420 439.534,261.421 440.225,261.421 440.916,261.421 441.608,261.421 442.299,261.421 442.990,261.421 443.681,261.421 444.372,261.421 445.063,261.421 445.754,261.421 446.445,261.421 447.137,261.421 447.828,261.421 448.519,261.421 449.210,261.421 449.901,261.421 450.592,261.421 451.283,261.421 451.974,261.421 " />
    <g
       id="g24" />
  </g>
  <g
     id="ID000003"
     transform="translate(-156.236,-21.4505)">
    <g
       id="g27"
       transform="translate(321.389,318.037)">
      <g
         id="g29">
        <text
           style="font-size:12.5px;text-anchor:middle;fill:#000000;font-family:Helvetica"
           id="text31"
           font-size="10pt"
           y="0"
           x="0">time (s)</text>
      </g>
    </g>
  </g>
  <g
     id="ID000004"
     transform="translate(-156.236,-21.4505)">
    <g
       id="g34"
       transform="translate(162.786,154.436)">
      <g
         id="g36"
         transform="matrix(0,-1,1,0,0,0)">
        <text
           style="font-size:12.5px;text-anchor:middle;fill:#000000;font-family:Helvetica"
           id="text38"
           font-size="10pt"
           y="0"
           x="0">x</text>
      </g>
    </g>
  </g>
  <g
     id="ID000005"
     transform="translate(-156.236,-21.4505)">
    <g
       id="g41"
       transform="translate(322.389,71.545)">
      <g
         id="g43">
        <text
           style="font-size:12.5px;text-anchor:middle;fill:#000000;font-family:Helvetica"
           id="text45"
           font-size="10pt"
           y="0"
           x="0">
          <tspan
             id="tspan47">\sf dynamical system~</tspan>
          <tspan
             id="tspan49">x</tspan>
        </text>
      </g>
    </g>
  </g>
  <g
     id="ID000007"
     transform="translate(-156.236,-21.4505)">
    <g
       id="g63"
       transform="translate(322.389,71.545)">
      <g
         id="g65">
        <text
           style="font-size:12.5px;text-anchor:middle;fill:#000000;font-family:Helvetica"
           id="text67"
           font-size="10pt"
           y="0"
           x="0">
          <tspan
             id="tspan69">\sf dynamical system~</tspan>
          <tspan
             id="tspan71">x</tspan>
        </text>
      </g>
    </g>
  </g>
  <g
     id="ID000009"
     transform="translate(-156.236,-21.4505)">
    <g
       id="g85"
       transform="translate(322.389,71.545)">
      <g
         id="g87">
        <text
           style="font-size:12.5px;text-anchor:middle;fill:#000000;font-family:Helvetica"
           id="text89"
           font-size="10pt"
           y="0"
           x="0">
          <tspan
             id="tspan91">\sf dynamical system~</tspan>
          <tspan
             id="tspan93">x</tspan>
        </text>
      </g>
    </g>
  </g>
  <g
     clip-path="url(#ID000001)"
     id="ID000011"
     transform="translate(-156.236,-21.4505)">
    <polyline
       style="fill:none;stroke:#cc8e8e;stroke-width:2pt;stroke-dasharray:none"
       id="polyline107"
       points="192.804,261.422 193.495,260.731 194.187,260.040 194.878,259.349 195.569,258.658 196.260,257.967 196.951,257.276 197.642,256.585 198.333,255.894 199.024,255.202 199.716,254.511 200.407,253.820 201.098,253.129 201.789,252.438 202.480,251.747 203.171,251.056 203.862,250.365 204.553,249.673 205.245,248.982 205.936,248.291 206.627,247.600 207.318,246.909 208.009,246.218 208.700,245.527 209.391,244.836 210.082,244.144 210.773,243.453 211.465,242.762 212.156,242.071 212.847,241.380 213.538,240.689 214.229,239.998 214.920,239.307 215.611,238.616 216.302,237.924 216.994,237.233 217.685,236.542 218.376,235.851 219.067,235.160 219.758,234.469 220.449,233.778 221.140,233.087 221.831,232.395 222.523,231.704 223.214,231.013 223.905,230.322 224.596,229.631 225.287,228.940 225.978,228.249 226.669,227.558 227.360,226.866 228.051,226.175 228.743,225.484 229.434,224.793 230.125,224.102 230.816,223.411 231.507,222.720 232.198,222.029 232.889,221.338 233.580,220.646 234.272,219.955 234.963,219.264 235.654,218.573 236.345,217.882 237.036,217.191 237.727,216.500 238.418,215.809 239.109,215.117 239.801,214.426 240.492,213.735 241.183,213.044 241.874,212.353 242.565,211.662 243.256,210.971 243.947,210.280 244.638,209.588 245.329,208.897 246.021,208.206 246.712,207.515 247.403,206.824 248.094,206.133 248.785,205.442 249.476,204.751 250.167,204.060 250.858,203.368 251.550,202.677 252.241,201.986 252.932,201.295 253.623,200.604 254.314,199.913 255.005,199.222 255.696,198.531 256.387,197.839 257.079,197.148 257.770,196.457 258.461,195.766 259.152,195.075 259.843,194.384 260.534,193.693 261.225,193.002 261.916,192.311 262.607,191.619 263.299,190.928 263.990,190.237 264.681,189.546 265.372,188.855 266.063,188.164 266.754,187.473 267.445,186.782 268.136,186.090 268.828,185.399 269.519,184.708 270.210,184.017 270.901,183.326 271.592,182.635 272.283,181.944 272.974,181.253 273.665,180.561 274.357,179.870 275.048,179.179 275.739,178.488 276.430,177.797 277.121,177.106 277.812,176.415 278.503,175.724 279.194,175.033 279.885,174.341 280.577,173.650 281.268,172.959 281.959,172.268 282.650,171.577 283.341,170.886 284.032,170.195 284.723,169.504 285.414,168.812 286.106,168.121 286.797,167.430 287.488,166.739 288.179,166.048 288.870,165.357 289.561,164.666 290.252,163.975 290.943,163.283 291.635,162.592 292.326,161.901 293.017,161.210 293.708,160.519 294.399,159.828 295.090,159.137 295.781,158.446 296.472,157.755 297.163,157.063 297.855,156.372 298.546,155.681 299.237,154.990 299.928,154.299 300.619,153.608 301.310,152.917 302.001,152.226 302.692,151.534 303.384,150.843 304.075,150.152 304.766,149.461 305.457,148.770 306.148,148.079 306.839,147.388 307.530,146.697 308.221,146.005 308.913,145.314 309.604,144.623 310.295,143.932 310.986,143.241 311.677,142.550 312.368,141.859 313.059,141.168 313.750,140.477 314.441,139.785 315.133,139.094 315.824,138.403 316.515,137.712 317.206,137.021 317.897,136.330 318.588,135.639 319.279,134.948 319.970,134.256 320.662,133.565 321.353,132.874 322.044,132.183 322.735,131.492 323.426,130.801 324.117,130.110 324.808,129.419 325.499,128.727 326.191,128.036 326.882,127.345 327.573,126.654 328.264,125.963 328.955,125.272 329.646,124.581 330.337,123.890 331.028,123.199 331.719,122.507 332.411,121.816 333.102,121.125 333.793,120.434 334.484,119.743 335.175,119.052 335.866,118.361 336.557,117.670 337.248,116.978 337.940,116.287 338.631,115.596 339.322,114.905 340.013,114.214 340.704,113.523 341.395,112.832 342.086,112.141 342.777,111.449 343.469,110.758 344.160,110.067 344.851,109.376 345.542,108.685 346.233,107.994 346.924,107.303 347.615,106.612 348.306,105.921 348.997,105.229 349.689,104.538 350.380,103.847 351.071,103.156 351.762,102.465 352.453,101.774 353.144,101.083 353.835,100.392 354.526,99.700 355.218,99.009 355.909,98.318 356.600,97.627 357.291,96.936 357.982,96.245 358.673,95.554 359.364,94.863 360.055,94.171 360.747,93.480 361.438,92.789 362.129,92.098 362.820,91.407 363.511,90.716 364.202,90.025 364.893,89.334 365.584,88.643 366.275,88.643 366.967,88.643 367.658,88.643 368.349,88.643 369.040,88.643 369.731,88.643 370.422,88.643 371.113,88.643 371.804,88.643 372.496,88.643 373.187,88.643 373.878,88.643 374.569,88.643 375.260,88.643 375.951,88.643 376.642,88.643 377.333,88.643 378.025,88.643 378.716,88.643 379.407,88.643 380.098,88.643 380.789,88.643 381.480,88.643 382.171,88.643 382.862,88.643 383.553,88.643 384.245,88.643 384.936,88.643 385.627,88.643 386.318,88.643 387.009,88.643 387.700,88.643 388.391,88.643 389.082,88.643 389.774,88.643 390.465,88.643 391.156,88.643 391.847,88.643 392.538,88.643 393.229,88.643 393.920,88.643 394.611,88.643 395.303,88.643 395.994,88.643 396.685,88.643 397.376,88.643 398.067,88.643 398.758,88.643 399.449,88.643 400.140,88.643 400.831,88.643 401.523,88.643 402.214,88.643 402.905,88.643 403.596,88.643 404.287,88.643 404.978,88.643 405.669,88.643 406.360,88.643 407.052,88.643 407.743,88.643 408.434,88.643 409.125,88.643 409.816,88.643 410.507,88.643 411.198,88.643 411.889,88.643 412.581,88.643 413.272,88.643 413.963,88.643 414.654,88.643 415.345,88.643 416.036,88.643 416.727,88.643 417.418,88.643 418.109,88.643 418.801,88.643 419.492,88.643 420.183,88.643 420.874,88.643 421.565,88.643 422.256,88.643 422.947,88.643 423.638,88.643 424.330,88.643 425.021,88.643 425.712,88.643 426.403,88.643 427.094,88.643 427.785,88.643 428.476,88.643 429.167,88.643 429.859,88.643 430.550,88.643 431.241,88.643 431.932,88.643 432.623,88.643 433.314,88.643 434.005,88.643 434.696,88.643 435.387,88.643 436.079,88.643 436.770,88.643 437.461,88.643 438.152,88.643 438.843,88.643 439.534,88.643 440.225,88.643 440.916,88.643 441.608,88.643 442.299,88.643 442.990,88.643 443.681,88.643 444.372,88.643 445.063,88.643 445.754,88.643 446.445,88.643 447.137,88.643 447.828,88.643 448.519,88.643 449.210,88.643 449.901,88.643 450.592,88.643 451.283,88.643 451.974,88.643 " />
    <g
       id="g109" />
  </g>
  <g
     id="ID000012"
     transform="translate(-156.236,-21.4505)">
    <g
       id="g112"
       transform="translate(322.389,71.545)">
      <g
         id="g114">
        <text
           style="font-size:12.5px;text-anchor:middle;fill:#000000;font-family:Helvetica"
           id="text116"
           font-size="10pt"
           y="0"
           x="0">
          <tspan
             id="tspan118">\sf dynamical system~</tspan>
          <tspan
             id="tspan120">x</tspan>
        </text>
      </g>
    </g>
  </g>
  <g
     id="ID000014"
     transform="translate(-156.236,-21.4505)" />
  <g
     id="ID000015"
     transform="translate(-156.236,-21.4505)" />
  <g
     id="ID000016"
     transform="translate(-156.236,-21.4505)" />
  <g
     id="g136"
     transform="translate(-156.236,-21.4505)">
    <polyline
       points="192.804,283.020 192.804,280.113 "
       id="polyline138"
       style="fill:none;stroke:#000000;stroke-width:0.5pt;stroke-dasharray:none" />
    <polyline
       points="235.999,283.020 235.999,280.113 "
       id="polyline140"
       style="fill:none;stroke:#000000;stroke-width:0.5pt;stroke-dasharray:none" />
    <polyline
       points="279.194,283.020 279.194,280.113 "
       id="polyline142"
       style="fill:none;stroke:#000000;stroke-width:0.5pt;stroke-dasharray:none" />
    <polyline
       points="322.389,283.020 322.389,280.113 "
       id="polyline144"
       style="fill:none;stroke:#000000;stroke-width:0.5pt;stroke-dasharray:none" />
    <polyline
       points="365.584,283.020 365.584,280.113 "
       id="polyline146"
       style="fill:none;stroke:#000000;stroke-width:0.5pt;stroke-dasharray:none" />
    <polyline
       points="408.779,283.020 408.779,280.113 "
       id="polyline148"
       style="fill:none;stroke:#000000;stroke-width:0.5pt;stroke-dasharray:none" />
    <polyline
       points="451.974,283.020 451.974,280.113 "
       id="polyline150"
       style="fill:none;stroke:#000000;stroke-width:0.5pt;stroke-dasharray:none" />
    <polyline
       points="192.804,283.020 451.974,283.020 "
       id="polyline152"
       style="fill:none;stroke:#000000;stroke-width:0.5pt;stroke-dasharray:none" />
    <g
       transform="translate(192.804,300.003)"
       id="g154">
      <g
         id="g156">
        <text
           x="0"
           y="0"
           font-size="10pt"
           id="text158"
           style="font-size:12.5px;text-anchor:middle;fill:#000000;font-family:Helvetica">0</text>
      </g>
    </g>
    <g
       transform="translate(235.999,300.003)"
       id="g160">
      <g
         id="g162">
        <text
           x="0"
           y="0"
           font-size="10pt"
           id="text164"
           style="font-size:12.5px;text-anchor:middle;fill:#000000;font-family:Helvetica">0.2</text>
      </g>
    </g>
    <g
       transform="translate(279.194,300.003)"
       id="g166">
      <g
         id="g168">
        <text
           x="0"
           y="0"
           font-size="10pt"
           id="text170"
           style="font-size:12.5px;text-anchor:middle;fill:#000000;font-family:Helvetica">0.4</text>
      </g>
    </g>
    <g
       transform="translate(322.389,300.003)"
       id="g172">
      <g
         id="g174">
        <text
           x="0"
           y="0"
           font-size="10pt"
           id="text176"
           style="font-size:12.5px;text-anchor:middle;fill:#000000;font-family:Helvetica">0.6</text>
      </g>
    </g>
    <g
       transform="translate(365.584,300.003)"
       id="g178">
      <g
         id="g180">
        <text
           x="0"
           y="0"
           font-size="10pt"
           id="text182"
           style="font-size:12.5px;text-anchor:middle;fill:#000000;font-family:Helvetica">0.8</text>
      </g>
    </g>
    <g
       transform="translate(408.779,300.003)"
       id="g184">
      <g
         id="g186">
        <text
           x="0"
           y="0"
           font-size="10pt"
           id="text188"
           style="font-size:12.5px;text-anchor:middle;fill:#000000;font-family:Helvetica">1</text>
      </g>
    </g>
    <g
       transform="translate(451.974,300.003)"
       id="g190">
      <g
         id="g192">
        <text
           x="0"
           y="0"
           font-size="10pt"
           id="text194"
           style="font-size:12.5px;text-anchor:middle;fill:#000000;font-family:Helvetica">1.2</text>
      </g>
    </g>
    <polyline
       points="192.804,261.423 195.396,261.423 "
       id="polyline196"
       style="fill:none;stroke:#000000;stroke-width:0.5pt;stroke-dasharray:none" />
    <polyline
       points="192.804,218.227 195.396,218.227 "
       id="polyline198"
       style="fill:none;stroke:#000000;stroke-width:0.5pt;stroke-dasharray:none" />
    <polyline
       points="192.804,175.033 195.396,175.033 "
       id="polyline200"
       style="fill:none;stroke:#000000;stroke-width:0.5pt;stroke-dasharray:none" />
    <polyline
       points="192.804,131.838 195.396,131.838 "
       id="polyline202"
       style="fill:none;stroke:#000000;stroke-width:0.5pt;stroke-dasharray:none" />
    <polyline
       points="192.804,88.643 195.396,88.643 "
       id="polyline204"
       style="fill:none;stroke:#000000;stroke-width:0.5pt;stroke-dasharray:none" />
    <polyline
       points="192.804,45.448 195.396,45.448 "
       id="polyline206"
       style="fill:none;stroke:#000000;stroke-width:0.5pt;stroke-dasharray:none" />
    <polyline
       points="192.804,283.020 192.804,23.850 "
       id="polyline208"
       style="fill:none;stroke:#000000;stroke-width:0.5pt;stroke-dasharray:none" />
    <g
       transform="translate(187.621,265.923)"
       id="g210">
      <g
         id="g212">
        <text
           x="0"
           y="0"
           font-size="10pt"
           id="text214"
           style="font-size:12.5px;text-anchor:end;fill:#000000;font-family:Helvetica">0</text>
      </g>
    </g>
    <g
       transform="translate(187.621,222.727)"
       id="g216">
      <g
         id="g218">
        <text
           x="0"
           y="0"
           font-size="10pt"
           id="text220"
           style="font-size:12.5px;text-anchor:end;fill:#000000;font-family:Helvetica">0.2</text>
      </g>
    </g>
    <g
       transform="translate(187.621,179.533)"
       id="g222">
      <g
         id="g224">
        <text
           x="0"
           y="0"
           font-size="10pt"
           id="text226"
           style="font-size:12.5px;text-anchor:end;fill:#000000;font-family:Helvetica">0.4</text>
      </g>
    </g>
    <g
       transform="translate(187.621,136.338)"
       id="g228">
      <g
         id="g230">
        <text
           x="0"
           y="0"
           font-size="10pt"
           id="text232"
           style="font-size:12.5px;text-anchor:end;fill:#000000;font-family:Helvetica">0.6</text>
      </g>
    </g>
    <g
       transform="translate(187.621,93.143)"
       id="g234">
      <g
         id="g236">
        <text
           x="0"
           y="0"
           font-size="10pt"
           id="text238"
           style="font-size:12.5px;text-anchor:end;fill:#000000;font-family:Helvetica">0.8</text>
      </g>
    </g>
    <g
       transform="translate(187.621,49.948)"
       id="g240">
      <g
         id="g242">
        <text
           x="0"
           y="0"
           font-size="10pt"
           id="text244"
           style="font-size:12.5px;text-anchor:end;fill:#000000;font-family:Helvetica">1</text>
      </g>
    </g>
    <polyline
       points="192.804,283.020 192.804,280.428 "
       id="polyline246"
       style="fill:none;stroke:#000000;stroke-width:0.5pt;stroke-dasharray:none" />
    <polyline
       points="192.804,283.020 192.804,280.428 "
       id="polyline248"
       style="fill:none;stroke:#000000;stroke-width:0.5pt;stroke-dasharray:none" />
    <polyline
       points="192.804,283.020 192.804,280.428 "
       id="polyline250"
       style="fill:none;stroke:#000000;stroke-width:0.5pt;stroke-dasharray:none" />
    <polyline
       points="192.804,283.020 192.804,283.020 "
       id="polyline252"
       style="fill:none;stroke:#000000;stroke-width:0.5pt;stroke-dasharray:none" />
  </g>
  <polygon
     points="575.25,23.85 575.25,283.02 834.42,283.02 834.42,23.85 "
     id="polygon258"
     style="fill:#ffffff;fill-opacity:1;stroke:none"
     transform="translate(-156.236,-21.4505)" />
  <polygon
     points="575.25,23.85 575.25,23.85 834.42,23.85 834.42,23.85 "
     id="polygon260"
     style="fill:#ffffff;fill-opacity:1;stroke:none"
     transform="translate(-156.236,-21.4505)" />
  <polygon
     points="575.25,23.85 575.25,283.02 575.25,283.02 575.25,23.85 "
     id="polygon262"
     style="fill:#ffffff;fill-opacity:1;stroke:none"
     transform="translate(-156.236,-21.4505)" />
  <g
     clip-path="url(#ID000018)"
     id="ID000019"
     transform="translate(-156.236,-21.4505)">
    <polyline
       style="fill:none;stroke:#8e8ecc;stroke-width:2pt;stroke-dasharray:none"
       id="polyline267"
       points="575.250,261.422 575.941,255.140 576.632,249.058 577.323,243.170 578.014,237.472 578.706,231.955 579.397,226.615 580.088,221.446 580.779,216.442 581.470,211.599 582.161,206.910 582.852,202.372 583.543,197.979 584.235,193.726 584.926,189.609 585.617,185.624 586.308,181.767 586.999,178.033 587.690,174.419 588.381,170.920 589.072,167.533 589.764,164.255 590.455,161.081 591.146,158.009 591.837,155.035 592.528,152.157 593.219,149.370 593.910,146.673 594.601,144.062 595.292,141.535 595.984,139.088 596.675,136.720 597.366,134.428 598.057,132.209 598.748,130.061 599.439,127.981 600.130,125.968 600.821,124.020 601.513,122.134 602.204,120.308 602.895,118.541 603.586,116.830 604.277,115.174 604.968,113.571 605.659,112.020 606.350,110.518 607.042,109.064 607.733,107.656 608.424,106.294 609.115,104.975 609.806,103.699 610.497,102.463 611.188,101.267 611.879,100.109 612.570,98.988 613.262,97.903 613.953,96.853 614.644,95.836 615.335,94.852 616.026,93.899 616.717,92.977 617.408,92.084 618.099,91.220 618.791,90.384 619.482,89.574 620.173,88.790 620.864,88.032 621.555,87.297 622.246,86.586 622.937,85.898 623.628,85.232 624.320,84.587 625.011,83.963 625.702,83.359 626.393,82.774 627.084,82.208 627.775,81.660 628.466,81.129 629.157,80.616 629.848,80.119 630.540,79.638 631.231,79.172 631.922,78.721 632.613,78.284 633.304,77.862 633.995,77.453 634.686,77.057 635.377,76.674 636.069,76.303 636.760,75.944 637.451,75.596 638.142,75.260 638.833,74.934 639.524,74.619 640.215,74.314 640.906,74.018 641.598,73.732 642.289,73.455 642.980,73.187 643.671,72.928 644.362,72.677 645.053,72.434 645.744,72.199 646.435,71.971 647.126,71.750 647.818,71.537 648.509,71.330 649.200,71.130 649.891,70.937 650.582,70.750 651.273,70.568 651.964,70.393 652.655,70.223 653.347,70.058 654.038,69.899 654.729,69.745 655.420,69.595 656.111,69.451 656.802,69.311 657.493,69.176 658.184,69.045 658.876,68.918 659.567,68.795 660.258,68.676 660.949,68.561 661.640,68.450 662.331,68.342 663.022,68.238 663.713,68.137 664.404,68.039 665.096,67.944 665.787,67.853 666.478,67.764 667.169,67.678 667.860,67.595 668.551,67.515 669.242,67.437 669.933,67.362 670.625,67.289 671.316,67.218 672.007,67.150 672.698,67.083 673.389,67.019 674.080,66.957 674.771,66.897 675.462,66.839 676.154,66.783 676.845,66.729 677.536,66.676 678.227,66.625 678.918,66.575 679.609,66.528 680.300,66.481 680.991,66.437 681.682,66.393 682.374,66.351 683.065,66.311 683.756,66.271 684.447,66.233 685.138,66.196 685.829,66.161 686.520,66.126 687.211,66.093 687.903,66.060 688.594,66.029 689.285,65.999 689.976,65.969 690.667,65.941 691.358,65.913 692.049,65.887 692.740,65.861 693.432,65.836 694.123,65.812 694.814,65.789 695.505,65.766 696.196,65.744 696.887,65.723 697.578,65.702 698.269,65.683 698.960,65.663 699.652,65.645 700.343,65.627 701.034,65.609 701.725,65.592 702.416,65.576 703.107,65.560 703.798,65.545 704.489,65.530 705.181,65.516 705.872,65.502 706.563,65.488 707.254,65.475 707.945,65.463 708.636,65.451 709.327,65.439 710.018,65.427 710.710,65.416 711.401,65.406 712.092,65.395 712.783,65.385 713.474,65.375 714.165,65.366 714.856,65.357 715.547,65.348 716.238,65.340 716.930,65.331 717.621,65.323 718.312,65.316 719.003,65.308 719.694,65.301 720.385,65.294 721.076,65.287 721.767,65.280 722.459,65.274 723.150,65.268 723.841,65.262 724.532,65.256 725.223,65.251 725.914,65.245 726.605,65.240 727.296,65.235 727.988,65.230 728.679,65.225 729.370,65.221 730.061,65.216 730.752,65.212 731.443,65.208 732.134,65.204 732.825,65.200 733.516,65.196 734.208,65.192 734.899,65.189 735.590,65.185 736.281,65.182 736.972,65.179 737.663,65.176 738.354,65.173 739.045,65.170 739.737,65.167 740.428,65.164 741.119,65.162 741.810,65.159 742.501,65.157 743.192,65.154 743.883,65.152 744.574,65.150 745.266,65.147 745.957,65.145 746.648,65.143 747.339,65.141 748.030,65.139 748.721,65.138 749.412,65.136 750.103,65.134 750.794,65.132 751.486,65.131 752.177,65.129 752.868,65.128 753.559,65.126 754.250,65.125 754.941,65.123 755.632,65.122 756.323,65.121 757.015,65.119 757.706,65.118 758.397,65.117 759.088,65.116 759.779,65.115 760.470,65.114 761.161,65.113 761.852,65.112 762.544,65.111 763.235,65.110 763.926,65.109 764.617,65.108 765.308,65.107 765.999,65.106 766.690,65.106 767.381,65.105 768.072,65.104 768.764,65.103 769.455,65.103 770.146,65.102 770.837,65.101 771.528,65.101 772.219,65.100 772.910,65.100 773.601,65.099 774.293,65.098 774.984,65.098 775.675,65.097 776.366,65.097 777.057,65.096 777.748,65.096 778.439,65.095 779.130,65.095 779.822,65.095 780.513,65.094 781.204,65.094 781.895,65.093 782.586,65.093 783.277,65.093 783.968,65.092 784.659,65.092 785.350,65.092 786.042,65.091 786.733,65.091 787.424,65.091 788.115,65.090 788.806,65.090 789.497,65.090 790.188,65.090 790.879,65.089 791.571,65.089 792.262,65.089 792.953,65.089 793.644,65.088 794.335,65.088 795.026,65.088 795.717,65.088 796.408,65.088 797.100,65.087 797.791,65.087 798.482,65.087 799.173,65.087 799.864,65.087 800.555,65.086 801.246,65.086 801.937,65.086 802.628,65.086 803.320,65.086 804.011,65.086 804.702,65.086 805.393,65.085 806.084,65.085 806.775,65.085 807.466,65.085 808.157,65.085 808.849,65.085 809.540,65.085 810.231,65.085 810.922,65.085 811.613,65.084 812.304,65.084 812.995,65.084 813.686,65.084 814.378,65.084 815.069,65.084 815.760,65.084 816.451,65.084 817.142,65.084 817.833,65.084 818.524,65.084 819.215,65.084 819.906,65.084 820.598,65.083 821.289,65.083 821.980,65.083 822.671,65.083 823.362,65.083 824.053,65.083 824.744,65.083 825.435,65.083 826.127,65.083 826.818,65.083 827.509,65.083 828.200,65.083 828.891,65.083 829.582,65.083 830.273,65.083 830.964,65.083 831.656,65.083 832.347,65.083 833.038,65.083 833.729,65.083 834.420,65.083 " />
    <g
       id="g269" />
  </g>
  <g
     id="ID000020"
     transform="translate(-156.236,-21.4505)">
    <g
       id="g272"
       transform="translate(704.335,318.037)">
      <g
         id="g274">
        <text
           style="font-size:12.5px;text-anchor:middle;fill:#000000;font-family:Helvetica"
           id="text276"
           font-size="10pt"
           y="0"
           x="0">time (s)</text>
      </g>
    </g>
  </g>
  <g
     id="ID000021"
     transform="translate(-156.236,-21.4505)">
    <g
       id="g279"
       transform="translate(542.73,154.436)">
      <g
         id="g281"
         transform="matrix(0,-1,1,0,0,0)">
        <text
           style="font-size:12.5px;text-anchor:middle;fill:#000000;font-family:Helvetica"
           id="text283"
           font-size="10pt"
           y="0"
           x="0">
          <tspan
             id="tspan285">\dot</tspan>
          <tspan
             id="tspan287">x</tspan>
          <tspan
             id="tspan289" />
        </text>
      </g>
    </g>
  </g>
  <g
     clip-path="url(#ID000018)"
     id="ID000028"
     transform="translate(-156.236,-21.4505)">
    <polyline
       style="fill:none;stroke:#cc8e8e;stroke-width:2pt;stroke-dasharray:none"
       id="polyline370"
       points="575.250,45.448 575.941,45.448 576.632,45.448 577.323,45.448 578.014,45.448 578.706,45.448 579.397,45.448 580.088,45.448 580.779,45.448 581.470,45.448 582.161,45.448 582.852,45.448 583.543,45.448 584.235,45.448 584.926,45.448 585.617,45.448 586.308,45.448 586.999,45.448 587.690,45.448 588.381,45.448 589.072,45.448 589.764,45.448 590.455,45.448 591.146,45.448 591.837,45.448 592.528,45.448 593.219,45.448 593.910,45.448 594.601,45.448 595.292,45.448 595.984,45.448 596.675,45.448 597.366,45.448 598.057,45.448 598.748,45.448 599.439,45.448 600.130,45.448 600.821,45.448 601.513,45.448 602.204,45.448 602.895,45.448 603.586,45.448 604.277,45.448 604.968,45.448 605.659,45.448 606.350,45.448 607.042,45.448 607.733,45.448 608.424,45.448 609.115,45.448 609.806,45.448 610.497,45.448 611.188,45.448 611.879,45.448 612.570,45.448 613.262,45.448 613.953,45.448 614.644,45.448 615.335,45.448 616.026,45.448 616.717,45.448 617.408,45.448 618.099,45.448 618.791,45.448 619.482,45.448 620.173,45.448 620.864,45.448 621.555,45.448 622.246,45.448 622.937,45.448 623.628,45.448 624.320,45.448 625.011,45.448 625.702,45.448 626.393,45.448 627.084,45.448 627.775,45.448 628.466,45.448 629.157,45.448 629.848,45.448 630.540,45.448 631.231,45.448 631.922,45.448 632.613,45.448 633.304,45.448 633.995,45.448 634.686,45.448 635.377,45.448 636.069,45.448 636.760,45.448 637.451,45.448 638.142,45.448 638.833,45.448 639.524,45.448 640.215,45.448 640.906,45.448 641.598,45.448 642.289,45.448 642.980,45.448 643.671,45.448 644.362,45.448 645.053,45.448 645.744,45.448 646.435,45.448 647.126,45.448 647.818,45.448 648.509,45.448 649.200,45.448 649.891,45.448 650.582,45.448 651.273,45.448 651.964,45.448 652.655,45.448 653.347,45.448 654.038,45.448 654.729,45.448 655.420,45.448 656.111,45.448 656.802,45.448 657.493,45.448 658.184,45.448 658.876,45.448 659.567,45.448 660.258,45.448 660.949,45.448 661.640,45.448 662.331,45.448 663.022,45.448 663.713,45.448 664.404,45.448 665.096,45.448 665.787,45.448 666.478,45.448 667.169,45.448 667.860,45.448 668.551,45.448 669.242,45.448 669.933,45.448 670.625,45.448 671.316,45.448 672.007,45.448 672.698,45.448 673.389,45.448 674.080,45.448 674.771,45.448 675.462,45.448 676.154,45.448 676.845,45.448 677.536,45.448 678.227,45.448 678.918,45.448 679.609,45.448 680.300,45.448 680.991,45.448 681.682,45.448 682.374,45.448 683.065,45.448 683.756,45.448 684.447,45.448 685.138,45.448 685.829,45.448 686.520,45.448 687.211,45.448 687.903,45.448 688.594,45.448 689.285,45.448 689.976,45.448 690.667,45.448 691.358,45.448 692.049,45.448 692.740,45.448 693.432,45.448 694.123,45.448 694.814,45.448 695.505,45.448 696.196,45.448 696.887,45.448 697.578,45.448 698.269,45.448 698.960,45.448 699.652,45.448 700.343,45.448 701.034,45.448 701.725,45.448 702.416,45.448 703.107,45.448 703.798,45.448 704.489,45.448 705.181,45.448 705.872,45.448 706.563,45.448 707.254,45.448 707.945,45.448 708.636,45.448 709.327,45.448 710.018,45.448 710.710,45.448 711.401,45.448 712.092,45.448 712.783,45.448 713.474,45.448 714.165,45.448 714.856,45.448 715.547,45.448 716.238,45.448 716.930,45.448 717.621,45.448 718.312,45.448 719.003,45.448 719.694,45.448 720.385,45.448 721.076,45.448 721.767,45.448 722.459,45.448 723.150,45.448 723.841,45.448 724.532,45.448 725.223,45.448 725.914,45.448 726.605,45.448 727.296,45.448 727.988,45.448 728.679,45.448 729.370,45.448 730.061,45.448 730.752,45.448 731.443,45.448 732.134,45.448 732.825,45.448 733.516,45.448 734.208,45.448 734.899,45.448 735.590,45.448 736.281,45.448 736.972,45.448 737.663,45.448 738.354,45.448 739.045,45.448 739.737,45.448 740.428,45.448 741.119,45.448 741.810,45.448 742.501,45.448 743.192,45.448 743.883,45.448 744.574,45.448 745.266,45.448 745.957,45.448 746.648,45.448 747.339,45.448 748.030,45.448 748.721,65.082 749.412,65.082 750.103,65.082 750.794,65.082 751.486,65.082 752.177,65.082 752.868,65.082 753.559,65.082 754.250,65.082 754.941,65.082 755.632,65.082 756.323,65.082 757.015,65.082 757.706,65.082 758.397,65.082 759.088,65.082 759.779,65.082 760.470,65.082 761.161,65.082 761.852,65.082 762.544,65.082 763.235,65.082 763.926,65.082 764.617,65.082 765.308,65.082 765.999,65.082 766.690,65.082 767.381,65.082 768.072,65.082 768.764,65.082 769.455,65.082 770.146,65.082 770.837,65.082 771.528,65.082 772.219,65.082 772.910,65.082 773.601,65.082 774.293,65.082 774.984,65.082 775.675,65.082 776.366,65.082 777.057,65.082 777.748,65.082 778.439,65.082 779.130,65.082 779.822,65.082 780.513,65.082 781.204,65.082 781.895,65.082 782.586,65.082 783.277,65.082 783.968,65.082 784.659,65.082 785.350,65.082 786.042,65.082 786.733,65.082 787.424,65.082 788.115,65.082 788.806,65.082 789.497,65.082 790.188,65.082 790.879,65.082 791.571,65.082 792.262,65.082 792.953,65.082 793.644,65.082 794.335,65.082 795.026,65.082 795.717,65.082 796.408,65.082 797.100,65.082 797.791,65.082 798.482,65.082 799.173,65.082 799.864,65.082 800.555,65.082 801.246,65.082 801.937,65.082 802.628,65.082 803.320,65.082 804.011,65.082 804.702,65.082 805.393,65.082 806.084,65.082 806.775,65.082 807.466,65.082 808.157,65.082 808.849,65.082 809.540,65.082 810.231,65.082 810.922,65.082 811.613,65.082 812.304,65.082 812.995,65.082 813.686,65.082 814.378,65.082 815.069,65.082 815.760,65.082 816.451,65.082 817.142,65.082 817.833,65.082 818.524,65.082 819.215,65.082 819.906,65.082 820.598,65.082 821.289,65.082 821.980,65.082 822.671,65.082 823.362,65.082 824.053,65.082 824.744,65.082 825.435,65.082 826.127,65.082 826.818,65.082 827.509,65.082 828.200,65.082 828.891,65.082 829.582,65.082 830.273,65.082 830.964,65.082 831.656,65.082 832.347,65.082 833.038,65.082 833.729,65.082 834.420,65.082 " />
    <g
       id="g372" />
  </g>
  <g
     id="ID000031"
     transform="translate(-156.236,-21.4505)" />
  <g
     id="g401"
     transform="translate(-156.236,-21.4505)">
    <polyline
       points="575.250,283.020 575.250,280.113 "
       id="polyline403"
       style="fill:none;stroke:#000000;stroke-width:0.5pt;stroke-dasharray:none" />
    <polyline
       points="618.445,283.020 618.445,280.113 "
       id="polyline405"
       style="fill:none;stroke:#000000;stroke-width:0.5pt;stroke-dasharray:none" />
    <polyline
       points="661.640,283.020 661.640,280.113 "
       id="polyline407"
       style="fill:none;stroke:#000000;stroke-width:0.5pt;stroke-dasharray:none" />
    <polyline
       points="704.835,283.020 704.835,280.113 "
       id="polyline409"
       style="fill:none;stroke:#000000;stroke-width:0.5pt;stroke-dasharray:none" />
    <polyline
       points="748.030,283.020 748.030,280.113 "
       id="polyline411"
       style="fill:none;stroke:#000000;stroke-width:0.5pt;stroke-dasharray:none" />
    <polyline
       points="791.225,283.020 791.225,280.113 "
       id="polyline413"
       style="fill:none;stroke:#000000;stroke-width:0.5pt;stroke-dasharray:none" />
    <polyline
       points="834.420,283.020 834.420,280.113 "
       id="polyline415"
       style="fill:none;stroke:#000000;stroke-width:0.5pt;stroke-dasharray:none" />
    <polyline
       points="575.250,283.020 834.420,283.020 "
       id="polyline417"
       style="fill:none;stroke:#000000;stroke-width:0.5pt;stroke-dasharray:none" />
    <g
       transform="translate(575.25,300.003)"
       id="g419">
      <g
         id="g421">
        <text
           x="0"
           y="0"
           font-size="10pt"
           id="text423"
           style="font-size:12.5px;text-anchor:middle;fill:#000000;font-family:Helvetica">0</text>
      </g>
    </g>
    <g
       transform="translate(618.445,300.003)"
       id="g425">
      <g
         id="g427">
        <text
           x="0"
           y="0"
           font-size="10pt"
           id="text429"
           style="font-size:12.5px;text-anchor:middle;fill:#000000;font-family:Helvetica">0.2</text>
      </g>
    </g>
    <g
       transform="translate(661.64,300.003)"
       id="g431">
      <g
         id="g433">
        <text
           x="0"
           y="0"
           font-size="10pt"
           id="text435"
           style="font-size:12.5px;text-anchor:middle;fill:#000000;font-family:Helvetica">0.4</text>
      </g>
    </g>
    <g
       transform="translate(704.835,300.003)"
       id="g437">
      <g
         id="g439">
        <text
           x="0"
           y="0"
           font-size="10pt"
           id="text441"
           style="font-size:12.5px;text-anchor:middle;fill:#000000;font-family:Helvetica">0.6</text>
      </g>
    </g>
    <g
       transform="translate(748.03,300.003)"
       id="g443">
      <g
         id="g445">
        <text
           x="0"
           y="0"
           font-size="10pt"
           id="text447"
           style="font-size:12.5px;text-anchor:middle;fill:#000000;font-family:Helvetica">0.8</text>
      </g>
    </g>
    <g
       transform="translate(791.225,300.003)"
       id="g449">
      <g
         id="g451">
        <text
           x="0"
           y="0"
           font-size="10pt"
           id="text453"
           style="font-size:12.5px;text-anchor:middle;fill:#000000;font-family:Helvetica">1</text>
      </g>
    </g>
    <g
       transform="translate(834.42,300.003)"
       id="g455">
      <g
         id="g457">
        <text
           x="0"
           y="0"
           font-size="10pt"
           id="text459"
           style="font-size:12.5px;text-anchor:middle;fill:#000000;font-family:Helvetica">1.2</text>
      </g>
    </g>
    <polyline
       points="575.250,261.423 577.842,261.423 "
       id="polyline461"
       style="fill:none;stroke:#000000;stroke-width:0.5pt;stroke-dasharray:none" />
    <polyline
       points="575.250,222.154 577.842,222.154 "
       id="polyline463"
       style="fill:none;stroke:#000000;stroke-width:0.5pt;stroke-dasharray:none" />
    <polyline
       points="575.250,182.886 577.842,182.886 "
       id="polyline465"
       style="fill:none;stroke:#000000;stroke-width:0.5pt;stroke-dasharray:none" />
    <polyline
       points="575.250,143.618 577.842,143.618 "
       id="polyline467"
       style="fill:none;stroke:#000000;stroke-width:0.5pt;stroke-dasharray:none" />
    <polyline
       points="575.250,104.350 577.842,104.350 "
       id="polyline469"
       style="fill:none;stroke:#000000;stroke-width:0.5pt;stroke-dasharray:none" />
    <polyline
       points="575.250,65.082 577.842,65.082 "
       id="polyline471"
       style="fill:none;stroke:#000000;stroke-width:0.5pt;stroke-dasharray:none" />
    <polyline
       points="575.250,25.813 577.842,25.813 "
       id="polyline473"
       style="fill:none;stroke:#000000;stroke-width:0.5pt;stroke-dasharray:none" />
    <polyline
       points="575.250,283.020 575.250,23.850 "
       id="polyline475"
       style="fill:none;stroke:#000000;stroke-width:0.5pt;stroke-dasharray:none" />
    <g
       transform="translate(570.067,265.923)"
       id="g477">
      <g
         id="g479">
        <text
           x="0"
           y="0"
           font-size="10pt"
           id="text481"
           style="font-size:12.5px;text-anchor:end;fill:#000000;font-family:Helvetica">-10</text>
      </g>
    </g>
    <g
       transform="translate(570.067,226.654)"
       id="g483">
      <g
         id="g485">
        <text
           x="0"
           y="0"
           font-size="10pt"
           id="text487"
           style="font-size:12.5px;text-anchor:end;fill:#000000;font-family:Helvetica">-8</text>
      </g>
    </g>
    <g
       transform="translate(570.067,187.386)"
       id="g489">
      <g
         id="g491">
        <text
           x="0"
           y="0"
           font-size="10pt"
           id="text493"
           style="font-size:12.5px;text-anchor:end;fill:#000000;font-family:Helvetica">-6</text>
      </g>
    </g>
    <g
       transform="translate(570.067,148.118)"
       id="g495">
      <g
         id="g497">
        <text
           x="0"
           y="0"
           font-size="10pt"
           id="text499"
           style="font-size:12.5px;text-anchor:end;fill:#000000;font-family:Helvetica">-4</text>
      </g>
    </g>
    <g
       transform="translate(570.067,108.85)"
       id="g501">
      <g
         id="g503">
        <text
           x="0"
           y="0"
           font-size="10pt"
           id="text505"
           style="font-size:12.5px;text-anchor:end;fill:#000000;font-family:Helvetica">-2</text>
      </g>
    </g>
    <g
       transform="translate(570.067,69.582)"
       id="g507">
      <g
         id="g509">
        <text
           x="0"
           y="0"
           font-size="10pt"
           id="text511"
           style="font-size:12.5px;text-anchor:end;fill:#000000;font-family:Helvetica">0</text>
      </g>
    </g>
    <g
       transform="translate(570.067,30.313)"
       id="g513">
      <g
         id="g515">
        <text
           x="0"
           y="0"
           font-size="10pt"
           id="text517"
           style="font-size:12.5px;text-anchor:end;fill:#000000;font-family:Helvetica">2</text>
      </g>
    </g>
    <polyline
       points="575.250,283.020 575.250,280.428 "
       id="polyline519"
       style="fill:none;stroke:#000000;stroke-width:0.5pt;stroke-dasharray:none" />
    <polyline
       points="575.250,283.020 575.250,280.428 "
       id="polyline521"
       style="fill:none;stroke:#000000;stroke-width:0.5pt;stroke-dasharray:none" />
    <polyline
       points="575.250,283.020 575.250,280.428 "
       id="polyline523"
       style="fill:none;stroke:#000000;stroke-width:0.5pt;stroke-dasharray:none" />
    <polyline
       points="575.250,283.020 575.250,283.020 "
       id="polyline525"
       style="fill:none;stroke:#000000;stroke-width:0.5pt;stroke-dasharray:none" />
  </g>
  <g
     id="ID000032"
     transform="translate(-156.236,-21.4505)">
    <clipPath
       id="ID000033">
      <rect
         id="rect529"
         height="45.625"
         width="231.5"
         y="30.75"
         x="207.75" />
    </clipPath>
    <polygon
       style="fill:#ffffff;fill-opacity:1;stroke:none"
       id="polygon531"
       points="439.25,76.375 439.25,30.75 207.75,30.75 207.75,76.375 " />
    <polygon
       style="fill:#ffffff;fill-opacity:1;stroke:none"
       id="polygon533"
       points="439.25,30.75 439.25,30.75 207.75,30.75 207.75,30.75 " />
    <polygon
       style="fill:#ffffff;fill-opacity:1;stroke:none"
       id="polygon535"
       points="207.75,76.375 207.75,30.75 207.75,30.75 207.75,76.375 " />
    <g
       id="g537">
      <g
         id="ID000034">
        <g
           id="g540"
           transform="translate(257.357,48.937)">
          <g
             id="g542">
            <text
               style="font-size:12.5px;text-anchor:start;fill:#000000;font-family:Helvetica"
               id="text544"
               font-size="10pt"
               y="0"
               x="0">Exponential phase system</text>
          </g>
        </g>
      </g>
      <g
         clip-path="url(#ID000033)"
         id="ID000035">
        <polyline
           style="fill:none;stroke:#8e8ecc;stroke-width:2pt;stroke-dasharray:none"
           id="polyline547"
           points="215.250,43.250 252.750,43.250 " />
        <g
           id="g549" />
      </g>
      <g
         clip-path="url(#ID000033)"
         id="ID000036">
        <g
           id="g552" />
      </g>
      <g
         id="ID000037">
        <g
           id="g555"
           transform="translate(257.357,69.215)">
          <g
             id="g557">
            <text
               style="font-size:12.5px;text-anchor:start;fill:#000000;font-family:Helvetica"
               id="text559"
               font-size="10pt"
               y="0"
               x="0">Constant velocity phase system</text>
          </g>
        </g>
      </g>
      <g
         clip-path="url(#ID000033)"
         id="ID000038">
        <polyline
           style="fill:none;stroke:#cc8e8e;stroke-width:2pt;stroke-dasharray:none"
           id="polyline562"
           points="215.250,63.875 252.750,63.875 " />
        <g
           id="g564" />
      </g>
      <g
         clip-path="url(#ID000033)"
         id="ID000039">
        <g
           id="g567" />
      </g>
      <g
         id="ID000040" />
      <g
         id="ID000041" />
      <g
         id="ID000042" />
    </g>
    <g
       id="g572">
      <polyline
         style="fill:none;stroke:#000000;stroke-width:0.5pt;stroke-dasharray:none"
         id="polyline574"
         points="207.750,76.375 439.250,76.375 " />
      <polyline
         style="fill:none;stroke:#000000;stroke-width:0.5pt;stroke-dasharray:none"
         id="polyline576"
         points="207.750,30.750 439.250,30.750 " />
      <polyline
         style="fill:none;stroke:#000000;stroke-width:0.5pt;stroke-dasharray:none"
         id="polyline578"
         points="207.750,76.375 207.750,30.750 " />
      <polyline
         style="fill:none;stroke:#000000;stroke-width:0.5pt;stroke-dasharray:none"
         id="polyline580"
         points="439.250,76.375 439.250,30.750 " />
      <polyline
         style="fill:none;stroke:#000000;stroke-width:0.5pt;stroke-dasharray:none"
         id="polyline582"
         points="207.750,76.375 207.750,75.919 " />
      <polyline
         style="fill:none;stroke:#000000;stroke-width:0.5pt;stroke-dasharray:none"
         id="polyline584"
         points="207.750,76.375 207.750,76.375 " />
    </g>
  </g>
</svg>
